<ttFont>
    <TTGlyph name=".notdef" xMin="251" yMin="-555" xMax="1107" yMax="2146">
      <contour>
        <pt x="1107" y="-555" on="1"/>
        <pt x="251" y="-555" on="1"/>
        <pt x="251" y="2146" on="1"/>
        <pt x="1107" y="2146" on="1"/>
      </contour>
      <contour>
        <pt x="454" y="1965" on="1"/>
        <pt x="454" y="1876" on="1"/>
        <pt x="629" y="1876" on="1"/>
        <pt x="629" y="1776" on="1"/>
        <pt x="451" y="1776" on="1"/>
        <pt x="451" y="1687" on="1"/>
        <pt x="899" y="1687" on="1"/>
        <pt x="899" y="1776" on="1"/>
        <pt x="721" y="1776" on="1"/>
        <pt x="721" y="1876" on="1"/>
        <pt x="899" y="1876" on="1"/>
        <pt x="899" y="1965" on="1"/>
      </contour>
      <contour>
        <pt x="451" y="1617" on="1"/>
        <pt x="451" y="1336" on="1"/>
        <pt x="899" y="1336" on="1"/>
        <pt x="899" y="1428" on="1"/>
        <pt x="721" y="1428" on="1"/>
        <pt x="721" y="1617" on="1"/>
      </contour>
      <contour>
        <pt x="629" y="1428" on="1"/>
        <pt x="540" y="1428" on="1"/>
        <pt x="540" y="1525" on="1"/>
        <pt x="629" y="1525" on="1"/>
      </contour>
      <contour>
        <pt x="451" y="1263" on="1"/>
        <pt x="451" y="1174" on="1"/>
        <pt x="629" y="1174" on="1"/>
        <pt x="629" y="1074" on="1"/>
        <pt x="451" y="1074" on="1"/>
        <pt x="451" y="985" on="1"/>
        <pt x="721" y="985" on="1"/>
        <pt x="721" y="1174" on="1"/>
        <pt x="899" y="1174" on="1"/>
        <pt x="899" y="1263" on="1"/>
      </contour>
      <contour>
        <pt x="810" y="1101" on="1"/>
        <pt x="810" y="922" on="1"/>
        <pt x="451" y="922" on="1"/>
        <pt x="451" y="831" on="1"/>
        <pt x="899" y="831" on="1"/>
        <pt x="899" y="1101" on="1"/>
      </contour>
      <contour>
        <pt x="629" y="771" on="1"/>
        <pt x="629" y="620" on="1"/>
        <pt x="721" y="620" on="1"/>
        <pt x="721" y="682" on="1"/>
        <pt x="810" y="682" on="1"/>
        <pt x="810" y="555" on="1"/>
        <pt x="540" y="555" on="1"/>
        <pt x="540" y="771" on="1"/>
        <pt x="451" y="771" on="1"/>
        <pt x="451" y="466" on="1"/>
        <pt x="899" y="466" on="1"/>
        <pt x="899" y="771" on="1"/>
      </contour>
      <contour>
        <pt x="451" y="304" on="1"/>
        <pt x="451" y="-1" on="1"/>
        <pt x="899" y="-1" on="1"/>
        <pt x="899" y="304" on="1"/>
      </contour>
      <contour>
        <pt x="810" y="88" on="1"/>
        <pt x="540" y="88" on="1"/>
        <pt x="540" y="215" on="1"/>
        <pt x="810" y="215" on="1"/>
      </contour>
      <contour>
        <pt x="451" y="-63" on="1"/>
        <pt x="451" y="-153" on="1"/>
        <pt x="640" y="-153" on="1"/>
        <pt x="451" y="-279" on="1"/>
        <pt x="451" y="-369" on="1"/>
        <pt x="899" y="-369" on="1"/>
        <pt x="899" y="-279" on="1"/>
        <pt x="624" y="-279" on="1"/>
        <pt x="813" y="-153" on="1"/>
        <pt x="899" y="-153" on="1"/>
        <pt x="899" y="-63" on="1"/>
      </contour>
    </TTGlyph>
    <TTGlyph name=".ttfautohint" xMin="0" yMin="0" xMax="0" yMax="0">
      <contour>
        <pt x="0" y="0" on="1"/>
      </contour>
    </TTGlyph>
    <TTGlyph name="A" xMin="28" yMin="0" xMax="1311" yMax="1456">
      <contour>
        <pt x="973" y="381" on="1"/>
        <pt x="366" y="381" on="1"/>
        <pt x="228" y="0" on="1"/>
        <pt x="28" y="0" on="1"/>
        <pt x="584" y="1456" on="1"/>
        <pt x="754" y="1456" on="1"/>
        <pt x="1311" y="0" on="1"/>
        <pt x="1112" y="0" on="1"/>
      </contour>
      <contour>
        <pt x="916" y="538" on="1"/>
        <pt x="669" y="1218" on="1"/>
        <pt x="423" y="538" on="1"/>
      </contour>
    </TTGlyph>
    <TTGlyph name="A.smcp" xMin="20" yMin="0" xMax="1138" yMax="1165">
      <contour>
        <pt x="839" y="280" on="1"/>
        <pt x="321" y="280" on="1"/>
        <pt x="210" y="0" on="1"/>
        <pt x="20" y="0" on="1"/>
        <pt x="499" y="1165" on="1"/>
        <pt x="666" y="1165" on="1"/>
        <pt x="1138" y="0" on="1"/>
        <pt x="948" y="0" on="1"/>
      </contour>
      <contour>
        <pt x="780" y="431" on="1"/>
        <pt x="581" y="938" on="1"/>
        <pt x="381" y="431" on="1"/>
      </contour>
    </TTGlyph>
    <TTGlyph name="AE" xMin="-16" yMin="0" xMax="1881" yMax="1456">
      <contour>
        <pt x="1881" y="150" on="1"/>
        <pt x="1881" y="0" on="1"/>
        <pt x="996" y="0" on="1"/>
        <pt x="981" y="354" on="1"/>
        <pt x="418" y="354" on="1"/>
        <pt x="213" y="0" on="1"/>
        <pt x="-16" y="0" on="1"/>
        <pt x="865" y="1456" on="1"/>
        <pt x="1819" y="1456" on="1"/>
        <pt x="1819" y="1306" on="1"/>
        <pt x="1128" y="1306" on="1"/>
        <pt x="1148" y="833" on="1"/>
        <pt x="1738" y="833" on="1"/>
        <pt x="1738" y="683" on="1"/>
        <pt x="1154" y="683" on="1"/>
        <pt x="1177" y="150" on="1"/>
      </contour>
      <contour>
        <pt x="974" y="527" on="1"/>
        <pt x="943" y="1262" on="1"/>
        <pt x="518" y="527" on="1"/>
      </contour>
    </TTGlyph>
    <TTGlyph name="AE.smcp" xMin="9" yMin="0" xMax="1522" yMax="1165">
      <contour>
        <pt x="1522" y="149" on="1"/>
        <pt x="1522" y="0" on="1"/>
        <pt x="792" y="0" on="1"/>
        <pt x="781" y="302" on="1"/>
        <pt x="372" y="302" on="1"/>
        <pt x="209" y="0" on="1"/>
        <pt x="9" y="0" on="1"/>
        <pt x="671" y="1165" on="1"/>
        <pt x="1480" y="1165" on="1"/>
        <pt x="1480" y="1016" on="1"/>
        <pt x="942" y="1016" on="1"/>
        <pt x="954" y="683" on="1"/>
        <pt x="1417" y="683" on="1"/>
        <pt x="1417" y="534" on="1"/>
        <pt x="959" y="534" on="1"/>
        <pt x="973" y="149" on="1"/>
      </contour>
      <contour>
        <pt x="776" y="452" on="1"/>
        <pt x="756" y="1014" on="1"/>
        <pt x="453" y="452" on="1"/>
      </contour>
    </TTGlyph>
    <TTGlyph name="Aacute" xMin="28" yMin="0" xMax="1311" yMax="1847">
      <component glyphName=".ttfautohint" x="28" y="0" flags="0x0"/>
      <component glyphName="A" x="0" y="0" flags="0x0"/>
      <component glyphName="acutecomb" x="1239" y="311" flags="0x4"/>
    </TTGlyph>
    <TTGlyph name="Aacute.smcp" xMin="20" yMin="0" xMax="1138" yMax="1566">
      <component glyphName=".ttfautohint" x="20" y="0" flags="0x0"/>
      <component glyphName="A.smcp" x="0" y="0" flags="0x0"/>
      <component glyphName="acutecomb" x="1148" y="30" flags="0x4"/>
    </TTGlyph>
    <TTGlyph name="Acircumflex" xMin="28" yMin="0" xMax="1311" yMax="1847">
      <component glyphName=".ttfautohint" x="28" y="0" flags="0x0"/>
      <component glyphName="A" x="0" y="0" flags="0x0"/>
      <component glyphName="circumflex" x="201" y="311" flags="0x4"/>
    </TTGlyph>
    <TTGlyph name="Acircumflex.smcp" xMin="20" yMin="0" xMax="1138" yMax="1566">
      <component glyphName=".ttfautohint" x="20" y="0" flags="0x0"/>
      <component glyphName="A.smcp" x="0" y="0" flags="0x0"/>
      <component glyphName="circumflex" x="110" y="30" flags="0x4"/>
    </TTGlyph>
    <TTGlyph name="Adieresis" xMin="28" yMin="0" xMax="1311" yMax="1789">
      <component glyphName=".ttfautohint" x="28" y="0" flags="0x0"/>
      <component glyphName="A" x="0" y="0" flags="0x0"/>
      <component glyphName="dieresis" x="250" y="311" flags="0x4"/>
    </TTGlyph>
    <TTGlyph name="Adieresis.smcp" xMin="20" yMin="0" xMax="1138" yMax="1508">
      <component glyphName=".ttfautohint" x="20" y="0" flags="0x0"/>
      <component glyphName="A.smcp" x="0" y="0" flags="0x0"/>
      <component glyphName="dieresis" x="159" y="30" flags="0x4"/>
    </TTGlyph>
    <TTGlyph name="Agrave" xMin="28" yMin="0" xMax="1311" yMax="1847">
      <component glyphName=".ttfautohint" x="28" y="0" flags="0x0"/>
      <component glyphName="A" x="0" y="0" flags="0x0"/>
      <component glyphName="gravecomb" x="1202" y="311" flags="0x4"/>
    </TTGlyph>
    <TTGlyph name="Agrave.smcp" xMin="20" yMin="0" xMax="1138" yMax="1566">
      <component glyphName=".ttfautohint" x="20" y="0" flags="0x0"/>
      <component glyphName="A.smcp" x="0" y="0" flags="0x0"/>
      <component glyphName="gravecomb" x="1111" y="30" flags="0x4"/>
    </TTGlyph>
    <TTGlyph name="Aring" xMin="28" yMin="0" xMax="1311" yMax="1938">
      <component glyphName=".ttfautohint" x="28" y="0" flags="0x0"/>
      <component glyphName="A" x="0" y="0" flags="0x0"/>
      <component glyphName="ring" x="336" y="322" flags="0x4"/>
    </TTGlyph>
    <TTGlyph name="Aring.smcp" xMin="20" yMin="0" xMax="1138" yMax="1657">
      <component glyphName=".ttfautohint" x="20" y="0" flags="0x0"/>
      <component glyphName="A.smcp" x="0" y="0" flags="0x0"/>
      <component glyphName="ring" x="245" y="41" flags="0x4"/>
    </TTGlyph>
    <TTGlyph name="Atilde" xMin="28" yMin="0" xMax="1311" yMax="1827">
      <component glyphName=".ttfautohint" x="28" y="0" flags="0x0"/>
      <component glyphName="A" x="0" y="0" flags="0x0"/>
      <component glyphName="tilde" x="197" y="315" flags="0x4"/>
    </TTGlyph>
    <TTGlyph name="Atilde.smcp" xMin="20" yMin="0" xMax="1138" yMax="1546">
      <component glyphName=".ttfautohint" x="20" y="0" flags="0x0"/>
      <component glyphName="A.smcp" x="0" y="0" flags="0x0"/>
      <component glyphName="tilde" x="106" y="34" flags="0x4"/>
    </TTGlyph>
    <TTGlyph name="B" xMin="169" yMin="0" xMax="1160" yMax="1456">
      <contour>
        <pt x="1025" y="734" on="0"/>
        <pt x="1160" y="546" on="0"/>
        <pt x="1160" y="420" on="1"/>
        <pt x="1160" y="286" on="0"/>
        <pt x="1042" y="97" on="0"/>
        <pt x="825" y="0" on="0"/>
        <pt x="679" y="0" on="1"/>
        <pt x="169" y="0" on="1"/>
        <pt x="169" y="1456" on="1"/>
        <pt x="647" y="1456" on="1"/>
        <pt x="876" y="1456" on="0"/>
        <pt x="1122" y="1266" on="0"/>
        <pt x="1122" y="1068" on="1"/>
        <pt x="1122" y="968" on="0"/>
        <pt x="1007" y="809" on="0"/>
        <pt x="905" y="766" on="1"/>
      </contour>
      <contour>
        <pt x="363" y="1299" on="1"/>
        <pt x="363" y="835" on="1"/>
        <pt x="652" y="835" on="1"/>
        <pt x="734" y="835" on="0"/>
        <pt x="859" y="891" on="0"/>
        <pt x="928" y="997" on="0"/>
        <pt x="928" y="1070" on="1"/>
        <pt x="928" y="1189" on="0"/>
        <pt x="790" y="1299" on="0"/>
        <pt x="647" y="1299" on="1"/>
      </contour>
      <contour>
        <pt x="814" y="156" on="0"/>
        <pt x="966" y="297" on="0"/>
        <pt x="966" y="418" on="1"/>
        <pt x="966" y="544" on="0"/>
        <pt x="830" y="682" on="0"/>
        <pt x="688" y="682" on="1"/>
        <pt x="363" y="682" on="1"/>
        <pt x="363" y="156" on="1"/>
        <pt x="679" y="156" on="1"/>
      </contour>
    </TTGlyph>
    <TTGlyph name="B.smcp" xMin="138" yMin="0" xMax="1008" yMax="1165">
      <contour>
        <pt x="896" y="583" on="0"/>
        <pt x="1008" y="431" on="0"/>
        <pt x="1008" y="334" on="1"/>
        <pt x="1008" y="171" on="0"/>
        <pt x="783" y="0" on="0"/>
        <pt x="585" y="0" on="1"/>
        <pt x="138" y="0" on="1"/>
        <pt x="138" y="1165" on="1"/>
        <pt x="545" y="1165" on="1"/>
        <pt x="749" y="1165" on="0"/>
        <pt x="976" y="1007" on="0"/>
        <pt x="976" y="848" on="1"/>
        <pt x="976" y="767" on="0"/>
        <pt x="881" y="641" on="0"/>
        <pt x="794" y="608" on="1"/>
      </contour>
      <contour>
        <pt x="325" y="1014" on="1"/>
        <pt x="325" y="671" on="1"/>
        <pt x="558" y="671" on="1"/>
        <pt x="666" y="671" on="0"/>
        <pt x="789" y="758" on="0"/>
        <pt x="789" y="840" on="1"/>
        <pt x="789" y="1014" on="0"/>
        <pt x="545" y="1014" on="1"/>
      </contour>
      <contour>
        <pt x="698" y="150" on="0"/>
        <pt x="821" y="248" on="0"/>
        <pt x="821" y="335" on="1"/>
        <pt x="821" y="427" on="0"/>
        <pt x="709" y="531" on="0"/>
        <pt x="594" y="531" on="1"/>
        <pt x="325" y="531" on="1"/>
        <pt x="325" y="150" on="1"/>
        <pt x="585" y="150" on="1"/>
      </contour>
    </TTGlyph>
    <TTGlyph name="C" xMin="119" yMin="-20" xMax="1241" yMax="1476">
      <contour>
        <pt x="1225" y="320" on="0"/>
        <pt x="1095" y="103" on="0"/>
        <pt x="858" y="-20" on="0"/>
        <pt x="688" y="-20" on="1"/>
        <pt x="519" y="-20" on="0"/>
        <pt x="261" y="147" on="0"/>
        <pt x="119" y="453" on="0"/>
        <pt x="119" y="654" on="1"/>
        <pt x="119" y="801" on="1"/>
        <pt x="119" y="1003" on="0"/>
        <pt x="262" y="1309" on="0"/>
        <pt x="528" y="1476" on="0"/>
        <pt x="706" y="1476" on="1"/>
        <pt x="867" y="1476" on="0"/>
        <pt x="1097" y="1355" on="0"/>
        <pt x="1226" y="1136" on="0"/>
        <pt x="1241" y="989" on="1"/>
        <pt x="1047" y="989" on="1"/>
        <pt x="1024" y="1152" on="0"/>
        <pt x="866" y="1319" on="0"/>
        <pt x="706" y="1319" on="1"/>
        <pt x="579" y="1319" on="0"/>
        <pt x="403" y="1191" on="0"/>
        <pt x="314" y="959" on="0"/>
        <pt x="314" y="803" on="1"/>
        <pt x="314" y="654" on="1"/>
        <pt x="314" y="506" on="0"/>
        <pt x="396" y="272" on="0"/>
        <pt x="564" y="136" on="0"/>
        <pt x="688" y="136" on="1"/>
        <pt x="807" y="136" on="0"/>
        <pt x="954" y="211" on="0"/>
        <pt x="1029" y="353" on="0"/>
        <pt x="1047" y="462" on="1"/>
        <pt x="1241" y="462" on="1"/>
      </contour>
    </TTGlyph>
    <TTGlyph name="C.smcp" xMin="97" yMin="-16" xMax="1073" yMax="1181">
      <contour>
        <pt x="1060" y="260" on="0"/>
        <pt x="946" y="83" on="0"/>
        <pt x="739" y="-16" on="0"/>
        <pt x="592" y="-16" on="1"/>
        <pt x="443" y="-16" on="0"/>
        <pt x="219" y="118" on="0"/>
        <pt x="97" y="366" on="0"/>
        <pt x="97" y="531" on="1"/>
        <pt x="97" y="633" on="1"/>
        <pt x="97" y="799" on="0"/>
        <pt x="220" y="1047" on="0"/>
        <pt x="449" y="1181" on="0"/>
        <pt x="603" y="1181" on="1"/>
        <pt x="745" y="1181" on="0"/>
        <pt x="947" y="1082" on="0"/>
        <pt x="1060" y="903" on="0"/>
        <pt x="1073" y="783" on="1"/>
        <pt x="886" y="783" on="1"/>
        <pt x="869" y="905" on="0"/>
        <pt x="738" y="1030" on="0"/>
        <pt x="603" y="1030" on="1"/>
        <pt x="446" y="1030" on="0"/>
        <pt x="282" y="823" on="0"/>
        <pt x="282" y="634" on="1"/>
        <pt x="282" y="531" on="1"/>
        <pt x="282" y="347" on="0"/>
        <pt x="437" y="134" on="0"/>
        <pt x="592" y="134" on="1"/>
        <pt x="689" y="134" on="0"/>
        <pt x="810" y="189" on="0"/>
        <pt x="873" y="295" on="0"/>
        <pt x="886" y="377" on="1"/>
        <pt x="1073" y="377" on="1"/>
      </contour>
    </TTGlyph>
    <TTGlyph name="C.ss06" xMin="126" yMin="-21" xMax="1311" yMax="1477">
      <contour>
        <pt x="1294" y="321" on="0"/>
        <pt x="1158" y="103" on="0"/>
        <pt x="919" y="-21" on="0"/>
        <pt x="754" y="-21" on="1"/>
        <pt x="577" y="-21" on="0"/>
        <pt x="290" y="159" on="0"/>
        <pt x="126" y="486" on="0"/>
        <pt x="126" y="697" on="1"/>
        <pt x="126" y="758" on="1"/>
        <pt x="126" y="971" on="0"/>
        <pt x="283" y="1297" on="0"/>
        <pt x="564" y="1477" on="0"/>
        <pt x="745" y="1477" on="1"/>
        <pt x="907" y="1477" on="0"/>
        <pt x="1151" y="1354" on="0"/>
        <pt x="1295" y="1134" on="0"/>
        <pt x="1311" y="989" on="1"/>
        <pt x="1116" y="989" on="1"/>
        <pt x="1093" y="1146" on="0"/>
        <pt x="908" y="1320" on="0"/>
        <pt x="745" y="1320" on="1"/>
        <pt x="616" y="1320" on="0"/>
        <pt x="425" y="1179" on="0"/>
        <pt x="321" y="925" on="0"/>
        <pt x="321" y="760" on="1"/>
        <pt x="321" y="697" on="1"/>
        <pt x="321" y="533" on="0"/>
        <pt x="432" y="278" on="0"/>
        <pt x="630" y="135" on="0"/>
        <pt x="754" y="135" on="1"/>
        <pt x="922" y="135" on="0"/>
        <pt x="1091" y="301" on="0"/>
        <pt x="1116" y="462" on="1"/>
        <pt x="1310" y="462" on="1"/>
      </contour>
    </TTGlyph>
    <TTGlyph name="Ccedilla" xMin="119" yMin="-445" xMax="1241" yMax="1476">
      <component glyphName=".ttfautohint" x="119" y="0" flags="0x0"/>
      <component glyphName="C" x="0" y="0" flags="0x0"/>
      <component glyphName="cedilla" x="466" y="-10" flags="0x4"/>
    </TTGlyph>
    <TTGlyph name="Ccedilla.smcp" xMin="97" yMin="-439" xMax="1073" yMax="1181">
      <component glyphName=".ttfautohint" x="97" y="0" flags="0x0"/>
      <component glyphName="C.smcp" x="0" y="0" flags="0x0"/>
      <component glyphName="cedilla" x="372" y="-4" flags="0x4"/>
    </TTGlyph>
    <TTGlyph name="D" xMin="169" yMin="0" xMax="1223" yMax="1456">
      <contour>
        <pt x="771" y="1456" on="0"/>
        <pt x="1062" y="1289" on="0"/>
        <pt x="1223" y="979" on="0"/>
        <pt x="1223" y="772" on="1"/>
        <pt x="1223" y="684" on="1"/>
        <pt x="1223" y="475" on="0"/>
        <pt x="1062" y="166" on="0"/>
        <pt x="764" y="0" on="0"/>
        <pt x="563" y="0" on="1"/>
        <pt x="169" y="0" on="1"/>
        <pt x="169" y="1456" on="1"/>
        <pt x="580" y="1456" on="1"/>
      </contour>
      <contour>
        <pt x="1031" y="774" on="1"/>
        <pt x="1031" y="940" on="0"/>
        <pt x="926" y="1175" on="0"/>
        <pt x="723" y="1299" on="0"/>
        <pt x="580" y="1299" on="1"/>
        <pt x="363" y="1299" on="1"/>
        <pt x="363" y="156" on="1"/>
        <pt x="563" y="156" on="1"/>
        <pt x="715" y="156" on="0"/>
        <pt x="925" y="285" on="0"/>
        <pt x="1031" y="522" on="0"/>
        <pt x="1031" y="684" on="1"/>
      </contour>
    </TTGlyph>
    <TTGlyph name="D.smcp" xMin="138" yMin="0" xMax="1056" yMax="1165">
      <contour>
        <pt x="663" y="1165" on="0"/>
        <pt x="916" y="1029" on="0"/>
        <pt x="1056" y="779" on="0"/>
        <pt x="1056" y="614" on="1"/>
        <pt x="1056" y="550" on="1"/>
        <pt x="1056" y="384" on="0"/>
        <pt x="916" y="135" on="0"/>
        <pt x="658" y="0" on="0"/>
        <pt x="487" y="0" on="1"/>
        <pt x="138" y="0" on="1"/>
        <pt x="138" y="1165" on="1"/>
        <pt x="499" y="1165" on="1"/>
      </contour>
      <contour>
        <pt x="870" y="616" on="1"/>
        <pt x="870" y="808" on="0"/>
        <pt x="680" y="1014" on="0"/>
        <pt x="499" y="1014" on="1"/>
        <pt x="325" y="1014" on="1"/>
        <pt x="325" y="150" on="1"/>
        <pt x="487" y="150" on="1"/>
        <pt x="676" y="150" on="0"/>
        <pt x="870" y="361" on="0"/>
        <pt x="870" y="550" on="1"/>
      </contour>
    </TTGlyph>
    <TTGlyph name="D.ss06" xMin="178" yMin="0" xMax="1298" yMax="1456">
      <contour>
        <pt x="806" y="1456" on="0"/>
        <pt x="1119" y="1282" on="0"/>
        <pt x="1298" y="961" on="0"/>
        <pt x="1298" y="749" on="1"/>
        <pt x="1298" y="706" on="1"/>
        <pt x="1298" y="493" on="0"/>
        <pt x="1119" y="173" on="0"/>
        <pt x="799" y="0" on="0"/>
        <pt x="595" y="0" on="1"/>
        <pt x="178" y="0" on="1"/>
        <pt x="178" y="1456" on="1"/>
        <pt x="612" y="1456" on="1"/>
      </contour>
      <contour>
        <pt x="1102" y="751" on="1"/>
        <pt x="1102" y="921" on="0"/>
        <pt x="980" y="1169" on="0"/>
        <pt x="758" y="1299" on="0"/>
        <pt x="611" y="1299" on="1"/>
        <pt x="372" y="1299" on="1"/>
        <pt x="372" y="156" on="1"/>
        <pt x="594" y="156" on="1"/>
        <pt x="751" y="156" on="0"/>
        <pt x="980" y="293" on="0"/>
        <pt x="1102" y="542" on="0"/>
        <pt x="1102" y="706" on="1"/>
      </contour>
    </TTGlyph>
    <TTGlyph name="E" xMin="169" yMin="0" xMax="1094" yMax="1456">
      <contour>
        <pt x="1094" y="156" on="1"/>
        <pt x="1094" y="0" on="1"/>
        <pt x="169" y="0" on="1"/>
        <pt x="169" y="1456" on="1"/>
        <pt x="1084" y="1456" on="1"/>
        <pt x="1084" y="1299" on="1"/>
        <pt x="363" y="1299" on="1"/>
        <pt x="363" y="830" on="1"/>
        <pt x="992" y="830" on="1"/>
        <pt x="992" y="674" on="1"/>
        <pt x="363" y="674" on="1"/>
        <pt x="363" y="156" on="1"/>
      </contour>
    </TTGlyph>
    <TTGlyph name="E.smcp" xMin="138" yMin="0" xMax="943" yMax="1165">
      <contour>
        <pt x="943" y="150" on="1"/>
        <pt x="943" y="0" on="1"/>
        <pt x="138" y="0" on="1"/>
        <pt x="138" y="1165" on="1"/>
        <pt x="937" y="1165" on="1"/>
        <pt x="937" y="1014" on="1"/>
        <pt x="325" y="1014" on="1"/>
        <pt x="325" y="678" on="1"/>
        <pt x="856" y="678" on="1"/>
        <pt x="856" y="527" on="1"/>
        <pt x="325" y="527" on="1"/>
        <pt x="325" y="150" on="1"/>
      </contour>
    </TTGlyph>
    <TTGlyph name="Eacute" xMin="169" yMin="0" xMax="1094" yMax="1858">
      <component glyphName=".ttfautohint" x="169" y="0" flags="0x0"/>
      <component glyphName="E" x="0" y="0" flags="0x0"/>
      <component glyphName="acutecomb" x="1185" y="322" flags="0x4"/>
    </TTGlyph>
    <TTGlyph name="Eacute.smcp" xMin="138" yMin="0" xMax="943" yMax="1566">
      <component glyphName=".ttfautohint" x="138" y="0" flags="0x0"/>
      <component glyphName="E.smcp" x="0" y="0" flags="0x0"/>
      <component glyphName="acutecomb" x="1103" y="30" flags="0x4"/>
    </TTGlyph>
    <TTGlyph name="Ecircumflex" xMin="169" yMin="0" xMax="1094" yMax="1858">
      <component glyphName=".ttfautohint" x="169" y="0" flags="0x0"/>
      <component glyphName="E" x="0" y="0" flags="0x0"/>
      <component glyphName="circumflex" x="147" y="322" flags="0x4"/>
    </TTGlyph>
    <TTGlyph name="Ecircumflex.smcp" xMin="138" yMin="0" xMax="943" yMax="1566">
      <component glyphName=".ttfautohint" x="138" y="0" flags="0x0"/>
      <component glyphName="E.smcp" x="0" y="0" flags="0x0"/>
      <component glyphName="circumflex" x="65" y="30" flags="0x4"/>
    </TTGlyph>
    <TTGlyph name="Edieresis" xMin="169" yMin="0" xMax="1094" yMax="1800">
      <component glyphName=".ttfautohint" x="169" y="0" flags="0x0"/>
      <component glyphName="E" x="0" y="0" flags="0x0"/>
      <component glyphName="dieresis" x="196" y="322" flags="0x4"/>
    </TTGlyph>
    <TTGlyph name="Edieresis.smcp" xMin="138" yMin="0" xMax="943" yMax="1508">
      <component glyphName=".ttfautohint" x="138" y="0" flags="0x0"/>
      <component glyphName="E.smcp" x="0" y="0" flags="0x0"/>
      <component glyphName="dieresis" x="114" y="30" flags="0x4"/>
    </TTGlyph>
    <TTGlyph name="Egrave" xMin="169" yMin="0" xMax="1094" yMax="1858">
      <component glyphName=".ttfautohint" x="169" y="0" flags="0x0"/>
      <component glyphName="E" x="0" y="0" flags="0x0"/>
      <component glyphName="gravecomb" x="1148" y="322" flags="0x4"/>
    </TTGlyph>
    <TTGlyph name="Egrave.smcp" xMin="138" yMin="0" xMax="943" yMax="1566">
      <component glyphName=".ttfautohint" x="138" y="0" flags="0x0"/>
      <component glyphName="E.smcp" x="0" y="0" flags="0x0"/>
      <component glyphName="gravecomb" x="1066" y="30" flags="0x4"/>
    </TTGlyph>
    <TTGlyph name="Eth" xMin="6" yMin="0" xMax="1223" yMax="1456">
      <component glyphName=".ttfautohint" x="6" y="0" flags="0x0"/>
      <component glyphName="D" x="0" y="0" flags="0x0"/>
      <component glyphName="crossbar" x="-137" y="14" flags="0x4"/>
    </TTGlyph>
    <TTGlyph name="Eth.smcp" xMin="-68" yMin="0" xMax="1056" yMax="1165">
      <component glyphName=".ttfautohint" x="0" y="0" flags="0x0"/>
      <component glyphName="D.smcp" x="0" y="0" flags="0x0"/>
      <component glyphName="crossbar" x="-211" y="-138" flags="0x4"/>
    </TTGlyph>
    <TTGlyph name="Euro" xMin="96" yMin="-20" xMax="1053" yMax="1476">
      <contour>
        <pt x="929" y="135" on="0"/>
        <pt x="1033" y="169" on="1"/>
        <pt x="1053" y="10" on="1"/>
        <pt x="936" y="-20" on="0"/>
        <pt x="813" y="-20" on="1"/>
        <pt x="654" y="-20" on="0"/>
        <pt x="414" y="107" on="0"/>
        <pt x="276" y="359" on="0"/>
        <pt x="273" y="542" on="1"/>
        <pt x="96" y="542" on="1"/>
        <pt x="96" y="665" on="1"/>
        <pt x="273" y="665" on="1"/>
        <pt x="273" y="803" on="1"/>
        <pt x="96" y="803" on="1"/>
        <pt x="96" y="927" on="1"/>
        <pt x="274" y="927" on="1"/>
        <pt x="280" y="1106" on="0"/>
        <pt x="417" y="1352" on="0"/>
        <pt x="655" y="1476" on="0"/>
        <pt x="812" y="1476" on="1"/>
        <pt x="919" y="1476" on="0"/>
        <pt x="1053" y="1445" on="1"/>
        <pt x="1033" y="1285" on="1"/>
        <pt x="923" y="1320" on="0"/>
        <pt x="814" y="1320" on="1"/>
        <pt x="656" y="1320" on="0"/>
        <pt x="476" y="1123" on="0"/>
        <pt x="469" y="927" on="1"/>
        <pt x="851" y="927" on="1"/>
        <pt x="851" y="803" on="1"/>
        <pt x="468" y="803" on="1"/>
        <pt x="468" y="665" on="1"/>
        <pt x="851" y="665" on="1"/>
        <pt x="851" y="542" on="1"/>
        <pt x="468" y="542" on="1"/>
        <pt x="472" y="341" on="0"/>
        <pt x="656" y="135" on="0"/>
        <pt x="815" y="135" on="1"/>
      </contour>
    </TTGlyph>
    <TTGlyph name="Euro.smcp" xMin="67" yMin="-16" xMax="927" yMax="1181">
      <contour>
        <pt x="754" y="134" on="0"/>
        <pt x="845" y="148" on="0"/>
        <pt x="900" y="163" on="1"/>
        <pt x="927" y="15" on="1"/>
        <pt x="814" y="-16" on="0"/>
        <pt x="698" y="-16" on="1"/>
        <pt x="489" y="-16" on="0"/>
        <pt x="242" y="200" on="0"/>
        <pt x="222" y="406" on="1"/>
        <pt x="67" y="406" on="1"/>
        <pt x="67" y="527" on="1"/>
        <pt x="218" y="527" on="1"/>
        <pt x="218" y="636" on="1"/>
        <pt x="67" y="636" on="1"/>
        <pt x="67" y="757" on="1"/>
        <pt x="222" y="757" on="1"/>
        <pt x="243" y="962" on="0"/>
        <pt x="489" y="1181" on="0"/>
        <pt x="696" y="1181" on="1"/>
        <pt x="755" y="1181" on="0"/>
        <pt x="859" y="1166" on="0"/>
        <pt x="927" y="1150" on="1"/>
        <pt x="906" y="1003" on="1"/>
        <pt x="856" y="1018" on="0"/>
        <pt x="757" y="1031" on="0"/>
        <pt x="696" y="1031" on="1"/>
        <pt x="440" y="1031" on="0"/>
        <pt x="408" y="757" on="1"/>
        <pt x="817" y="757" on="1"/>
        <pt x="817" y="636" on="1"/>
        <pt x="404" y="636" on="1"/>
        <pt x="404" y="527" on="1"/>
        <pt x="817" y="527" on="1"/>
        <pt x="817" y="406" on="1"/>
        <pt x="408" y="406" on="1"/>
        <pt x="440" y="134" on="0"/>
        <pt x="698" y="134" on="1"/>
      </contour>
    </TTGlyph>
    <TTGlyph name="F" xMin="169" yMin="0" xMax="1071" yMax="1456">
      <contour>
        <pt x="363" y="1299" on="1"/>
        <pt x="363" y="800" on="1"/>
        <pt x="972" y="800" on="1"/>
        <pt x="972" y="644" on="1"/>
        <pt x="363" y="644" on="1"/>
        <pt x="363" y="0" on="1"/>
        <pt x="169" y="0" on="1"/>
        <pt x="169" y="1456" on="1"/>
        <pt x="1071" y="1456" on="1"/>
        <pt x="1071" y="1299" on="1"/>
      </contour>
    </TTGlyph>
    <TTGlyph name="F.smcp" xMin="138" yMin="0" xMax="923" yMax="1165">
      <contour>
        <pt x="325" y="1014" on="1"/>
        <pt x="325" y="652" on="1"/>
        <pt x="843" y="652" on="1"/>
        <pt x="843" y="500" on="1"/>
        <pt x="325" y="500" on="1"/>
        <pt x="325" y="0" on="1"/>
        <pt x="138" y="0" on="1"/>
        <pt x="138" y="1165" on="1"/>
        <pt x="923" y="1165" on="1"/>
        <pt x="923" y="1014" on="1"/>
      </contour>
    </TTGlyph>
    <TTGlyph name="G" xMin="122" yMin="-20" xMax="1245" yMax="1476">
      <contour>
        <pt x="1187" y="107" on="0"/>
        <pt x="946" y="-20" on="0"/>
        <pt x="730" y="-20" on="1"/>
        <pt x="552" y="-20" on="0"/>
        <pt x="277" y="145" on="0"/>
        <pt x="122" y="458" on="0"/>
        <pt x="122" y="671" on="1"/>
        <pt x="122" y="786" on="1"/>
        <pt x="122" y="1003" on="0"/>
        <pt x="258" y="1312" on="0"/>
        <pt x="521" y="1476" on="0"/>
        <pt x="707" y="1476" on="1"/>
        <pt x="947" y="1476" on="0"/>
        <pt x="1216" y="1234" on="0"/>
        <pt x="1245" y="1030" on="1"/>
        <pt x="1051" y="1030" on="1"/>
        <pt x="1029" y="1160" on="0"/>
        <pt x="864" y="1319" on="0"/>
        <pt x="708" y="1319" on="1"/>
        <pt x="511" y="1319" on="0"/>
        <pt x="317" y="1041" on="0"/>
        <pt x="317" y="788" on="1"/>
        <pt x="317" y="671" on="1"/>
        <pt x="317" y="506" on="0"/>
        <pt x="420" y="264" on="0"/>
        <pt x="607" y="136" on="0"/>
        <pt x="731" y="136" on="1"/>
        <pt x="868" y="136" on="0"/>
        <pt x="1012" y="197" on="0"/>
        <pt x="1052" y="242" on="1"/>
        <pt x="1052" y="570" on="1"/>
        <pt x="716" y="570" on="1"/>
        <pt x="716" y="725" on="1"/>
        <pt x="1245" y="725" on="1"/>
        <pt x="1245" y="191" on="1"/>
      </contour>
    </TTGlyph>
    <TTGlyph name="G.smcp" xMin="99" yMin="-16" xMax="1078" yMax="1181">
      <contour>
        <pt x="1027" y="84" on="0"/>
        <pt x="812" y="-16" on="0"/>
        <pt x="627" y="-16" on="1"/>
        <pt x="472" y="-16" on="0"/>
        <pt x="233" y="117" on="0"/>
        <pt x="99" y="368" on="0"/>
        <pt x="99" y="540" on="1"/>
        <pt x="99" y="625" on="1"/>
        <pt x="99" y="799" on="0"/>
        <pt x="220" y="1049" on="0"/>
        <pt x="448" y="1181" on="0"/>
        <pt x="608" y="1181" on="1"/>
        <pt x="821" y="1181" on="0"/>
        <pt x="1053" y="983" on="0"/>
        <pt x="1078" y="813" on="1"/>
        <pt x="893" y="813" on="1"/>
        <pt x="852" y="1030" on="0"/>
        <pt x="610" y="1030" on="1"/>
        <pt x="449" y="1030" on="0"/>
        <pt x="287" y="821" on="0"/>
        <pt x="287" y="627" on="1"/>
        <pt x="287" y="540" on="1"/>
        <pt x="287" y="413" on="0"/>
        <pt x="371" y="230" on="0"/>
        <pt x="526" y="134" on="0"/>
        <pt x="631" y="134" on="1"/>
        <pt x="740" y="134" on="0"/>
        <pt x="859" y="178" on="0"/>
        <pt x="892" y="209" on="1"/>
        <pt x="892" y="448" on="1"/>
        <pt x="612" y="448" on="1"/>
        <pt x="612" y="591" on="1"/>
        <pt x="1078" y="591" on="1"/>
        <pt x="1078" y="150" on="1"/>
      </contour>
    </TTGlyph>
    <TTGlyph name="G.ss06" xMin="126" yMin="-21" xMax="1312" yMax="1477">
      <contour>
        <pt x="1280" y="144" on="0"/>
        <pt x="1147" y="47" on="0"/>
        <pt x="928" y="-21" on="0"/>
        <pt x="783" y="-21" on="1"/>
        <pt x="597" y="-21" on="0"/>
        <pt x="298" y="158" on="0"/>
        <pt x="126" y="492" on="0"/>
        <pt x="126" y="715" on="1"/>
        <pt x="126" y="742" on="1"/>
        <pt x="126" y="966" on="0"/>
        <pt x="286" y="1299" on="0"/>
        <pt x="568" y="1477" on="0"/>
        <pt x="747" y="1477" on="1"/>
        <pt x="1001" y="1477" on="0"/>
        <pt x="1280" y="1236" on="0"/>
        <pt x="1312" y="1030" on="1"/>
        <pt x="1117" y="1030" on="1"/>
        <pt x="1091" y="1163" on="0"/>
        <pt x="919" y="1320" on="0"/>
        <pt x="747" y="1320" on="1"/>
        <pt x="623" y="1320" on="0"/>
        <pt x="429" y="1177" on="0"/>
        <pt x="321" y="916" on="0"/>
        <pt x="321" y="744" on="1"/>
        <pt x="321" y="715" on="1"/>
        <pt x="321" y="539" on="0"/>
        <pt x="441" y="276" on="0"/>
        <pt x="651" y="135" on="0"/>
        <pt x="783" y="135" on="1"/>
        <pt x="914" y="135" on="0"/>
        <pt x="1084" y="201" on="0"/>
        <pt x="1118" y="242" on="1"/>
        <pt x="1118" y="569" on="1"/>
        <pt x="784" y="569" on="1"/>
        <pt x="784" y="723" on="1"/>
        <pt x="1312" y="723" on="1"/>
        <pt x="1312" y="191" on="1"/>
      </contour>
    </TTGlyph>
    <TTGlyph name="H" xMin="169" yMin="0" xMax="1289" yMax="1456">
      <contour>
        <pt x="1289" y="1456" on="1"/>
        <pt x="1289" y="0" on="1"/>
        <pt x="1095" y="0" on="1"/>
        <pt x="1095" y="674" on="1"/>
        <pt x="363" y="674" on="1"/>
        <pt x="363" y="0" on="1"/>
        <pt x="169" y="0" on="1"/>
        <pt x="169" y="1456" on="1"/>
        <pt x="363" y="1456" on="1"/>
        <pt x="363" y="830" on="1"/>
        <pt x="1095" y="830" on="1"/>
        <pt x="1095" y="1456" on="1"/>
      </contour>
    </TTGlyph>
    <TTGlyph name="H.smcp" xMin="138" yMin="0" xMax="1113" yMax="1165">
      <contour>
        <pt x="1113" y="1165" on="1"/>
        <pt x="1113" y="0" on="1"/>
        <pt x="927" y="0" on="1"/>
        <pt x="927" y="499" on="1"/>
        <pt x="325" y="499" on="1"/>
        <pt x="325" y="0" on="1"/>
        <pt x="138" y="0" on="1"/>
        <pt x="138" y="1165" on="1"/>
        <pt x="325" y="1165" on="1"/>
        <pt x="325" y="650" on="1"/>
        <pt x="927" y="650" on="1"/>
        <pt x="927" y="1165" on="1"/>
      </contour>
    </TTGlyph>
    <TTGlyph name="I" xMin="183" yMin="0" xMax="377" yMax="1456">
      <contour>
        <pt x="183" y="0" on="1"/>
        <pt x="183" y="1456" on="1"/>
        <pt x="377" y="1456" on="1"/>
        <pt x="377" y="0" on="1"/>
      </contour>
    </TTGlyph>
    <TTGlyph name="I.smcp" xMin="151" yMin="0" xMax="338" yMax="1165">
      <contour>
        <pt x="151" y="0" on="1"/>
        <pt x="151" y="1165" on="1"/>
        <pt x="338" y="1165" on="1"/>
        <pt x="338" y="0" on="1"/>
      </contour>
    </TTGlyph>
    <TTGlyph name="Iacute" xMin="183" yMin="0" xMax="605" yMax="1858">
      <component glyphName=".ttfautohint" x="183" y="0" flags="0x0"/>
      <component glyphName="I" x="0" y="0" flags="0x0"/>
      <component glyphName="acutecomb" x="845" y="322" flags="0x4"/>
    </TTGlyph>
    <TTGlyph name="Iacute.smcp" xMin="151" yMin="0" xMax="571" yMax="1566">
      <component glyphName=".ttfautohint" x="151" y="0" flags="0x0"/>
      <component glyphName="I.smcp" x="0" y="0" flags="0x0"/>
      <component glyphName="acutecomb" x="811" y="30" flags="0x4"/>
    </TTGlyph>
    <TTGlyph name="Icircumflex" xMin="-23" yMin="0" xMax="583" yMax="1858">
      <component glyphName=".ttfautohint" x="0" y="0" flags="0x0"/>
      <component glyphName="I" x="0" y="0" flags="0x0"/>
      <component glyphName="circumflex" x="-193" y="322" flags="0x4"/>
    </TTGlyph>
    <TTGlyph name="Icircumflex.smcp" xMin="-57" yMin="0" xMax="549" yMax="1566">
      <component glyphName=".ttfautohint" x="0" y="0" flags="0x0"/>
      <component glyphName="I.smcp" x="0" y="0" flags="0x0"/>
      <component glyphName="circumflex" x="-227" y="30" flags="0x4"/>
    </TTGlyph>
    <TTGlyph name="Idieresis" xMin="-44" yMin="0" xMax="607" yMax="1800">
      <component glyphName=".ttfautohint" x="0" y="0" flags="0x0"/>
      <component glyphName="I" x="0" y="0" flags="0x0"/>
      <component glyphName="dieresis" x="-144" y="322" flags="0x4"/>
    </TTGlyph>
    <TTGlyph name="Idieresis.smcp" xMin="-78" yMin="0" xMax="573" yMax="1508">
      <component glyphName=".ttfautohint" x="0" y="0" flags="0x0"/>
      <component glyphName="I.smcp" x="0" y="0" flags="0x0"/>
      <component glyphName="dieresis" x="-178" y="30" flags="0x4"/>
    </TTGlyph>
    <TTGlyph name="Igrave" xMin="-51" yMin="0" xMax="377" yMax="1858">
      <component glyphName=".ttfautohint" x="0" y="0" flags="0x0"/>
      <component glyphName="I" x="0" y="0" flags="0x0"/>
      <component glyphName="gravecomb" x="808" y="322" flags="0x4"/>
    </TTGlyph>
    <TTGlyph name="Igrave.smcp" xMin="-85" yMin="0" xMax="338" yMax="1566">
      <component glyphName=".ttfautohint" x="0" y="0" flags="0x0"/>
      <component glyphName="I.smcp" x="0" y="0" flags="0x0"/>
      <component glyphName="gravecomb" x="774" y="30" flags="0x4"/>
    </TTGlyph>
    <TTGlyph name="J" xMin="53" yMin="-20" xMax="973" yMax="1456">
      <contour>
        <pt x="973" y="1456" on="1"/>
        <pt x="973" y="426" on="1"/>
        <pt x="973" y="285" on="0"/>
        <pt x="856" y="84" on="0"/>
        <pt x="648" y="-20" on="0"/>
        <pt x="513" y="-20" on="1"/>
        <pt x="376" y="-20" on="0"/>
        <pt x="169" y="74" on="0"/>
        <pt x="53" y="263" on="0"/>
        <pt x="53" y="403" on="1"/>
        <pt x="247" y="403" on="1"/>
        <pt x="247" y="270" on="0"/>
        <pt x="391" y="136" on="0"/>
        <pt x="513" y="136" on="1"/>
        <pt x="590" y="136" on="0"/>
        <pt x="710" y="203" on="0"/>
        <pt x="779" y="334" on="0"/>
        <pt x="779" y="426" on="1"/>
        <pt x="779" y="1456" on="1"/>
      </contour>
    </TTGlyph>
    <TTGlyph name="J.smcp" xMin="43" yMin="-16" xMax="846" yMax="1165">
      <contour>
        <pt x="846" y="1165" on="1"/>
        <pt x="846" y="339" on="1"/>
        <pt x="846" y="230" on="0"/>
        <pt x="746" y="70" on="0"/>
        <pt x="569" y="-16" on="0"/>
        <pt x="457" y="-16" on="1"/>
        <pt x="336" y="-16" on="0"/>
        <pt x="149" y="61" on="0"/>
        <pt x="43" y="217" on="0"/>
        <pt x="43" y="331" on="1"/>
        <pt x="231" y="331" on="1"/>
        <pt x="231" y="230" on="0"/>
        <pt x="350" y="134" on="0"/>
        <pt x="457" y="134" on="1"/>
        <pt x="548" y="134" on="0"/>
        <pt x="658" y="244" on="0"/>
        <pt x="658" y="339" on="1"/>
        <pt x="658" y="1165" on="1"/>
      </contour>
    </TTGlyph>
    <TTGlyph name="K" xMin="169" yMin="0" xMax="1286" yMax="1456">
      <contour>
        <pt x="541" y="677" on="1"/>
        <pt x="363" y="493" on="1"/>
        <pt x="363" y="0" on="1"/>
        <pt x="169" y="0" on="1"/>
        <pt x="169" y="1456" on="1"/>
        <pt x="363" y="1456" on="1"/>
        <pt x="363" y="738" on="1"/>
        <pt x="1008" y="1456" on="1"/>
        <pt x="1242" y="1456" on="1"/>
        <pt x="670" y="813" on="1"/>
        <pt x="1286" y="0" on="1"/>
        <pt x="1054" y="0" on="1"/>
      </contour>
    </TTGlyph>
    <TTGlyph name="K.alt" xMin="178" yMin="0" xMax="1311" yMax="1456">
      <contour>
        <pt x="548" y="655" on="1"/>
        <pt x="372" y="655" on="1"/>
        <pt x="372" y="0" on="1"/>
        <pt x="178" y="0" on="1"/>
        <pt x="178" y="1456" on="1"/>
        <pt x="372" y="1456" on="1"/>
        <pt x="372" y="814" on="1"/>
        <pt x="521" y="814" on="1"/>
        <pt x="1028" y="1456" on="1"/>
        <pt x="1269" y="1456" on="1"/>
        <pt x="713" y="751" on="1"/>
        <pt x="1311" y="0" on="1"/>
        <pt x="1073" y="0" on="1"/>
      </contour>
    </TTGlyph>
    <TTGlyph name="K.alt2" xMin="178" yMin="0" xMax="1276" yMax="1456">
      <contour>
        <pt x="1037" y="0" on="1"/>
        <pt x="372" y="692" on="1"/>
        <pt x="372" y="0" on="1"/>
        <pt x="178" y="0" on="1"/>
        <pt x="178" y="1456" on="1"/>
        <pt x="372" y="1456" on="1"/>
        <pt x="372" y="809" on="1"/>
        <pt x="383" y="809" on="1"/>
        <pt x="994" y="1456" on="1"/>
        <pt x="1236" y="1456" on="1"/>
        <pt x="576" y="747" on="1"/>
        <pt x="1276" y="0" on="1"/>
      </contour>
    </TTGlyph>
    <TTGlyph name="K.smcp" xMin="138" yMin="0" xMax="1112" yMax="1165">
      <contour>
        <pt x="472" y="520" on="1"/>
        <pt x="325" y="378" on="1"/>
        <pt x="325" y="0" on="1"/>
        <pt x="138" y="0" on="1"/>
        <pt x="138" y="1165" on="1"/>
        <pt x="325" y="1165" on="1"/>
        <pt x="325" y="611" on="1"/>
        <pt x="454" y="753" on="1"/>
        <pt x="849" y="1165" on="1"/>
        <pt x="1078" y="1165" on="1"/>
        <pt x="600" y="647" on="1"/>
        <pt x="1112" y="0" on="1"/>
        <pt x="885" y="0" on="1"/>
      </contour>
    </TTGlyph>
    <TTGlyph name="L" xMin="169" yMin="0" xMax="1053" yMax="1456">
      <contour>
        <pt x="1053" y="156" on="1"/>
        <pt x="1053" y="0" on="1"/>
        <pt x="169" y="0" on="1"/>
        <pt x="169" y="1456" on="1"/>
        <pt x="363" y="1456" on="1"/>
        <pt x="363" y="156" on="1"/>
      </contour>
    </TTGlyph>
    <TTGlyph name="L.smcp" xMin="138" yMin="0" xMax="908" yMax="1165">
      <contour>
        <pt x="908" y="150" on="1"/>
        <pt x="908" y="0" on="1"/>
        <pt x="138" y="0" on="1"/>
        <pt x="138" y="1165" on="1"/>
        <pt x="325" y="1165" on="1"/>
        <pt x="325" y="150" on="1"/>
      </contour>
    </TTGlyph>
    <TTGlyph name="M" xMin="169" yMin="0" xMax="1619" yMax="1456">
      <contour>
        <pt x="1619" y="0" on="1"/>
        <pt x="1426" y="0" on="1"/>
        <pt x="1426" y="569" on="1"/>
        <pt x="1444" y="1176" on="1"/>
        <pt x="967" y="0" on="1"/>
        <pt x="820" y="0" on="1"/>
        <pt x="344" y="1176" on="1"/>
        <pt x="362" y="569" on="1"/>
        <pt x="362" y="0" on="1"/>
        <pt x="169" y="0" on="1"/>
        <pt x="169" y="1456" on="1"/>
        <pt x="419" y="1456" on="1"/>
        <pt x="894" y="266" on="1"/>
        <pt x="1369" y="1456" on="1"/>
        <pt x="1619" y="1456" on="1"/>
      </contour>
    </TTGlyph>
    <TTGlyph name="M.smcp" xMin="138" yMin="0" xMax="1400" yMax="1165">
      <contour>
        <pt x="1400" y="0" on="1"/>
        <pt x="1214" y="0" on="1"/>
        <pt x="1214" y="403" on="1"/>
        <pt x="1233" y="931" on="1"/>
        <pt x="837" y="0" on="1"/>
        <pt x="700" y="0" on="1"/>
        <pt x="305" y="927" on="1"/>
        <pt x="324" y="403" on="1"/>
        <pt x="324" y="0" on="1"/>
        <pt x="138" y="0" on="1"/>
        <pt x="138" y="1165" on="1"/>
        <pt x="380" y="1165" on="1"/>
        <pt x="769" y="252" on="1"/>
        <pt x="1158" y="1165" on="1"/>
        <pt x="1400" y="1165" on="1"/>
      </contour>
    </TTGlyph>
    <TTGlyph name="N" xMin="169" yMin="0" xMax="1289" yMax="1456">
      <contour>
        <pt x="1094" y="0" on="1"/>
        <pt x="363" y="1126" on="1"/>
        <pt x="363" y="0" on="1"/>
        <pt x="169" y="0" on="1"/>
        <pt x="169" y="1456" on="1"/>
        <pt x="363" y="1456" on="1"/>
        <pt x="1097" y="327" on="1"/>
        <pt x="1097" y="1456" on="1"/>
        <pt x="1289" y="1456" on="1"/>
        <pt x="1289" y="0" on="1"/>
      </contour>
    </TTGlyph>
    <TTGlyph name="N.smcp" xMin="138" yMin="0" xMax="1113" yMax="1165">
      <contour>
        <pt x="927" y="0" on="1"/>
        <pt x="325" y="878" on="1"/>
        <pt x="325" y="0" on="1"/>
        <pt x="138" y="0" on="1"/>
        <pt x="138" y="1165" on="1"/>
        <pt x="325" y="1165" on="1"/>
        <pt x="927" y="287" on="1"/>
        <pt x="927" y="1165" on="1"/>
        <pt x="1113" y="1165" on="1"/>
        <pt x="1113" y="0" on="1"/>
      </contour>
    </TTGlyph>
    <TTGlyph name="Ntilde" xMin="169" yMin="0" xMax="1289" yMax="1827">
      <component glyphName=".ttfautohint" x="169" y="0" flags="0x0"/>
      <component glyphName="N" x="0" y="0" flags="0x0"/>
      <component glyphName="tilde" x="250" y="315" flags="0x4"/>
    </TTGlyph>
    <TTGlyph name="Ntilde.smcp" xMin="138" yMin="0" xMax="1113" yMax="1546">
      <component glyphName=".ttfautohint" x="138" y="0" flags="0x0"/>
      <component glyphName="N.smcp" x="0" y="0" flags="0x0"/>
      <component glyphName="tilde" x="148" y="34" flags="0x4"/>
    </TTGlyph>
    <TTGlyph name="O" xMin="118" yMin="-20" xMax="1290" yMax="1476">
      <contour>
        <pt x="1290" y="465" on="0"/>
        <pt x="1147" y="149" on="0"/>
        <pt x="883" y="-20" on="0"/>
        <pt x="706" y="-20" on="1"/>
        <pt x="534" y="-20" on="0"/>
        <pt x="267" y="150" on="0"/>
        <pt x="118" y="467" on="0"/>
        <pt x="118" y="681" on="1"/>
        <pt x="118" y="774" on="1"/>
        <pt x="118" y="988" on="0"/>
        <pt x="266" y="1306" on="0"/>
        <pt x="532" y="1476" on="0"/>
        <pt x="704" y="1476" on="1"/>
        <pt x="881" y="1476" on="0"/>
        <pt x="1146" y="1306" on="0"/>
        <pt x="1290" y="989" on="0"/>
        <pt x="1290" y="774" on="1"/>
        <pt x="1290" y="681" on="1"/>
      </contour>
      <contour>
        <pt x="1098" y="948" on="0"/>
        <pt x="1005" y="1189" on="0"/>
        <pt x="828" y="1313" on="0"/>
        <pt x="704" y="1313" on="1"/>
        <pt x="585" y="1313" on="0"/>
        <pt x="407" y="1188" on="0"/>
        <pt x="311" y="947" on="0"/>
        <pt x="311" y="776" on="1"/>
        <pt x="311" y="681" on="1"/>
        <pt x="311" y="509" on="0"/>
        <pt x="408" y="267" on="0"/>
        <pt x="586" y="142" on="0"/>
        <pt x="706" y="142" on="1"/>
        <pt x="894" y="142" on="0"/>
        <pt x="1098" y="420" on="0"/>
        <pt x="1098" y="681" on="1"/>
        <pt x="1098" y="776" on="1"/>
      </contour>
    </TTGlyph>
    <TTGlyph name="O.smcp" xMin="96" yMin="-16" xMax="1116" yMax="1181">
      <contour>
        <pt x="1116" y="375" on="0"/>
        <pt x="990" y="120" on="0"/>
        <pt x="760" y="-16" on="0"/>
        <pt x="607" y="-16" on="1"/>
        <pt x="457" y="-16" on="0"/>
        <pt x="225" y="120" on="0"/>
        <pt x="96" y="375" on="0"/>
        <pt x="96" y="548" on="1"/>
        <pt x="96" y="616" on="1"/>
        <pt x="96" y="789" on="0"/>
        <pt x="224" y="1044" on="0"/>
        <pt x="455" y="1181" on="0"/>
        <pt x="605" y="1181" on="1"/>
        <pt x="758" y="1181" on="0"/>
        <pt x="989" y="1045" on="0"/>
        <pt x="1116" y="789" on="0"/>
        <pt x="1116" y="616" on="1"/>
        <pt x="1116" y="548" on="1"/>
      </contour>
      <contour>
        <pt x="931" y="814" on="0"/>
        <pt x="760" y="1027" on="0"/>
        <pt x="605" y="1027" on="1"/>
        <pt x="506" y="1027" on="0"/>
        <pt x="360" y="932" on="0"/>
        <pt x="281" y="748" on="0"/>
        <pt x="281" y="618" on="1"/>
        <pt x="281" y="548" on="1"/>
        <pt x="281" y="418" on="0"/>
        <pt x="361" y="233" on="0"/>
        <pt x="508" y="137" on="0"/>
        <pt x="607" y="137" on="1"/>
        <pt x="762" y="137" on="0"/>
        <pt x="931" y="350" on="0"/>
        <pt x="931" y="548" on="1"/>
        <pt x="931" y="618" on="1"/>
      </contour>
    </TTGlyph>
    <TTGlyph name="O.ss06" xMin="126" yMin="-21" xMax="1376" yMax="1477">
      <contour>
        <pt x="1376" y="496" on="0"/>
        <pt x="1214" y="165" on="0"/>
        <pt x="930" y="-21" on="0"/>
        <pt x="753" y="-21" on="1"/>
        <pt x="580" y="-21" on="0"/>
        <pt x="293" y="165" on="0"/>
        <pt x="126" y="497" on="0"/>
        <pt x="126" y="706" on="1"/>
        <pt x="126" y="750" on="1"/>
        <pt x="126" y="959" on="0"/>
        <pt x="293" y="1290" on="0"/>
        <pt x="579" y="1477" on="0"/>
        <pt x="751" y="1477" on="1"/>
        <pt x="928" y="1477" on="0"/>
        <pt x="1213" y="1291" on="0"/>
        <pt x="1376" y="960" on="0"/>
        <pt x="1376" y="750" on="1"/>
        <pt x="1376" y="706" on="1"/>
      </contour>
      <contour>
        <pt x="1184" y="917" on="0"/>
        <pt x="1072" y="1172" on="0"/>
        <pt x="875" y="1314" on="0"/>
        <pt x="751" y="1314" on="1"/>
        <pt x="632" y="1314" on="0"/>
        <pt x="434" y="1172" on="0"/>
        <pt x="319" y="916" on="0"/>
        <pt x="319" y="752" on="1"/>
        <pt x="319" y="706" on="1"/>
        <pt x="319" y="541" on="0"/>
        <pt x="435" y="284" on="0"/>
        <pt x="634" y="141" on="0"/>
        <pt x="753" y="141" on="1"/>
        <pt x="878" y="141" on="0"/>
        <pt x="1074" y="283" on="0"/>
        <pt x="1184" y="539" on="0"/>
        <pt x="1184" y="706" on="1"/>
        <pt x="1184" y="752" on="1"/>
      </contour>
    </TTGlyph>
    <TTGlyph name="OE" xMin="105" yMin="-21" xMax="1801" yMax="1477">
      <contour>
        <pt x="1801" y="156" on="1"/>
        <pt x="1801" y="0" on="1"/>
        <pt x="954" y="0" on="1"/>
        <pt x="862" y="-10" on="0"/>
        <pt x="730" y="-21" on="0"/>
        <pt x="662" y="-21" on="1"/>
        <pt x="498" y="-21" on="0"/>
        <pt x="245" y="130" on="0"/>
        <pt x="105" y="401" on="0"/>
        <pt x="105" y="576" on="1"/>
        <pt x="105" y="880" on="1"/>
        <pt x="105" y="1055" on="0"/>
        <pt x="244" y="1326" on="0"/>
        <pt x="497" y="1477" on="0"/>
        <pt x="660" y="1477" on="1"/>
        <pt x="782" y="1477" on="0"/>
        <pt x="954" y="1456" on="1"/>
        <pt x="1791" y="1456" on="1"/>
        <pt x="1791" y="1299" on="1"/>
        <pt x="1070" y="1299" on="1"/>
        <pt x="1070" y="830" on="1"/>
        <pt x="1699" y="830" on="1"/>
        <pt x="1699" y="674" on="1"/>
        <pt x="1070" y="674" on="1"/>
        <pt x="1070" y="156" on="1"/>
      </contour>
      <contour>
        <pt x="292" y="433" on="0"/>
        <pt x="382" y="232" on="0"/>
        <pt x="548" y="129" on="0"/>
        <pt x="662" y="129" on="1"/>
        <pt x="764" y="129" on="0"/>
        <pt x="876" y="144" on="1"/>
        <pt x="876" y="1311" on="1"/>
        <pt x="763" y="1326" on="0"/>
        <pt x="660" y="1326" on="1"/>
        <pt x="546" y="1326" on="0"/>
        <pt x="381" y="1224" on="0"/>
        <pt x="292" y="1025" on="0"/>
        <pt x="292" y="882" on="1"/>
        <pt x="292" y="576" on="1"/>
      </contour>
    </TTGlyph>
    <TTGlyph name="Oacute" xMin="118" yMin="-20" xMax="1290" yMax="1849">
      <component glyphName=".ttfautohint" x="118" y="0" flags="0x0"/>
      <component glyphName="O" x="0" y="0" flags="0x0"/>
      <component glyphName="acutecomb" x="1273" y="313" flags="0x4"/>
    </TTGlyph>
    <TTGlyph name="Oacute.smcp" xMin="96" yMin="-16" xMax="1116" yMax="1566">
      <component glyphName=".ttfautohint" x="96" y="0" flags="0x0"/>
      <component glyphName="O.smcp" x="0" y="0" flags="0x0"/>
      <component glyphName="acutecomb" x="1173" y="30" flags="0x4"/>
    </TTGlyph>
    <TTGlyph name="Ocircumflex" xMin="118" yMin="-20" xMax="1290" yMax="1849">
      <component glyphName=".ttfautohint" x="118" y="0" flags="0x0"/>
      <component glyphName="O" x="0" y="0" flags="0x0"/>
      <component glyphName="circumflex" x="235" y="313" flags="0x4"/>
    </TTGlyph>
    <TTGlyph name="Ocircumflex.smcp" xMin="96" yMin="-16" xMax="1116" yMax="1566">
      <component glyphName=".ttfautohint" x="96" y="0" flags="0x0"/>
      <component glyphName="O.smcp" x="0" y="0" flags="0x0"/>
      <component glyphName="circumflex" x="135" y="30" flags="0x4"/>
    </TTGlyph>
    <TTGlyph name="Odieresis" xMin="118" yMin="-20" xMax="1290" yMax="1791">
      <component glyphName=".ttfautohint" x="118" y="0" flags="0x0"/>
      <component glyphName="O" x="0" y="0" flags="0x0"/>
      <component glyphName="dieresis" x="284" y="313" flags="0x4"/>
    </TTGlyph>
    <TTGlyph name="Odieresis.smcp" xMin="96" yMin="-16" xMax="1116" yMax="1508">
      <component glyphName=".ttfautohint" x="96" y="0" flags="0x0"/>
      <component glyphName="O.smcp" x="0" y="0" flags="0x0"/>
      <component glyphName="dieresis" x="184" y="30" flags="0x4"/>
    </TTGlyph>
    <TTGlyph name="Ograve" xMin="118" yMin="-20" xMax="1290" yMax="1849">
      <component glyphName=".ttfautohint" x="118" y="0" flags="0x0"/>
      <component glyphName="O" x="0" y="0" flags="0x0"/>
      <component glyphName="gravecomb" x="1236" y="313" flags="0x4"/>
    </TTGlyph>
    <TTGlyph name="Ograve.smcp" xMin="96" yMin="-16" xMax="1116" yMax="1566">
      <component glyphName=".ttfautohint" x="96" y="0" flags="0x0"/>
      <component glyphName="O.smcp" x="0" y="0" flags="0x0"/>
      <component glyphName="gravecomb" x="1136" y="30" flags="0x4"/>
    </TTGlyph>
    <TTGlyph name="Oslash" xMin="118" yMin="-93" xMax="1310" yMax="1516">
      <contour>
        <pt x="1152" y="1261" on="1"/>
        <pt x="1219" y="1171" on="0"/>
        <pt x="1290" y="924" on="0"/>
        <pt x="1290" y="774" on="1"/>
        <pt x="1290" y="681" on="1"/>
        <pt x="1290" y="465" on="0"/>
        <pt x="1147" y="149" on="0"/>
        <pt x="883" y="-20" on="0"/>
        <pt x="706" y="-20" on="1"/>
        <pt x="536" y="-20" on="0"/>
        <pt x="405" y="62" on="1"/>
        <pt x="308" y="-93" on="1"/>
        <pt x="164" y="-93" on="1"/>
        <pt x="309" y="139" on="1"/>
        <pt x="217" y="231" on="0"/>
        <pt x="118" y="507" on="0"/>
        <pt x="118" y="681" on="1"/>
        <pt x="118" y="774" on="1"/>
        <pt x="118" y="988" on="0"/>
        <pt x="266" y="1306" on="0"/>
        <pt x="532" y="1476" on="0"/>
        <pt x="704" y="1476" on="1"/>
        <pt x="811" y="1476" on="0"/>
        <pt x="995" y="1413" on="0"/>
        <pt x="1067" y="1352" on="1"/>
        <pt x="1169" y="1516" on="1"/>
        <pt x="1310" y="1516" on="1"/>
      </contour>
      <contour>
        <pt x="311" y="439" on="0"/>
        <pt x="408" y="297" on="1"/>
        <pt x="972" y="1201" on="1"/>
        <pt x="872" y="1313" on="0"/>
        <pt x="704" y="1313" on="1"/>
        <pt x="585" y="1313" on="0"/>
        <pt x="407" y="1188" on="0"/>
        <pt x="311" y="947" on="0"/>
        <pt x="311" y="776" on="1"/>
        <pt x="311" y="681" on="1"/>
      </contour>
      <contour>
        <pt x="1098" y="961" on="0"/>
        <pt x="1043" y="1088" on="1"/>
        <pt x="495" y="207" on="1"/>
        <pt x="584" y="142" on="0"/>
        <pt x="706" y="142" on="1"/>
        <pt x="894" y="142" on="0"/>
        <pt x="1098" y="420" on="0"/>
        <pt x="1098" y="681" on="1"/>
        <pt x="1098" y="776" on="1"/>
      </contour>
    </TTGlyph>
    <TTGlyph name="Oslash.smcp" xMin="96" yMin="-58" xMax="1116" yMax="1207">
      <contour>
        <pt x="1048" y="948" on="0"/>
        <pt x="1116" y="743" on="0"/>
        <pt x="1116" y="616" on="1"/>
        <pt x="1116" y="548" on="1"/>
        <pt x="1116" y="375" on="0"/>
        <pt x="990" y="120" on="0"/>
        <pt x="760" y="-16" on="0"/>
        <pt x="607" y="-16" on="1"/>
        <pt x="454" y="-16" on="0"/>
        <pt x="338" y="54" on="1"/>
        <pt x="263" y="-58" on="1"/>
        <pt x="112" y="-58" on="1"/>
        <pt x="240" y="133" on="1"/>
        <pt x="171" y="207" on="0"/>
        <pt x="96" y="418" on="0"/>
        <pt x="96" y="548" on="1"/>
        <pt x="96" y="616" on="1"/>
        <pt x="96" y="789" on="0"/>
        <pt x="224" y="1044" on="0"/>
        <pt x="455" y="1181" on="0"/>
        <pt x="605" y="1181" on="1"/>
        <pt x="768" y="1181" on="0"/>
        <pt x="888" y="1104" on="1"/>
        <pt x="957" y="1207" on="1"/>
        <pt x="1107" y="1207" on="1"/>
        <pt x="983" y="1022" on="1"/>
      </contour>
      <contour>
        <pt x="281" y="388" on="0"/>
        <pt x="341" y="285" on="1"/>
        <pt x="797" y="968" on="1"/>
        <pt x="720" y="1027" on="0"/>
        <pt x="605" y="1027" on="1"/>
        <pt x="506" y="1027" on="0"/>
        <pt x="360" y="932" on="0"/>
        <pt x="281" y="748" on="0"/>
        <pt x="281" y="618" on="1"/>
        <pt x="281" y="548" on="1"/>
      </contour>
      <contour>
        <pt x="931" y="618" on="1"/>
        <pt x="931" y="767" on="0"/>
        <pt x="880" y="867" on="1"/>
        <pt x="428" y="189" on="1"/>
        <pt x="504" y="137" on="0"/>
        <pt x="607" y="137" on="1"/>
        <pt x="762" y="137" on="0"/>
        <pt x="931" y="350" on="0"/>
        <pt x="931" y="548" on="1"/>
      </contour>
    </TTGlyph>
    <TTGlyph name="Otilde" xMin="118" yMin="-20" xMax="1290" yMax="1829">
      <component glyphName=".ttfautohint" x="118" y="0" flags="0x0"/>
      <component glyphName="O" x="0" y="0" flags="0x0"/>
      <component glyphName="tilde" x="231" y="317" flags="0x4"/>
    </TTGlyph>
    <TTGlyph name="Otilde.smcp" xMin="96" yMin="-16" xMax="1116" yMax="1546">
      <component glyphName=".ttfautohint" x="96" y="0" flags="0x0"/>
      <component glyphName="O.smcp" x="0" y="0" flags="0x0"/>
      <component glyphName="tilde" x="131" y="34" flags="0x4"/>
    </TTGlyph>
    <TTGlyph name="P" xMin="169" yMin="0" xMax="1218" yMax="1456">
      <contour>
        <pt x="868" y="1456" on="0"/>
        <pt x="1099" y="1343" on="0"/>
        <pt x="1218" y="1143" on="0"/>
        <pt x="1218" y="1012" on="1"/>
        <pt x="1218" y="872" on="0"/>
        <pt x="1100" y="674" on="0"/>
        <pt x="871" y="571" on="0"/>
        <pt x="707" y="571" on="1"/>
        <pt x="363" y="571" on="1"/>
        <pt x="363" y="0" on="1"/>
        <pt x="169" y="0" on="1"/>
        <pt x="169" y="1456" on="1"/>
        <pt x="707" y="1456" on="1"/>
      </contour>
      <contour>
        <pt x="869" y="727" on="0"/>
        <pt x="1024" y="879" on="0"/>
        <pt x="1024" y="1010" on="1"/>
        <pt x="1024" y="1089" on="0"/>
        <pt x="957" y="1220" on="0"/>
        <pt x="814" y="1299" on="0"/>
        <pt x="707" y="1299" on="1"/>
        <pt x="363" y="1299" on="1"/>
        <pt x="363" y="727" on="1"/>
        <pt x="707" y="727" on="1"/>
      </contour>
    </TTGlyph>
    <TTGlyph name="P.smcp" xMin="138" yMin="0" xMax="1052" yMax="1165">
      <contour>
        <pt x="746" y="1165" on="0"/>
        <pt x="947" y="1072" on="0"/>
        <pt x="1052" y="906" on="0"/>
        <pt x="1052" y="798" on="1"/>
        <pt x="1052" y="686" on="0"/>
        <pt x="948" y="525" on="0"/>
        <pt x="748" y="439" on="0"/>
        <pt x="606" y="439" on="1"/>
        <pt x="325" y="439" on="1"/>
        <pt x="325" y="0" on="1"/>
        <pt x="138" y="0" on="1"/>
        <pt x="138" y="1165" on="1"/>
        <pt x="606" y="1165" on="1"/>
      </contour>
      <contour>
        <pt x="738" y="590" on="0"/>
        <pt x="865" y="701" on="0"/>
        <pt x="865" y="796" on="1"/>
        <pt x="865" y="856" on="0"/>
        <pt x="810" y="954" on="0"/>
        <pt x="694" y="1014" on="0"/>
        <pt x="606" y="1014" on="1"/>
        <pt x="325" y="1014" on="1"/>
        <pt x="325" y="590" on="1"/>
        <pt x="606" y="590" on="1"/>
      </contour>
    </TTGlyph>
    <TTGlyph name="Q" xMin="109" yMin="-247" xMax="1287" yMax="1476">
      <contour>
        <pt x="1156" y="-247" on="1"/>
        <pt x="848" y="-2" on="1"/>
        <pt x="778" y="-20" on="0"/>
        <pt x="697" y="-20" on="1"/>
        <pt x="525" y="-20" on="0"/>
        <pt x="258" y="150" on="0"/>
        <pt x="109" y="467" on="0"/>
        <pt x="109" y="681" on="1"/>
        <pt x="109" y="774" on="1"/>
        <pt x="109" y="988" on="0"/>
        <pt x="257" y="1306" on="0"/>
        <pt x="523" y="1476" on="0"/>
        <pt x="695" y="1476" on="1"/>
        <pt x="872" y="1476" on="0"/>
        <pt x="1137" y="1307" on="0"/>
        <pt x="1282" y="989" on="0"/>
        <pt x="1282" y="774" on="1"/>
        <pt x="1282" y="681" on="1"/>
        <pt x="1282" y="474" on="0"/>
        <pt x="1149" y="165" on="0"/>
        <pt x="1027" y="78" on="1"/>
        <pt x="1287" y="-127" on="1"/>
      </contour>
      <contour>
        <pt x="303" y="509" on="0"/>
        <pt x="400" y="267" on="0"/>
        <pt x="578" y="142" on="0"/>
        <pt x="697" y="142" on="1"/>
        <pt x="885" y="142" on="0"/>
        <pt x="1089" y="420" on="0"/>
        <pt x="1089" y="681" on="1"/>
        <pt x="1089" y="776" on="1"/>
        <pt x="1089" y="948" on="0"/>
        <pt x="996" y="1189" on="0"/>
        <pt x="819" y="1313" on="0"/>
        <pt x="695" y="1313" on="1"/>
        <pt x="576" y="1313" on="0"/>
        <pt x="399" y="1188" on="0"/>
        <pt x="303" y="947" on="0"/>
        <pt x="303" y="776" on="1"/>
        <pt x="303" y="681" on="1"/>
      </contour>
    </TTGlyph>
    <TTGlyph name="Q.smcp" xMin="89" yMin="-203" xMax="1113" yMax="1181">
      <contour>
        <pt x="987" y="-203" on="1"/>
        <pt x="724" y="-4" on="1"/>
        <pt x="667" y="-16" on="0"/>
        <pt x="601" y="-16" on="1"/>
        <pt x="451" y="-16" on="0"/>
        <pt x="219" y="120" on="0"/>
        <pt x="89" y="376" on="0"/>
        <pt x="89" y="548" on="1"/>
        <pt x="89" y="616" on="1"/>
        <pt x="89" y="789" on="0"/>
        <pt x="218" y="1044" on="0"/>
        <pt x="449" y="1181" on="0"/>
        <pt x="599" y="1181" on="1"/>
        <pt x="752" y="1181" on="0"/>
        <pt x="983" y="1045" on="0"/>
        <pt x="1110" y="789" on="0"/>
        <pt x="1110" y="616" on="1"/>
        <pt x="1110" y="548" on="1"/>
        <pt x="1110" y="384" on="0"/>
        <pt x="998" y="139" on="0"/>
        <pt x="895" y="68" on="1"/>
        <pt x="1113" y="-93" on="1"/>
      </contour>
      <contour>
        <pt x="275" y="418" on="0"/>
        <pt x="355" y="233" on="0"/>
        <pt x="502" y="137" on="0"/>
        <pt x="601" y="137" on="1"/>
        <pt x="756" y="137" on="0"/>
        <pt x="925" y="350" on="0"/>
        <pt x="925" y="548" on="1"/>
        <pt x="925" y="618" on="1"/>
        <pt x="925" y="814" on="0"/>
        <pt x="754" y="1027" on="0"/>
        <pt x="599" y="1027" on="1"/>
        <pt x="500" y="1027" on="0"/>
        <pt x="354" y="932" on="0"/>
        <pt x="275" y="748" on="0"/>
        <pt x="275" y="618" on="1"/>
        <pt x="275" y="548" on="1"/>
      </contour>
    </TTGlyph>
    <TTGlyph name="Q.ss06" xMin="126" yMin="-252" xMax="1376" yMax="1477">
      <contour>
        <pt x="1376" y="490" on="0"/>
        <pt x="1206" y="153" on="0"/>
        <pt x="1059" y="63" on="1"/>
        <pt x="1309" y="-132" on="1"/>
        <pt x="1177" y="-252" on="1"/>
        <pt x="871" y="-10" on="1"/>
        <pt x="811" y="-21" on="0"/>
        <pt x="753" y="-21" on="1"/>
        <pt x="580" y="-21" on="0"/>
        <pt x="293" y="165" on="0"/>
        <pt x="126" y="497" on="0"/>
        <pt x="126" y="706" on="1"/>
        <pt x="126" y="748" on="1"/>
        <pt x="126" y="957" on="0"/>
        <pt x="292" y="1290" on="0"/>
        <pt x="579" y="1477" on="0"/>
        <pt x="751" y="1477" on="1"/>
        <pt x="928" y="1477" on="0"/>
        <pt x="1213" y="1291" on="0"/>
        <pt x="1376" y="958" on="0"/>
        <pt x="1376" y="748" on="1"/>
        <pt x="1376" y="706" on="1"/>
      </contour>
      <contour>
        <pt x="319" y="541" on="0"/>
        <pt x="435" y="283" on="0"/>
        <pt x="634" y="141" on="0"/>
        <pt x="753" y="141" on="1"/>
        <pt x="878" y="141" on="0"/>
        <pt x="1074" y="282" on="0"/>
        <pt x="1184" y="539" on="0"/>
        <pt x="1184" y="706" on="1"/>
        <pt x="1184" y="750" on="1"/>
        <pt x="1184" y="916" on="0"/>
        <pt x="1072" y="1172" on="0"/>
        <pt x="875" y="1314" on="0"/>
        <pt x="751" y="1314" on="1"/>
        <pt x="632" y="1314" on="0"/>
        <pt x="434" y="1172" on="0"/>
        <pt x="319" y="915" on="0"/>
        <pt x="319" y="750" on="1"/>
        <pt x="319" y="706" on="1"/>
      </contour>
    </TTGlyph>
    <TTGlyph name="R" xMin="169" yMin="0" xMax="1226" yMax="1456">
      <contour>
        <pt x="1226" y="12" on="1"/>
        <pt x="1226" y="0" on="1"/>
        <pt x="1018" y="0" on="1"/>
        <pt x="702" y="590" on="1"/>
        <pt x="363" y="590" on="1"/>
        <pt x="363" y="0" on="1"/>
        <pt x="169" y="0" on="1"/>
        <pt x="169" y="1456" on="1"/>
        <pt x="651" y="1456" on="1"/>
        <pt x="898" y="1456" on="0"/>
        <pt x="1162" y="1231" on="0"/>
        <pt x="1162" y="1019" on="1"/>
        <pt x="1162" y="885" on="0"/>
        <pt x="1015" y="680" on="0"/>
        <pt x="884" y="630" on="1"/>
      </contour>
      <contour>
        <pt x="656" y="746" on="1"/>
        <pt x="756" y="746" on="0"/>
        <pt x="896" y="818" on="0"/>
        <pt x="967" y="942" on="0"/>
        <pt x="967" y="1019" on="1"/>
        <pt x="967" y="1151" on="0"/>
        <pt x="811" y="1299" on="0"/>
        <pt x="651" y="1299" on="1"/>
        <pt x="363" y="1299" on="1"/>
        <pt x="363" y="746" on="1"/>
      </contour>
    </TTGlyph>
    <TTGlyph name="R.alt" xMin="178" yMin="0" xMax="1252" yMax="1456">
      <contour>
        <pt x="1185" y="88" on="0"/>
        <pt x="1252" y="25" on="1"/>
        <pt x="1252" y="0" on="1"/>
        <pt x="1053" y="0" on="1"/>
        <pt x="991" y="56" on="0"/>
        <pt x="991" y="238" on="1"/>
        <pt x="991" y="367" on="1"/>
        <pt x="991" y="446" on="0"/>
        <pt x="928" y="564" on="0"/>
        <pt x="809" y="629" on="0"/>
        <pt x="729" y="629" on="1"/>
        <pt x="372" y="629" on="1"/>
        <pt x="372" y="0" on="1"/>
        <pt x="178" y="0" on="1"/>
        <pt x="178" y="1456" on="1"/>
        <pt x="704" y="1456" on="1"/>
        <pt x="943" y="1456" on="0"/>
        <pt x="1195" y="1244" on="0"/>
        <pt x="1195" y="1041" on="1"/>
        <pt x="1195" y="929" on="0"/>
        <pt x="1072" y="762" on="0"/>
        <pt x="956" y="713" on="1"/>
        <pt x="1078" y="675" on="0"/>
        <pt x="1185" y="499" on="0"/>
        <pt x="1185" y="369" on="1"/>
        <pt x="1185" y="236" on="1"/>
      </contour>
      <contour>
        <pt x="852" y="785" on="0"/>
        <pt x="1001" y="914" on="0"/>
        <pt x="1001" y="1041" on="1"/>
        <pt x="1001" y="1164" on="0"/>
        <pt x="856" y="1299" on="0"/>
        <pt x="702" y="1299" on="1"/>
        <pt x="372" y="1299" on="1"/>
        <pt x="372" y="785" on="1"/>
        <pt x="684" y="785" on="1"/>
      </contour>
    </TTGlyph>
    <TTGlyph name="R.smcp" xMin="138" yMin="0" xMax="1062" yMax="1165">
      <contour>
        <pt x="1062" y="10" on="1"/>
        <pt x="1062" y="0" on="1"/>
        <pt x="862" y="0" on="1"/>
        <pt x="602" y="450" on="1"/>
        <pt x="325" y="450" on="1"/>
        <pt x="325" y="0" on="1"/>
        <pt x="138" y="0" on="1"/>
        <pt x="138" y="1165" on="1"/>
        <pt x="564" y="1165" on="1"/>
        <pt x="777" y="1165" on="0"/>
        <pt x="1009" y="981" on="0"/>
        <pt x="1009" y="810" on="1"/>
        <pt x="1009" y="696" on="0"/>
        <pt x="887" y="535" on="0"/>
        <pt x="775" y="493" on="1"/>
      </contour>
      <contour>
        <pt x="325" y="600" on="1"/>
        <pt x="569" y="600" on="1"/>
        <pt x="651" y="600" on="0"/>
        <pt x="765" y="652" on="0"/>
        <pt x="822" y="744" on="0"/>
        <pt x="822" y="803" on="1"/>
        <pt x="822" y="901" on="0"/>
        <pt x="694" y="1014" on="0"/>
        <pt x="564" y="1014" on="1"/>
        <pt x="325" y="1014" on="1"/>
      </contour>
    </TTGlyph>
    <TTGlyph name="S" xMin="81" yMin="-20" xMax="1139" yMax="1476">
      <contour>
        <pt x="367" y="718" on="0"/>
        <pt x="127" y="919" on="0"/>
        <pt x="127" y="1080" on="1"/>
        <pt x="127" y="1193" on="0"/>
        <pt x="250" y="1373" on="0"/>
        <pt x="475" y="1476" on="0"/>
        <pt x="621" y="1476" on="1"/>
        <pt x="780" y="1476" on="0"/>
        <pt x="1013" y="1354" on="0"/>
        <pt x="1136" y="1152" on="0"/>
        <pt x="1136" y="1036" on="1"/>
        <pt x="941" y="1036" on="1"/>
        <pt x="941" y="1164" on="0"/>
        <pt x="779" y="1319" on="0"/>
        <pt x="621" y="1319" on="1"/>
        <pt x="474" y="1319" on="0"/>
        <pt x="322" y="1189" on="0"/>
        <pt x="322" y="1083" on="1"/>
        <pt x="322" y="1021" on="0"/>
        <pt x="392" y="927" on="0"/>
        <pt x="540" y="851" on="0"/>
        <pt x="661" y="817" on="1"/>
        <pt x="829" y="770" on="0"/>
        <pt x="1038" y="648" on="0"/>
        <pt x="1139" y="483" on="0"/>
        <pt x="1139" y="370" on="1"/>
        <pt x="1139" y="253" on="0"/>
        <pt x="1014" y="76" on="0"/>
        <pt x="784" y="-20" on="0"/>
        <pt x="631" y="-20" on="1"/>
        <pt x="492" y="-20" on="0"/>
        <pt x="239" y="83" on="0"/>
        <pt x="81" y="283" on="0"/>
        <pt x="81" y="422" on="1"/>
        <pt x="275" y="422" on="1"/>
        <pt x="275" y="326" on="0"/>
        <pt x="372" y="198" on="0"/>
        <pt x="533" y="136" on="0"/>
        <pt x="631" y="136" on="1"/>
        <pt x="780" y="136" on="0"/>
        <pt x="944" y="260" on="0"/>
        <pt x="944" y="368" on="1"/>
        <pt x="944" y="439" on="0"/>
        <pt x="885" y="534" on="0"/>
        <pt x="737" y="611" on="0"/>
        <pt x="598" y="651" on="1"/>
      </contour>
    </TTGlyph>
    <TTGlyph name="S.smcp" xMin="67" yMin="-16" xMax="990" yMax="1181">
      <contour>
        <pt x="324" y="556" on="0"/>
        <pt x="107" y="723" on="0"/>
        <pt x="107" y="861" on="1"/>
        <pt x="107" y="954" on="0"/>
        <pt x="216" y="1099" on="0"/>
        <pt x="413" y="1181" on="0"/>
        <pt x="542" y="1181" on="1"/>
        <pt x="678" y="1181" on="0"/>
        <pt x="880" y="1086" on="0"/>
        <pt x="987" y="924" on="0"/>
        <pt x="987" y="826" on="1"/>
        <pt x="800" y="826" on="1"/>
        <pt x="800" y="919" on="0"/>
        <pt x="668" y="1031" on="0"/>
        <pt x="540" y="1031" on="1"/>
        <pt x="420" y="1031" on="0"/>
        <pt x="294" y="938" on="0"/>
        <pt x="294" y="862" on="1"/>
        <pt x="294" y="816" on="0"/>
        <pt x="352" y="747" on="0"/>
        <pt x="479" y="691" on="0"/>
        <pt x="587" y="664" on="1"/>
        <pt x="788" y="613" on="0"/>
        <pt x="990" y="439" on="0"/>
        <pt x="990" y="300" on="1"/>
        <pt x="990" y="204" on="0"/>
        <pt x="880" y="61" on="0"/>
        <pt x="680" y="-16" on="0"/>
        <pt x="548" y="-16" on="1"/>
        <pt x="425" y="-16" on="0"/>
        <pt x="204" y="67" on="0"/>
        <pt x="67" y="232" on="0"/>
        <pt x="67" y="349" on="1"/>
        <pt x="255" y="349" on="1"/>
        <pt x="255" y="239" on="0"/>
        <pt x="418" y="133" on="0"/>
        <pt x="548" y="133" on="1"/>
        <pt x="670" y="133" on="0"/>
        <pt x="802" y="223" on="0"/>
        <pt x="802" y="298" on="1"/>
        <pt x="802" y="350" on="0"/>
        <pt x="755" y="422" on="0"/>
        <pt x="638" y="479" on="0"/>
        <pt x="531" y="505" on="1"/>
      </contour>
    </TTGlyph>
    <TTGlyph name="T" xMin="50" yMin="0" xMax="1175" yMax="1456">
      <contour>
        <pt x="1175" y="1299" on="1"/>
        <pt x="708" y="1299" on="1"/>
        <pt x="708" y="0" on="1"/>
        <pt x="516" y="0" on="1"/>
        <pt x="516" y="1299" on="1"/>
        <pt x="50" y="1299" on="1"/>
        <pt x="50" y="1456" on="1"/>
        <pt x="1175" y="1456" on="1"/>
      </contour>
    </TTGlyph>
    <TTGlyph name="T.smcp" xMin="41" yMin="0" xMax="1021" yMax="1165">
      <contour>
        <pt x="1021" y="1014" on="1"/>
        <pt x="623" y="1014" on="1"/>
        <pt x="623" y="0" on="1"/>
        <pt x="437" y="0" on="1"/>
        <pt x="437" y="1014" on="1"/>
        <pt x="41" y="1014" on="1"/>
        <pt x="41" y="1165" on="1"/>
        <pt x="1021" y="1165" on="1"/>
      </contour>
    </TTGlyph>
    <TTGlyph name="Thorn" xMin="166" yMin="0" xMax="1118" yMax="1456">
      <contour>
        <pt x="784" y="1163" on="0"/>
        <pt x="1004" y="1054" on="0"/>
        <pt x="1118" y="862" on="0"/>
        <pt x="1118" y="738" on="1"/>
        <pt x="1118" y="615" on="0"/>
        <pt x="1004" y="423" on="0"/>
        <pt x="784" y="314" on="0"/>
        <pt x="630" y="314" on="1"/>
        <pt x="353" y="314" on="1"/>
        <pt x="353" y="0" on="1"/>
        <pt x="166" y="0" on="1"/>
        <pt x="166" y="1456" on="1"/>
        <pt x="353" y="1456" on="1"/>
        <pt x="353" y="1163" on="1"/>
        <pt x="630" y="1163" on="1"/>
      </contour>
      <contour>
        <pt x="732" y="464" on="0"/>
        <pt x="867" y="540" on="0"/>
        <pt x="931" y="664" on="0"/>
        <pt x="931" y="736" on="1"/>
        <pt x="931" y="810" on="0"/>
        <pt x="867" y="936" on="0"/>
        <pt x="732" y="1013" on="0"/>
        <pt x="630" y="1013" on="1"/>
        <pt x="353" y="1013" on="1"/>
        <pt x="353" y="464" on="1"/>
        <pt x="630" y="464" on="1"/>
      </contour>
    </TTGlyph>
    <TTGlyph name="Thorn.smcp" xMin="138" yMin="0" xMax="952" yMax="1165">
      <contour>
        <pt x="646" y="963" on="0"/>
        <pt x="847" y="869" on="0"/>
        <pt x="952" y="703" on="0"/>
        <pt x="952" y="596" on="1"/>
        <pt x="952" y="484" on="0"/>
        <pt x="848" y="322" on="0"/>
        <pt x="648" y="236" on="0"/>
        <pt x="506" y="236" on="1"/>
        <pt x="325" y="236" on="1"/>
        <pt x="325" y="0" on="1"/>
        <pt x="138" y="0" on="1"/>
        <pt x="138" y="1165" on="1"/>
        <pt x="325" y="1165" on="1"/>
        <pt x="325" y="963" on="1"/>
        <pt x="506" y="963" on="1"/>
      </contour>
      <contour>
        <pt x="638" y="388" on="0"/>
        <pt x="765" y="499" on="0"/>
        <pt x="765" y="594" on="1"/>
        <pt x="765" y="654" on="0"/>
        <pt x="710" y="752" on="0"/>
        <pt x="594" y="811" on="0"/>
        <pt x="506" y="811" on="1"/>
        <pt x="325" y="811" on="1"/>
        <pt x="325" y="388" on="1"/>
        <pt x="506" y="388" on="1"/>
      </contour>
    </TTGlyph>
    <TTGlyph name="U" xMin="140" yMin="-20" xMax="1195" yMax="1456">
      <contour>
        <pt x="1195" y="471" on="1"/>
        <pt x="1195" y="313" on="0"/>
        <pt x="1052" y="91" on="0"/>
        <pt x="811" y="-20" on="0"/>
        <pt x="666" y="-20" on="1"/>
        <pt x="514" y="-20" on="0"/>
        <pt x="277" y="91" on="0"/>
        <pt x="140" y="312" on="0"/>
        <pt x="140" y="471" on="1"/>
        <pt x="140" y="1456" on="1"/>
        <pt x="332" y="1456" on="1"/>
        <pt x="332" y="471" on="1"/>
        <pt x="332" y="305" on="0"/>
        <pt x="511" y="136" on="0"/>
        <pt x="666" y="136" on="1"/>
        <pt x="822" y="136" on="0"/>
        <pt x="1000" y="305" on="0"/>
        <pt x="1000" y="471" on="1"/>
        <pt x="1000" y="1456" on="1"/>
        <pt x="1195" y="1456" on="1"/>
      </contour>
    </TTGlyph>
    <TTGlyph name="U.smcp" xMin="116" yMin="-16" xMax="1035" yMax="1165">
      <contour>
        <pt x="1035" y="385" on="1"/>
        <pt x="1035" y="256" on="0"/>
        <pt x="912" y="76" on="0"/>
        <pt x="703" y="-16" on="0"/>
        <pt x="575" y="-16" on="1"/>
        <pt x="442" y="-16" on="0"/>
        <pt x="234" y="75" on="0"/>
        <pt x="116" y="256" on="0"/>
        <pt x="116" y="385" on="1"/>
        <pt x="116" y="1165" on="1"/>
        <pt x="301" y="1165" on="1"/>
        <pt x="301" y="385" on="1"/>
        <pt x="301" y="259" on="0"/>
        <pt x="447" y="134" on="0"/>
        <pt x="575" y="134" on="1"/>
        <pt x="703" y="134" on="0"/>
        <pt x="848" y="259" on="0"/>
        <pt x="848" y="385" on="1"/>
        <pt x="848" y="1165" on="1"/>
        <pt x="1035" y="1165" on="1"/>
      </contour>
    </TTGlyph>
    <TTGlyph name="Uacute" xMin="140" yMin="-20" xMax="1195" yMax="1847">
      <component glyphName=".ttfautohint" x="140" y="0" flags="0x0"/>
      <component glyphName="U" x="0" y="0" flags="0x0"/>
      <component glyphName="acutecomb" x="1233" y="311" flags="0x4"/>
    </TTGlyph>
    <TTGlyph name="Uacute.smcp" xMin="116" yMin="-16" xMax="1035" yMax="1566">
      <component glyphName=".ttfautohint" x="116" y="0" flags="0x0"/>
      <component glyphName="U.smcp" x="0" y="0" flags="0x0"/>
      <component glyphName="acutecomb" x="1141" y="30" flags="0x4"/>
    </TTGlyph>
    <TTGlyph name="Ucircumflex" xMin="140" yMin="-20" xMax="1195" yMax="1847">
      <component glyphName=".ttfautohint" x="140" y="0" flags="0x0"/>
      <component glyphName="U" x="0" y="0" flags="0x0"/>
      <component glyphName="circumflex" x="195" y="311" flags="0x4"/>
    </TTGlyph>
    <TTGlyph name="Ucircumflex.smcp" xMin="116" yMin="-16" xMax="1035" yMax="1566">
      <component glyphName=".ttfautohint" x="116" y="0" flags="0x0"/>
      <component glyphName="U.smcp" x="0" y="0" flags="0x0"/>
      <component glyphName="circumflex" x="103" y="30" flags="0x4"/>
    </TTGlyph>
    <TTGlyph name="Udieresis" xMin="140" yMin="-20" xMax="1195" yMax="1789">
      <component glyphName=".ttfautohint" x="140" y="0" flags="0x0"/>
      <component glyphName="U" x="0" y="0" flags="0x0"/>
      <component glyphName="dieresis" x="244" y="311" flags="0x4"/>
    </TTGlyph>
    <TTGlyph name="Udieresis.smcp" xMin="116" yMin="-16" xMax="1035" yMax="1508">
      <component glyphName=".ttfautohint" x="116" y="0" flags="0x0"/>
      <component glyphName="U.smcp" x="0" y="0" flags="0x0"/>
      <component glyphName="dieresis" x="152" y="30" flags="0x4"/>
    </TTGlyph>
    <TTGlyph name="Ugrave" xMin="140" yMin="-20" xMax="1195" yMax="1847">
      <component glyphName=".ttfautohint" x="140" y="0" flags="0x0"/>
      <component glyphName="U" x="0" y="0" flags="0x0"/>
      <component glyphName="gravecomb" x="1196" y="311" flags="0x4"/>
    </TTGlyph>
    <TTGlyph name="Ugrave.smcp" xMin="116" yMin="-16" xMax="1035" yMax="1566">
      <component glyphName=".ttfautohint" x="116" y="0" flags="0x0"/>
      <component glyphName="U.smcp" x="0" y="0" flags="0x0"/>
      <component glyphName="gravecomb" x="1104" y="30" flags="0x4"/>
    </TTGlyph>
    <TTGlyph name="V" xMin="29" yMin="0" xMax="1278" yMax="1456">
      <contour>
        <pt x="1278" y="1456" on="1"/>
        <pt x="739" y="0" on="1"/>
        <pt x="567" y="0" on="1"/>
        <pt x="29" y="1456" on="1"/>
        <pt x="240" y="1456" on="1"/>
        <pt x="652" y="256" on="1"/>
        <pt x="1067" y="1456" on="1"/>
      </contour>
    </TTGlyph>
    <TTGlyph name="V.smcp" xMin="20" yMin="0" xMax="1109" yMax="1165">
      <contour>
        <pt x="1109" y="1165" on="1"/>
        <pt x="652" y="0" on="1"/>
        <pt x="477" y="0" on="1"/>
        <pt x="20" y="1165" on="1"/>
        <pt x="221" y="1165" on="1"/>
        <pt x="538" y="291" on="1"/>
        <pt x="564" y="197" on="1"/>
        <pt x="590" y="289" on="1"/>
        <pt x="909" y="1165" on="1"/>
      </contour>
    </TTGlyph>
    <TTGlyph name="W" xMin="61" yMin="0" xMax="1773" yMax="1456">
      <contour>
        <pt x="1773" y="1456" on="1"/>
        <pt x="1421" y="0" on="1"/>
        <pt x="1244" y="0" on="1"/>
        <pt x="945" y="1063" on="1"/>
        <pt x="923" y="1171" on="1"/>
        <pt x="900" y="1063" on="1"/>
        <pt x="590" y="0" on="1"/>
        <pt x="413" y="0" on="1"/>
        <pt x="61" y="1456" on="1"/>
        <pt x="255" y="1456" on="1"/>
        <pt x="484" y="458" on="1"/>
        <pt x="512" y="269" on="1"/>
        <pt x="552" y="439" on="1"/>
        <pt x="840" y="1456" on="1"/>
        <pt x="1003" y="1456" on="1"/>
        <pt x="1283" y="439" on="1"/>
        <pt x="1324" y="265" on="1"/>
        <pt x="1354" y="459" on="1"/>
        <pt x="1578" y="1456" on="1"/>
      </contour>
    </TTGlyph>
    <TTGlyph name="W.smcp" xMin="49" yMin="0" xMax="1521" yMax="1165">
      <contour>
        <pt x="1521" y="1165" on="1"/>
        <pt x="1223" y="0" on="1"/>
        <pt x="1049" y="0" on="1"/>
        <pt x="789" y="918" on="1"/>
        <pt x="789" y="921" on="1"/>
        <pt x="788" y="918" on="1"/>
        <pt x="521" y="0" on="1"/>
        <pt x="346" y="0" on="1"/>
        <pt x="49" y="1165" on="1"/>
        <pt x="234" y="1165" on="1"/>
        <pt x="432" y="295" on="1"/>
        <pt x="443" y="217" on="1"/>
        <pt x="457" y="278" on="1"/>
        <pt x="704" y="1165" on="1"/>
        <pt x="871" y="1165" on="1"/>
        <pt x="1114" y="275" on="1"/>
        <pt x="1127" y="217" on="1"/>
        <pt x="1139" y="297" on="1"/>
        <pt x="1336" y="1165" on="1"/>
      </contour>
    </TTGlyph>
    <TTGlyph name="X" xMin="58" yMin="0" xMax="1231" yMax="1456">
      <contour>
        <pt x="993" y="1456" on="1"/>
        <pt x="1220" y="1456" on="1"/>
        <pt x="761" y="735" on="1"/>
        <pt x="1231" y="0" on="1"/>
        <pt x="1002" y="0" on="1"/>
        <pt x="645" y="570" on="1"/>
        <pt x="286" y="0" on="1"/>
        <pt x="58" y="0" on="1"/>
        <pt x="529" y="735" on="1"/>
        <pt x="68" y="1456" on="1"/>
        <pt x="296" y="1456" on="1"/>
        <pt x="645" y="897" on="1"/>
      </contour>
    </TTGlyph>
    <TTGlyph name="X.smcp" xMin="39" yMin="0" xMax="1075" yMax="1165">
      <contour>
        <pt x="838" y="1165" on="1"/>
        <pt x="1060" y="1165" on="1"/>
        <pt x="666" y="588" on="1"/>
        <pt x="1075" y="0" on="1"/>
        <pt x="852" y="0" on="1"/>
        <pt x="555" y="444" on="1"/>
        <pt x="260" y="0" on="1"/>
        <pt x="39" y="0" on="1"/>
        <pt x="444" y="588" on="1"/>
        <pt x="47" y="1165" on="1"/>
        <pt x="268" y="1165" on="1"/>
        <pt x="552" y="729" on="1"/>
      </contour>
    </TTGlyph>
    <TTGlyph name="Y" xMin="15" yMin="0" xMax="1212" yMax="1456">
      <contour>
        <pt x="992" y="1456" on="1"/>
        <pt x="1212" y="1456" on="1"/>
        <pt x="711" y="544" on="1"/>
        <pt x="711" y="0" on="1"/>
        <pt x="516" y="0" on="1"/>
        <pt x="516" y="544" on="1"/>
        <pt x="15" y="1456" on="1"/>
        <pt x="237" y="1456" on="1"/>
        <pt x="614" y="724" on="1"/>
      </contour>
    </TTGlyph>
    <TTGlyph name="Y.smcp" xMin="14" yMin="0" xMax="1053" yMax="1165">
      <contour>
        <pt x="623" y="409" on="1"/>
        <pt x="623" y="0" on="1"/>
        <pt x="437" y="0" on="1"/>
        <pt x="437" y="419" on="1"/>
        <pt x="14" y="1165" on="1"/>
        <pt x="223" y="1165" on="1"/>
        <pt x="533" y="590" on="1"/>
        <pt x="843" y="1165" on="1"/>
        <pt x="1053" y="1165" on="1"/>
      </contour>
    </TTGlyph>
    <TTGlyph name="Yacute" xMin="15" yMin="0" xMax="1212" yMax="1846">
      <component glyphName=".ttfautohint" x="15" y="0" flags="0x0"/>
      <component glyphName="Y" x="0" y="0" flags="0x0"/>
      <component glyphName="acutecomb" x="1184" y="310" flags="0x4"/>
    </TTGlyph>
    <TTGlyph name="Yacute.smcp" xMin="14" yMin="0" xMax="1053" yMax="1566">
      <component glyphName=".ttfautohint" x="14" y="0" flags="0x0"/>
      <component glyphName="Y.smcp" x="0" y="0" flags="0x0"/>
      <component glyphName="acutecomb" x="1099" y="30" flags="0x4"/>
    </TTGlyph>
    <TTGlyph name="Z" xMin="87" yMin="0" xMax="1146" yMax="1456">
      <contour>
        <pt x="1146" y="156" on="1"/>
        <pt x="1146" y="0" on="1"/>
        <pt x="87" y="0" on="1"/>
        <pt x="87" y="143" on="1"/>
        <pt x="885" y="1299" on="1"/>
        <pt x="99" y="1299" on="1"/>
        <pt x="99" y="1456" on="1"/>
        <pt x="1114" y="1456" on="1"/>
        <pt x="1114" y="1317" on="1"/>
        <pt x="314" y="156" on="1"/>
      </contour>
    </TTGlyph>
    <TTGlyph name="Z.smcp" xMin="72" yMin="0" xMax="993" yMax="1165">
      <contour>
        <pt x="993" y="150" on="1"/>
        <pt x="993" y="0" on="1"/>
        <pt x="72" y="0" on="1"/>
        <pt x="72" y="123" on="1"/>
        <pt x="737" y="1014" on="1"/>
        <pt x="80" y="1014" on="1"/>
        <pt x="80" y="1165" on="1"/>
        <pt x="969" y="1165" on="1"/>
        <pt x="969" y="1046" on="1"/>
        <pt x="303" y="150" on="1"/>
      </contour>
    </TTGlyph>
    <TTGlyph name="a" xMin="109" yMin="-20" xMax="1003" yMax="1102">
      <contour>
        <pt x="965" y="179" on="0"/>
        <pt x="985" y="58" on="0"/>
        <pt x="1003" y="16" on="1"/>
        <pt x="1003" y="0" on="1"/>
        <pt x="808" y="0" on="1"/>
        <pt x="791" y="39" on="0"/>
        <pt x="782" y="113" on="1"/>
        <pt x="726" y="53" on="0"/>
        <pt x="569" y="-20" on="0"/>
        <pt x="475" y="-20" on="1"/>
        <pt x="367" y="-20" on="0"/>
        <pt x="200" y="65" on="0"/>
        <pt x="109" y="211" on="0"/>
        <pt x="109" y="300" on="1"/>
        <pt x="109" y="415" on="0"/>
        <pt x="228" y="575" on="0"/>
        <pt x="447" y="656" on="0"/>
        <pt x="596" y="656" on="1"/>
        <pt x="778" y="656" on="1"/>
        <pt x="778" y="742" on="1"/>
        <pt x="778" y="841" on="0"/>
        <pt x="661" y="954" on="0"/>
        <pt x="551" y="954" on="1"/>
        <pt x="484" y="954" on="0"/>
        <pt x="378" y="907" on="0"/>
        <pt x="319" y="828" on="0"/>
        <pt x="319" y="782" on="1"/>
        <pt x="132" y="782" on="1"/>
        <pt x="132" y="861" on="0"/>
        <pt x="240" y="1009" on="0"/>
        <pt x="436" y="1102" on="0"/>
        <pt x="562" y="1102" on="1"/>
        <pt x="682" y="1102" on="0"/>
        <pt x="863" y="1021" on="0"/>
        <pt x="965" y="858" on="0"/>
        <pt x="965" y="740" on="1"/>
        <pt x="965" y="236" on="1"/>
      </contour>
      <contour>
        <pt x="597" y="140" on="0"/>
        <pt x="745" y="236" on="0"/>
        <pt x="778" y="303" on="1"/>
        <pt x="778" y="526" on="1"/>
        <pt x="626" y="526" on="1"/>
        <pt x="466" y="526" on="0"/>
        <pt x="296" y="425" on="0"/>
        <pt x="296" y="326" on="1"/>
        <pt x="296" y="273" on="0"/>
        <pt x="344" y="189" on="0"/>
        <pt x="436" y="140" on="0"/>
        <pt x="502" y="140" on="1"/>
      </contour>
    </TTGlyph>
    <TTGlyph name="aacute" xMin="109" yMin="-20" xMax="1003" yMax="1536">
      <component glyphName=".ttfautohint" x="109" y="0" flags="0x0"/>
      <component glyphName="a" x="0" y="0" flags="0x0"/>
      <component glyphName="acutecomb" x="1148" y="0" flags="0x0"/>
    </TTGlyph>
    <TTGlyph name="acircumflex" xMin="109" yMin="-20" xMax="1003" yMax="1536">
      <component glyphName=".ttfautohint" x="109" y="0" flags="0x0"/>
      <component glyphName="a" x="0" y="0" flags="0x0"/>
      <component glyphName="circumflex" x="110" y="0" flags="0x0"/>
    </TTGlyph>
    <TTGlyph name="acute" xMin="123" yMin="1243" xMax="542" yMax="1536">
      <contour>
        <pt x="542" y="1536" on="1"/>
        <pt x="273" y="1243" on="1"/>
        <pt x="123" y="1243" on="1"/>
        <pt x="317" y="1536" on="1"/>
      </contour>
    </TTGlyph>
    <TTGlyph name="acutecomb" xMin="-659" yMin="1243" xMax="-240" yMax="1536">
      <contour>
        <pt x="-240" y="1536" on="1"/>
        <pt x="-509" y="1243" on="1"/>
        <pt x="-659" y="1243" on="1"/>
        <pt x="-465" y="1536" on="1"/>
      </contour>
    </TTGlyph>
    <TTGlyph name="adieresis" xMin="109" yMin="-20" xMax="1003" yMax="1478">
      <component glyphName=".ttfautohint" x="109" y="0" flags="0x0"/>
      <component glyphName="a" x="0" y="0" flags="0x0"/>
      <component glyphName="dieresis" x="159" y="0" flags="0x0"/>
    </TTGlyph>
    <TTGlyph name="ae" xMin="78" yMin="-21" xMax="1661" yMax="1103">
      <contour>
        <pt x="1661" y="499" on="1"/>
        <pt x="934" y="499" on="1"/>
        <pt x="938" y="393" on="0"/>
        <pt x="1011" y="226" on="0"/>
        <pt x="1156" y="130" on="0"/>
        <pt x="1263" y="130" on="1"/>
        <pt x="1336" y="130" on="0"/>
        <pt x="1452" y="162" on="0"/>
        <pt x="1529" y="204" on="0"/>
        <pt x="1578" y="237" on="1"/>
        <pt x="1643" y="102" on="1"/>
        <pt x="1588" y="57" on="0"/>
        <pt x="1402" y="-21" on="0"/>
        <pt x="1263" y="-21" on="1"/>
        <pt x="1132" y="-21" on="0"/>
        <pt x="930" y="73" on="0"/>
        <pt x="865" y="159" on="1"/>
        <pt x="807" y="83" on="0"/>
        <pt x="588" y="-21" on="0"/>
        <pt x="433" y="-21" on="1"/>
        <pt x="321" y="-21" on="0"/>
        <pt x="161" y="59" on="0"/>
        <pt x="78" y="205" on="0"/>
        <pt x="78" y="304" on="1"/>
        <pt x="78" y="463" on="0"/>
        <pt x="308" y="635" on="0"/>
        <pt x="527" y="635" on="1"/>
        <pt x="748" y="635" on="1"/>
        <pt x="748" y="720" on="1"/>
        <pt x="748" y="829" on="0"/>
        <pt x="638" y="952" on="0"/>
        <pt x="536" y="952" on="1"/>
        <pt x="464" y="952" on="0"/>
        <pt x="353" y="900" on="0"/>
        <pt x="292" y="812" on="0"/>
        <pt x="292" y="760" on="1"/>
        <pt x="106" y="778" on="1"/>
        <pt x="106" y="871" on="0"/>
        <pt x="214" y="1018" on="0"/>
        <pt x="410" y="1102" on="0"/>
        <pt x="536" y="1102" on="1"/>
        <pt x="652" y="1102" on="0"/>
        <pt x="828" y="1018" on="0"/>
        <pt x="876" y="937" on="1"/>
        <pt x="939" y="1016" on="0"/>
        <pt x="1115" y="1103" on="0"/>
        <pt x="1218" y="1102" on="1"/>
        <pt x="1360" y="1102" on="0"/>
        <pt x="1559" y="984" on="0"/>
        <pt x="1661" y="766" on="0"/>
        <pt x="1661" y="616" on="1"/>
      </contour>
      <contour>
        <pt x="1474" y="671" on="1"/>
        <pt x="1474" y="795" on="0"/>
        <pt x="1350" y="952" on="0"/>
        <pt x="1218" y="952" on="1"/>
        <pt x="1140" y="952" on="0"/>
        <pt x="1022" y="872" on="0"/>
        <pt x="949" y="731" on="0"/>
        <pt x="938" y="640" on="1"/>
        <pt x="1474" y="640" on="1"/>
      </contour>
      <contour>
        <pt x="542" y="129" on="0"/>
        <pt x="700" y="204" on="0"/>
        <pt x="748" y="256" on="1"/>
        <pt x="748" y="497" on="1"/>
        <pt x="529" y="497" on="1"/>
        <pt x="445" y="497" on="0"/>
        <pt x="326" y="443" on="0"/>
        <pt x="265" y="353" on="0"/>
        <pt x="265" y="300" on="1"/>
        <pt x="265" y="224" on="0"/>
        <pt x="369" y="129" on="0"/>
        <pt x="470" y="129" on="1"/>
      </contour>
    </TTGlyph>
    <TTGlyph name="agrave" xMin="109" yMin="-20" xMax="1003" yMax="1536">
      <component glyphName=".ttfautohint" x="109" y="0" flags="0x0"/>
      <component glyphName="a" x="0" y="0" flags="0x0"/>
      <component glyphName="gravecomb" x="1111" y="0" flags="0x0"/>
    </TTGlyph>
    <TTGlyph name="alpha" xMin="100" yMin="-21" xMax="1144" yMax="1102">
      <contour>
        <pt x="1144" y="13" on="1"/>
        <pt x="1115" y="-7" on="0"/>
        <pt x="1057" y="-21" on="0"/>
        <pt x="1020" y="-21" on="1"/>
        <pt x="949" y="-21" on="0"/>
        <pt x="855" y="57" on="0"/>
        <pt x="835" y="142" on="1"/>
        <pt x="728" y="-21" on="0"/>
        <pt x="521" y="-21" on="1"/>
        <pt x="390" y="-21" on="0"/>
        <pt x="200" y="111" on="0"/>
        <pt x="100" y="348" on="0"/>
        <pt x="100" y="501" on="1"/>
        <pt x="100" y="522" on="1"/>
        <pt x="100" y="694" on="0"/>
        <pt x="199" y="956" on="0"/>
        <pt x="390" y="1102" on="0"/>
        <pt x="523" y="1102" on="1"/>
        <pt x="724" y="1102" on="0"/>
        <pt x="832" y="943" on="1"/>
        <pt x="849" y="1082" on="1"/>
        <pt x="1007" y="1082" on="1"/>
        <pt x="1007" y="295" on="1"/>
        <pt x="1007" y="210" on="0"/>
        <pt x="1050" y="144" on="0"/>
        <pt x="1087" y="144" on="1"/>
        <pt x="1099" y="144" on="0"/>
        <pt x="1121" y="149" on="1"/>
      </contour>
      <contour>
        <pt x="658" y="129" on="0"/>
        <pt x="780" y="226" on="0"/>
        <pt x="820" y="313" on="1"/>
        <pt x="820" y="766" on="1"/>
        <pt x="735" y="952" on="0"/>
        <pt x="569" y="952" on="1"/>
        <pt x="426" y="952" on="0"/>
        <pt x="287" y="711" on="0"/>
        <pt x="287" y="522" on="1"/>
        <pt x="287" y="501" on="1"/>
        <pt x="287" y="335" on="0"/>
        <pt x="425" y="129" on="0"/>
        <pt x="567" y="129" on="1"/>
      </contour>
    </TTGlyph>
    <TTGlyph name="alpha.alt" xMin="100" yMin="-21" xMax="1114" yMax="1102">
      <contour>
        <pt x="936" y="0" on="1"/>
        <pt x="898" y="240" on="1"/>
        <pt x="847" y="113" on="0"/>
        <pt x="659" y="-21" on="0"/>
        <pt x="521" y="-21" on="1"/>
        <pt x="390" y="-21" on="0"/>
        <pt x="200" y="111" on="0"/>
        <pt x="100" y="348" on="0"/>
        <pt x="100" y="501" on="1"/>
        <pt x="100" y="522" on="1"/>
        <pt x="100" y="694" on="0"/>
        <pt x="199" y="956" on="0"/>
        <pt x="390" y="1102" on="0"/>
        <pt x="523" y="1102" on="1"/>
        <pt x="789" y="1102" on="0"/>
        <pt x="895" y="848" on="1"/>
        <pt x="929" y="1082" on="1"/>
        <pt x="1107" y="1082" on="1"/>
        <pt x="1001" y="540" on="1"/>
        <pt x="1114" y="0" on="1"/>
      </contour>
      <contour>
        <pt x="849" y="558" on="1"/>
        <pt x="824" y="727" on="0"/>
        <pt x="687" y="952" on="0"/>
        <pt x="569" y="952" on="1"/>
        <pt x="426" y="952" on="0"/>
        <pt x="287" y="711" on="0"/>
        <pt x="287" y="522" on="1"/>
        <pt x="287" y="501" on="1"/>
        <pt x="287" y="335" on="0"/>
        <pt x="425" y="129" on="0"/>
        <pt x="567" y="129" on="1"/>
        <pt x="684" y="129" on="0"/>
        <pt x="816" y="344" on="0"/>
        <pt x="849" y="521" on="1"/>
      </contour>
    </TTGlyph>
    <TTGlyph name="ampersand" xMin="101" yMin="-20" xMax="1268" yMax="1476">
      <contour>
        <pt x="1044" y="0" on="1"/>
        <pt x="948" y="115" on="1"/>
        <pt x="875" y="49" on="0"/>
        <pt x="675" y="-20" on="0"/>
        <pt x="573" y="-20" on="1"/>
        <pt x="430" y="-20" on="0"/>
        <pt x="216" y="85" on="0"/>
        <pt x="101" y="271" on="0"/>
        <pt x="101" y="391" on="1"/>
        <pt x="101" y="474" on="0"/>
        <pt x="170" y="609" on="0"/>
        <pt x="289" y="722" on="0"/>
        <pt x="384" y="790" on="1"/>
        <pt x="301" y="890" on="0"/>
        <pt x="220" y="1043" on="0"/>
        <pt x="220" y="1123" on="1"/>
        <pt x="220" y="1235" on="0"/>
        <pt x="310" y="1394" on="0"/>
        <pt x="475" y="1476" on="0"/>
        <pt x="585" y="1476" on="1"/>
        <pt x="689" y="1476" on="0"/>
        <pt x="847" y="1393" on="0"/>
        <pt x="932" y="1252" on="0"/>
        <pt x="932" y="1169" on="1"/>
        <pt x="932" y="1071" on="0"/>
        <pt x="832" y="925" on="0"/>
        <pt x="734" y="852" on="1"/>
        <pt x="625" y="771" on="1"/>
        <pt x="948" y="384" on="1"/>
        <pt x="1015" y="513" on="0"/>
        <pt x="1015" y="672" on="1"/>
        <pt x="1183" y="672" on="1"/>
        <pt x="1183" y="417" on="0"/>
        <pt x="1060" y="249" on="1"/>
        <pt x="1268" y="0" on="1"/>
      </contour>
      <contour>
        <pt x="528" y="1326" on="0"/>
        <pt x="448" y="1273" on="0"/>
        <pt x="407" y="1183" on="0"/>
        <pt x="407" y="1129" on="1"/>
        <pt x="407" y="1077" on="0"/>
        <pt x="467" y="962" on="0"/>
        <pt x="525" y="890" on="1"/>
        <pt x="628" y="963" on="1"/>
        <pt x="697" y="1010" on="0"/>
        <pt x="759" y="1099" on="0"/>
        <pt x="759" y="1169" on="1"/>
        <pt x="759" y="1209" on="0"/>
        <pt x="717" y="1282" on="0"/>
        <pt x="638" y="1326" on="0"/>
        <pt x="584" y="1326" on="1"/>
      </contour>
      <contour>
        <pt x="645" y="130" on="0"/>
        <pt x="783" y="189" on="0"/>
        <pt x="842" y="243" on="1"/>
        <pt x="487" y="669" on="1"/>
        <pt x="445" y="638" on="1"/>
        <pt x="351" y="568" on="0"/>
        <pt x="288" y="441" on="0"/>
        <pt x="288" y="391" on="1"/>
        <pt x="288" y="318" on="0"/>
        <pt x="352" y="200" on="0"/>
        <pt x="480" y="130" on="0"/>
        <pt x="573" y="130" on="1"/>
      </contour>
    </TTGlyph>
    <TTGlyph name="ampersand.smcp" xMin="103" yMin="-16" xMax="1170" yMax="1181">
      <contour>
        <pt x="958" y="0" on="1"/>
        <pt x="865" y="98" on="1"/>
        <pt x="711" y="-16" on="0"/>
        <pt x="488" y="-16" on="1"/>
        <pt x="372" y="-16" on="0"/>
        <pt x="197" y="61" on="0"/>
        <pt x="103" y="195" on="0"/>
        <pt x="103" y="278" on="1"/>
        <pt x="103" y="374" on="0"/>
        <pt x="193" y="507" on="0"/>
        <pt x="288" y="576" on="1"/>
        <pt x="360" y="627" on="1"/>
        <pt x="298" y="692" on="0"/>
        <pt x="233" y="770" on="0"/>
        <pt x="192" y="863" on="0"/>
        <pt x="192" y="919" on="1"/>
        <pt x="192" y="996" on="0"/>
        <pt x="271" y="1115" on="0"/>
        <pt x="415" y="1181" on="0"/>
        <pt x="509" y="1181" on="1"/>
        <pt x="602" y="1181" on="0"/>
        <pt x="744" y="1110" on="0"/>
        <pt x="822" y="990" on="0"/>
        <pt x="822" y="920" on="1"/>
        <pt x="822" y="848" on="0"/>
        <pt x="743" y="721" on="0"/>
        <pt x="679" y="674" on="1"/>
        <pt x="594" y="613" on="1"/>
        <pt x="861" y="329" on="1"/>
        <pt x="928" y="442" on="0"/>
        <pt x="928" y="599" on="1"/>
        <pt x="1098" y="599" on="1"/>
        <pt x="1098" y="490" on="0"/>
        <pt x="1033" y="293" on="0"/>
        <pt x="971" y="212" on="1"/>
        <pt x="1170" y="0" on="1"/>
      </contour>
      <contour>
        <pt x="374" y="876" on="0"/>
        <pt x="404" y="818" on="0"/>
        <pt x="447" y="767" on="0"/>
        <pt x="491" y="721" on="1"/>
        <pt x="555" y="767" on="1"/>
        <pt x="596" y="796" on="0"/>
        <pt x="639" y="869" on="0"/>
        <pt x="639" y="906" on="1"/>
        <pt x="639" y="959" on="0"/>
        <pt x="566" y="1028" on="0"/>
        <pt x="502" y="1028" on="1"/>
        <pt x="462" y="1028" on="0"/>
        <pt x="404" y="993" on="0"/>
        <pt x="374" y="937" on="0"/>
        <pt x="374" y="906" on="1"/>
      </contour>
      <contour>
        <pt x="651" y="137" on="0"/>
        <pt x="756" y="212" on="1"/>
        <pt x="463" y="519" on="1"/>
        <pt x="379" y="459" on="1"/>
        <pt x="326" y="421" on="0"/>
        <pt x="288" y="343" on="0"/>
        <pt x="288" y="303" on="1"/>
        <pt x="288" y="227" on="0"/>
        <pt x="399" y="137" on="0"/>
        <pt x="505" y="137" on="1"/>
      </contour>
    </TTGlyph>
    <TTGlyph name="aring" xMin="109" yMin="-20" xMax="1003" yMax="1627">
      <component glyphName=".ttfautohint" x="109" y="0" flags="0x0"/>
      <component glyphName="a" x="0" y="0" flags="0x0"/>
      <component glyphName="ring" x="245" y="11" flags="0x4"/>
    </TTGlyph>
    <TTGlyph name="asciicircum" xMin="64" yMin="729" xMax="789" yMax="1456">
      <contour>
        <pt x="616" y="729" on="1"/>
        <pt x="427" y="1213" on="1"/>
        <pt x="237" y="729" on="1"/>
        <pt x="64" y="729" on="1"/>
        <pt x="363" y="1456" on="1"/>
        <pt x="491" y="1456" on="1"/>
        <pt x="789" y="729" on="1"/>
      </contour>
    </TTGlyph>
    <TTGlyph name="asciitilde" xMin="131" yMin="403" xMax="1263" yMax="802">
      <contour>
        <pt x="1263" y="675" on="0"/>
        <pt x="1180" y="504" on="0"/>
        <pt x="1032" y="403" on="0"/>
        <pt x="939" y="403" on="1"/>
        <pt x="856" y="403" on="0"/>
        <pt x="724" y="468" on="0"/>
        <pt x="641" y="542" on="1"/>
        <pt x="586" y="593" on="0"/>
        <pt x="501" y="641" on="0"/>
        <pt x="454" y="641" on="1"/>
        <pt x="378" y="641" on="0"/>
        <pt x="293" y="533" on="0"/>
        <pt x="293" y="438" on="1"/>
        <pt x="131" y="437" on="1"/>
        <pt x="131" y="540" on="0"/>
        <pt x="213" y="707" on="0"/>
        <pt x="361" y="802" on="0"/>
        <pt x="454" y="802" on="1"/>
        <pt x="537" y="802" on="0"/>
        <pt x="673" y="735" on="0"/>
        <pt x="753" y="663" on="1"/>
        <pt x="810" y="610" on="0"/>
        <pt x="893" y="564" on="0"/>
        <pt x="939" y="564" on="1"/>
        <pt x="989" y="564" on="0"/>
        <pt x="1067" y="618" on="0"/>
        <pt x="1110" y="715" on="0"/>
        <pt x="1110" y="777" on="1"/>
        <pt x="1263" y="777" on="1"/>
      </contour>
    </TTGlyph>
    <TTGlyph name="asterisk" xMin="28" yMin="610" xMax="854" yMax="1457">
      <contour>
        <pt x="28" y="1075" on="1"/>
        <pt x="75" y="1224" on="1"/>
        <pt x="376" y="1112" on="1"/>
        <pt x="367" y="1457" on="1"/>
        <pt x="521" y="1457" on="1"/>
        <pt x="511" y="1107" on="1"/>
        <pt x="807" y="1218" on="1"/>
        <pt x="854" y="1066" on="1"/>
        <pt x="548" y="975" on="1"/>
        <pt x="745" y="703" on="1"/>
        <pt x="619" y="610" on="1"/>
        <pt x="435" y="899" on="1"/>
        <pt x="255" y="617" on="1"/>
        <pt x="129" y="708" on="1"/>
        <pt x="329" y="984" on="1"/>
      </contour>
    </TTGlyph>
    <TTGlyph name="at" xMin="114" yMin="-453" xMax="1736" yMax="1431">
      <contour>
        <pt x="1211" y="1431" on="0"/>
        <pt x="1557" y="1222" on="0"/>
        <pt x="1736" y="833" on="0"/>
        <pt x="1736" y="568" on="1"/>
        <pt x="1736" y="525" on="0"/>
        <pt x="1735" y="503" on="1"/>
        <pt x="1730" y="369" on="0"/>
        <pt x="1643" y="131" on="0"/>
        <pt x="1463" y="-21" on="0"/>
        <pt x="1326" y="-21" on="1"/>
        <pt x="1234" y="-21" on="0"/>
        <pt x="1111" y="67" on="0"/>
        <pt x="1086" y="148" on="1"/>
        <pt x="1034" y="66" on="0"/>
        <pt x="894" y="-21" on="0"/>
        <pt x="819" y="-21" on="1"/>
        <pt x="688" y="-21" on="0"/>
        <pt x="546" y="173" on="0"/>
        <pt x="546" y="341" on="1"/>
        <pt x="546" y="364" on="0"/>
        <pt x="550" y="418" on="1"/>
        <pt x="565" y="588" on="0"/>
        <pt x="692" y="849" on="0"/>
        <pt x="879" y="990" on="0"/>
        <pt x="982" y="990" on="1"/>
        <pt x="1050" y="990" on="0"/>
        <pt x="1151" y="962" on="0"/>
        <pt x="1224" y="919" on="0"/>
        <pt x="1271" y="883" on="1"/>
        <pt x="1220" y="329" on="1"/>
        <pt x="1218" y="311" on="0"/>
        <pt x="1218" y="278" on="1"/>
        <pt x="1218" y="176" on="0"/>
        <pt x="1292" y="98" on="0"/>
        <pt x="1347" y="98" on="1"/>
        <pt x="1425" y="98" on="0"/>
        <pt x="1538" y="204" on="0"/>
        <pt x="1600" y="388" on="0"/>
        <pt x="1605" y="503" on="1"/>
        <pt x="1607" y="555" on="0"/>
        <pt x="1607" y="578" on="1"/>
        <pt x="1607" y="926" on="0"/>
        <pt x="1287" y="1300" on="0"/>
        <pt x="964" y="1300" on="1"/>
        <pt x="758" y="1300" on="0"/>
        <pt x="447" y="1094" on="0"/>
        <pt x="271" y="722" on="0"/>
        <pt x="261" y="478" on="1"/>
        <pt x="259" y="432" on="0"/>
        <pt x="259" y="412" on="1"/>
        <pt x="259" y="182" on="0"/>
        <pt x="409" y="-151" on="0"/>
        <pt x="695" y="-329" on="0"/>
        <pt x="896" y="-329" on="1"/>
        <pt x="985" y="-329" on="0"/>
        <pt x="1165" y="-287" on="0"/>
        <pt x="1227" y="-251" on="1"/>
        <pt x="1265" y="-364" on="1"/>
        <pt x="1199" y="-407" on="0"/>
        <pt x="992" y="-453" on="0"/>
        <pt x="892" y="-453" on="1"/>
        <pt x="650" y="-453" on="0"/>
        <pt x="300" y="-243" on="0"/>
        <pt x="114" y="148" on="0"/>
        <pt x="114" y="416" on="1"/>
        <pt x="114" y="457" on="0"/>
        <pt x="115" y="478" on="1"/>
        <pt x="127" y="752" on="0"/>
        <pt x="344" y="1185" on="0"/>
        <pt x="722" y="1431" on="0"/>
        <pt x="968" y="1431" on="1"/>
      </contour>
      <contour>
        <pt x="922" y="122" on="0"/>
        <pt x="1034" y="220" on="0"/>
        <pt x="1071" y="321" on="1"/>
        <pt x="1072" y="329" on="1"/>
        <pt x="1118" y="833" on="1"/>
        <pt x="1062" y="862" on="0"/>
        <pt x="998" y="862" on="1"/>
        <pt x="925" y="862" on="0"/>
        <pt x="803" y="761" on="0"/>
        <pt x="723" y="561" on="0"/>
        <pt x="710" y="418" on="1"/>
        <pt x="707" y="384" on="0"/>
        <pt x="707" y="352" on="1"/>
        <pt x="707" y="241" on="0"/>
        <pt x="788" y="122" on="0"/>
        <pt x="865" y="122" on="1"/>
      </contour>
    </TTGlyph>
    <TTGlyph name="atilde" xMin="109" yMin="-20" xMax="1003" yMax="1516">
      <component glyphName=".ttfautohint" x="109" y="0" flags="0x0"/>
      <component glyphName="a" x="0" y="0" flags="0x0"/>
      <component glyphName="tilde" x="106" y="4" flags="0x4"/>
    </TTGlyph>
    <TTGlyph name="b" xMin="140" yMin="-20" xMax="1057" yMax="1536">
      <contour>
        <pt x="768" y="1102" on="0"/>
        <pt x="958" y="965" on="0"/>
        <pt x="1057" y="716" on="0"/>
        <pt x="1057" y="550" on="1"/>
        <pt x="1057" y="529" on="1"/>
        <pt x="1057" y="370" on="0"/>
        <pt x="958" y="121" on="0"/>
        <pt x="768" y="-20" on="0"/>
        <pt x="637" y="-20" on="1"/>
        <pt x="431" y="-20" on="0"/>
        <pt x="320" y="124" on="1"/>
        <pt x="311" y="0" on="1"/>
        <pt x="140" y="0" on="1"/>
        <pt x="140" y="1536" on="1"/>
        <pt x="327" y="1536" on="1"/>
        <pt x="327" y="966" on="1"/>
        <pt x="437" y="1102" on="0"/>
        <pt x="635" y="1102" on="1"/>
      </contour>
      <contour>
        <pt x="870" y="550" on="1"/>
        <pt x="870" y="728" on="0"/>
        <pt x="735" y="947" on="0"/>
        <pt x="588" y="947" on="1"/>
        <pt x="494" y="947" on="0"/>
        <pt x="364" y="856" on="0"/>
        <pt x="327" y="779" on="1"/>
        <pt x="327" y="305" on="1"/>
        <pt x="365" y="228" on="0"/>
        <pt x="496" y="136" on="0"/>
        <pt x="590" y="136" on="1"/>
        <pt x="731" y="136" on="0"/>
        <pt x="870" y="355" on="0"/>
        <pt x="870" y="529" on="1"/>
      </contour>
    </TTGlyph>
    <TTGlyph name="b.ss06" xMin="140" yMin="-20" xMax="1077" yMax="1536">
      <contour>
        <pt x="769" y="1102" on="0"/>
        <pt x="969" y="965" on="0"/>
        <pt x="1077" y="715" on="0"/>
        <pt x="1077" y="551" on="1"/>
        <pt x="1077" y="530" on="1"/>
        <pt x="1077" y="372" on="0"/>
        <pt x="968" y="122" on="0"/>
        <pt x="768" y="-20" on="0"/>
        <pt x="637" y="-20" on="1"/>
        <pt x="429" y="-20" on="0"/>
        <pt x="317" y="128" on="1"/>
        <pt x="301" y="0" on="1"/>
        <pt x="140" y="0" on="1"/>
        <pt x="140" y="1536" on="1"/>
        <pt x="327" y="1536" on="1"/>
        <pt x="327" y="966" on="1"/>
        <pt x="437" y="1102" on="0"/>
        <pt x="635" y="1102" on="1"/>
      </contour>
      <contour>
        <pt x="890" y="551" on="1"/>
        <pt x="890" y="665" on="0"/>
        <pt x="822" y="844" on="0"/>
        <pt x="686" y="947" on="0"/>
        <pt x="588" y="947" on="1"/>
        <pt x="494" y="947" on="0"/>
        <pt x="364" y="856" on="0"/>
        <pt x="327" y="779" on="1"/>
        <pt x="327" y="305" on="1"/>
        <pt x="365" y="228" on="0"/>
        <pt x="496" y="136" on="0"/>
        <pt x="590" y="136" on="1"/>
        <pt x="686" y="136" on="0"/>
        <pt x="822" y="241" on="0"/>
        <pt x="890" y="420" on="0"/>
        <pt x="890" y="530" on="1"/>
      </contour>
    </TTGlyph>
    <TTGlyph name="backslash" xMin="41" yMin="-125" xMax="826" yMax="1456">
      <contour>
        <pt x="218" y="1456" on="1"/>
        <pt x="826" y="-125" on="1"/>
        <pt x="649" y="-125" on="1"/>
        <pt x="41" y="1456" on="1"/>
      </contour>
    </TTGlyph>
    <TTGlyph name="bar" xMin="176" yMin="-270" xMax="326" yMax="1456">
      <contour>
        <pt x="176" y="-270" on="1"/>
        <pt x="176" y="1456" on="1"/>
        <pt x="326" y="1456" on="1"/>
        <pt x="326" y="-270" on="1"/>
      </contour>
    </TTGlyph>
    <TTGlyph name="braceleft" xMin="64" yMin="-367" xMax="671" yMax="1597">
      <contour>
        <pt x="463" y="-36" on="0"/>
        <pt x="559" y="-218" on="0"/>
        <pt x="671" y="-253" on="1"/>
        <pt x="632" y="-367" on="1"/>
        <pt x="440" y="-313" on="0"/>
        <pt x="276" y="-73" on="0"/>
        <pt x="276" y="98" on="1"/>
        <pt x="276" y="305" on="1"/>
        <pt x="276" y="418" on="0"/>
        <pt x="173" y="543" on="0"/>
        <pt x="64" y="543" on="1"/>
        <pt x="64" y="687" on="1"/>
        <pt x="173" y="687" on="0"/>
        <pt x="276" y="812" on="0"/>
        <pt x="276" y="925" on="1"/>
        <pt x="276" y="1132" on="1"/>
        <pt x="276" y="1303" on="0"/>
        <pt x="440" y="1543" on="0"/>
        <pt x="632" y="1597" on="1"/>
        <pt x="671" y="1484" on="1"/>
        <pt x="559" y="1448" on="0"/>
        <pt x="463" y="1266" on="0"/>
        <pt x="463" y="1132" on="1"/>
        <pt x="463" y="925" on="1"/>
        <pt x="463" y="821" on="0"/>
        <pt x="380" y="660" on="0"/>
        <pt x="294" y="615" on="1"/>
        <pt x="380" y="570" on="0"/>
        <pt x="463" y="409" on="0"/>
        <pt x="463" y="305" on="1"/>
        <pt x="463" y="98" on="1"/>
      </contour>
    </TTGlyph>
    <TTGlyph name="braceright" xMin="20" yMin="-367" xMax="627" yMax="1597">
      <contour>
        <pt x="415" y="812" on="0"/>
        <pt x="519" y="687" on="0"/>
        <pt x="627" y="687" on="1"/>
        <pt x="627" y="543" on="1"/>
        <pt x="519" y="543" on="0"/>
        <pt x="415" y="417" on="0"/>
        <pt x="415" y="305" on="1"/>
        <pt x="415" y="98" on="1"/>
        <pt x="415" y="-74" on="0"/>
        <pt x="252" y="-313" on="0"/>
        <pt x="59" y="-367" on="1"/>
        <pt x="20" y="-253" on="1"/>
        <pt x="132" y="-218" on="0"/>
        <pt x="228" y="-36" on="0"/>
        <pt x="228" y="98" on="1"/>
        <pt x="228" y="305" on="1"/>
        <pt x="228" y="413" on="0"/>
        <pt x="319" y="574" on="0"/>
        <pt x="412" y="615" on="1"/>
        <pt x="319" y="656" on="0"/>
        <pt x="228" y="817" on="0"/>
        <pt x="228" y="925" on="1"/>
        <pt x="228" y="1132" on="1"/>
        <pt x="228" y="1266" on="0"/>
        <pt x="132" y="1448" on="0"/>
        <pt x="20" y="1484" on="1"/>
        <pt x="59" y="1597" on="1"/>
        <pt x="252" y="1543" on="0"/>
        <pt x="415" y="1304" on="0"/>
        <pt x="415" y="1132" on="1"/>
        <pt x="415" y="925" on="1"/>
      </contour>
    </TTGlyph>
    <TTGlyph name="bracketleft" xMin="146" yMin="-312" xMax="524" yMax="1664">
      <contour>
        <pt x="333" y="1514" on="1"/>
        <pt x="333" y="-162" on="1"/>
        <pt x="524" y="-162" on="1"/>
        <pt x="524" y="-312" on="1"/>
        <pt x="146" y="-312" on="1"/>
        <pt x="146" y="1664" on="1"/>
        <pt x="524" y="1664" on="1"/>
        <pt x="524" y="1514" on="1"/>
      </contour>
    </TTGlyph>
    <TTGlyph name="bracketright" xMin="10" yMin="-312" xMax="389" yMax="1664">
      <contour>
        <pt x="389" y="1664" on="1"/>
        <pt x="389" y="-312" on="1"/>
        <pt x="10" y="-312" on="1"/>
        <pt x="10" y="-162" on="1"/>
        <pt x="202" y="-162" on="1"/>
        <pt x="202" y="1514" on="1"/>
        <pt x="10" y="1514" on="1"/>
        <pt x="10" y="1664" on="1"/>
      </contour>
    </TTGlyph>
    <TTGlyph name="brokenbar" xMin="147" yMin="-270" xMax="334" yMax="1456">
      <contour>
        <pt x="147" y="698" on="1"/>
        <pt x="147" y="1456" on="1"/>
        <pt x="334" y="1456" on="1"/>
        <pt x="334" y="698" on="1"/>
      </contour>
      <contour>
        <pt x="147" y="521" on="1"/>
        <pt x="334" y="521" on="1"/>
        <pt x="334" y="-270" on="1"/>
        <pt x="147" y="-270" on="1"/>
      </contour>
    </TTGlyph>
    <TTGlyph name="bullet" xMin="139" yMin="536" xMax="547" yMax="970">
      <contour>
        <pt x="139" y="829" on="0"/>
        <pt x="189" y="919" on="0"/>
        <pt x="281" y="970" on="0"/>
        <pt x="342" y="970" on="1"/>
        <pt x="405" y="970" on="0"/>
        <pt x="498" y="919" on="0"/>
        <pt x="547" y="830" on="0"/>
        <pt x="547" y="772" on="1"/>
        <pt x="547" y="732" on="1"/>
        <pt x="547" y="644" on="0"/>
        <pt x="437" y="536" on="0"/>
        <pt x="343" y="536" on="1"/>
        <pt x="281" y="536" on="0"/>
        <pt x="189" y="586" on="0"/>
        <pt x="139" y="675" on="0"/>
        <pt x="139" y="732" on="1"/>
        <pt x="139" y="772" on="1"/>
      </contour>
    </TTGlyph>
    <TTGlyph name="c" xMin="92" yMin="-20" xMax="1006" yMax="1102">
      <contour>
        <pt x="1006" y="342" on="1"/>
        <pt x="1001" y="247" on="0"/>
        <pt x="881" y="80" on="0"/>
        <pt x="686" y="-20" on="0"/>
        <pt x="574" y="-20" on="1"/>
        <pt x="417" y="-20" on="0"/>
        <pt x="200" y="125" on="0"/>
        <pt x="92" y="370" on="0"/>
        <pt x="92" y="520" on="1"/>
        <pt x="92" y="562" on="1"/>
        <pt x="92" y="712" on="0"/>
        <pt x="200" y="957" on="0"/>
        <pt x="417" y="1102" on="0"/>
        <pt x="574" y="1102" on="1"/>
        <pt x="698" y="1102" on="0"/>
        <pt x="891" y="1000" on="0"/>
        <pt x="1001" y="821" on="0"/>
        <pt x="1006" y="710" on="1"/>
        <pt x="829" y="710" on="1"/>
        <pt x="824" y="777" on="0"/>
        <pt x="758" y="888" on="0"/>
        <pt x="646" y="952" on="0"/>
        <pt x="574" y="952" on="1"/>
        <pt x="467" y="952" on="0"/>
        <pt x="335" y="841" on="0"/>
        <pt x="279" y="666" on="0"/>
        <pt x="279" y="562" on="1"/>
        <pt x="279" y="520" on="1"/>
        <pt x="279" y="354" on="0"/>
        <pt x="416" y="130" on="0"/>
        <pt x="574" y="130" on="1"/>
        <pt x="639" y="130" on="0"/>
        <pt x="752" y="185" on="0"/>
        <pt x="824" y="282" on="0"/>
        <pt x="829" y="342" on="1"/>
      </contour>
    </TTGlyph>
    <TTGlyph name="c.ss06" xMin="93" yMin="-20" xMax="1008" yMax="1102">
      <contour>
        <pt x="1008" y="342" on="1"/>
        <pt x="1003" y="247" on="0"/>
        <pt x="884" y="80" on="0"/>
        <pt x="689" y="-20" on="0"/>
        <pt x="577" y="-20" on="1"/>
        <pt x="420" y="-20" on="0"/>
        <pt x="201" y="125" on="0"/>
        <pt x="93" y="370" on="0"/>
        <pt x="93" y="520" on="1"/>
        <pt x="93" y="562" on="1"/>
        <pt x="93" y="712" on="0"/>
        <pt x="202" y="957" on="0"/>
        <pt x="419" y="1102" on="0"/>
        <pt x="576" y="1102" on="1"/>
        <pt x="700" y="1102" on="0"/>
        <pt x="893" y="1000" on="0"/>
        <pt x="1003" y="821" on="0"/>
        <pt x="1008" y="710" on="1"/>
        <pt x="831" y="710" on="1"/>
        <pt x="826" y="777" on="0"/>
        <pt x="760" y="888" on="0"/>
        <pt x="648" y="952" on="0"/>
        <pt x="576" y="952" on="1"/>
        <pt x="469" y="952" on="0"/>
        <pt x="337" y="841" on="0"/>
        <pt x="280" y="666" on="0"/>
        <pt x="280" y="562" on="1"/>
        <pt x="280" y="520" on="1"/>
        <pt x="280" y="354" on="0"/>
        <pt x="418" y="130" on="0"/>
        <pt x="577" y="130" on="1"/>
        <pt x="642" y="130" on="0"/>
        <pt x="754" y="185" on="0"/>
        <pt x="826" y="282" on="0"/>
        <pt x="831" y="342" on="1"/>
      </contour>
    </TTGlyph>
    <TTGlyph name="ccedilla" xMin="92" yMin="-445" xMax="1006" yMax="1102">
      <component glyphName=".ttfautohint" x="92" y="0" flags="0x0"/>
      <component glyphName="c" x="0" y="0" flags="0x0"/>
      <component glyphName="cedilla" x="318" y="-10" flags="0x4"/>
    </TTGlyph>
    <TTGlyph name="cedilla" xMin="116" yMin="-435" xMax="427" yMax="0">
      <contour>
        <pt x="274" y="-53" on="1"/>
        <pt x="341" y="-64" on="0"/>
        <pt x="427" y="-146" on="0"/>
        <pt x="427" y="-226" on="1"/>
        <pt x="427" y="-322" on="0"/>
        <pt x="269" y="-435" on="0"/>
        <pt x="123" y="-435" on="1"/>
        <pt x="116" y="-329" on="1"/>
        <pt x="190" y="-329" on="0"/>
        <pt x="282" y="-280" on="0"/>
        <pt x="282" y="-230" on="1"/>
        <pt x="282" y="-196" on="0"/>
        <pt x="249" y="-158" on="0"/>
        <pt x="181" y="-140" on="0"/>
        <pt x="121" y="-135" on="1"/>
        <pt x="152" y="0" on="1"/>
        <pt x="286" y="0" on="1"/>
      </contour>
    </TTGlyph>
    <TTGlyph name="cent" xMin="104" yMin="-245" xMax="1018" yMax="1318">
      <contour>
        <pt x="651" y="130" on="0"/>
        <pt x="764" y="185" on="0"/>
        <pt x="836" y="282" on="0"/>
        <pt x="841" y="342" on="1"/>
        <pt x="1018" y="342" on="1"/>
        <pt x="1013" y="259" on="0"/>
        <pt x="920" y="109" on="0"/>
        <pt x="764" y="5" on="0"/>
        <pt x="670" y="-12" on="1"/>
        <pt x="670" y="-245" on="1"/>
        <pt x="483" y="-245" on="1"/>
        <pt x="483" y="-11" on="1"/>
        <pt x="359" y="12" on="0"/>
        <pt x="189" y="164" on="0"/>
        <pt x="104" y="388" on="0"/>
        <pt x="104" y="520" on="1"/>
        <pt x="104" y="562" on="1"/>
        <pt x="104" y="694" on="0"/>
        <pt x="189" y="918" on="0"/>
        <pt x="360" y="1070" on="0"/>
        <pt x="483" y="1093" on="1"/>
        <pt x="483" y="1318" on="1"/>
        <pt x="670" y="1318" on="1"/>
        <pt x="670" y="1095" on="1"/>
        <pt x="772" y="1079" on="0"/>
        <pt x="926" y="971" on="0"/>
        <pt x="1014" y="808" on="0"/>
        <pt x="1018" y="710" on="1"/>
        <pt x="841" y="710" on="1"/>
        <pt x="836" y="777" on="0"/>
        <pt x="770" y="888" on="0"/>
        <pt x="658" y="952" on="0"/>
        <pt x="586" y="952" on="1"/>
        <pt x="479" y="952" on="0"/>
        <pt x="347" y="841" on="0"/>
        <pt x="291" y="666" on="0"/>
        <pt x="291" y="562" on="1"/>
        <pt x="291" y="520" on="1"/>
        <pt x="291" y="354" on="0"/>
        <pt x="428" y="130" on="0"/>
        <pt x="586" y="130" on="1"/>
      </contour>
    </TTGlyph>
    <TTGlyph name="circumflex" xMin="170" yMin="1253" xMax="776" yMax="1536">
      <contour>
        <pt x="776" y="1253" on="1"/>
        <pt x="622" y="1253" on="1"/>
        <pt x="472" y="1423" on="1"/>
        <pt x="323" y="1253" on="1"/>
        <pt x="170" y="1253" on="1"/>
        <pt x="170" y="1264" on="1"/>
        <pt x="416" y="1536" on="1"/>
        <pt x="528" y="1536" on="1"/>
        <pt x="776" y="1263" on="1"/>
      </contour>
    </TTGlyph>
    <TTGlyph name="colon" xMin="133" yMin="-11" xMax="365" yMax="1093">
      <component glyphName=".ttfautohint" x="133" y="0" flags="0x0"/>
      <component glyphName="period" x="-11" y="0" flags="0x0"/>
      <component glyphName="period" x="-10" y="884" flags="0x4"/>
    </TTGlyph>
    <TTGlyph name="comma" xMin="28" yMin="-290" xMax="310" yMax="219">
      <contour>
        <pt x="310" y="-24" on="0"/>
        <pt x="216" y="-224" on="0"/>
        <pt x="134" y="-290" on="1"/>
        <pt x="28" y="-218" on="1"/>
        <pt x="77" y="-149" on="0"/>
        <pt x="127" y="-11" on="0"/>
        <pt x="127" y="68" on="1"/>
        <pt x="127" y="219" on="1"/>
        <pt x="310" y="219" on="1"/>
        <pt x="310" y="71" on="1"/>
      </contour>
    </TTGlyph>
    <TTGlyph name="copyright" xMin="91" yMin="-21" xMax="1510" yMax="1476">
      <contour>
        <pt x="994" y="1476" on="0"/>
        <pt x="1319" y="1279" on="0"/>
        <pt x="1510" y="937" on="0"/>
        <pt x="1510" y="729" on="1"/>
        <pt x="1510" y="521" on="0"/>
        <pt x="1319" y="178" on="0"/>
        <pt x="994" y="-21" on="0"/>
        <pt x="801" y="-21" on="1"/>
        <pt x="607" y="-21" on="0"/>
        <pt x="282" y="178" on="0"/>
        <pt x="91" y="521" on="0"/>
        <pt x="91" y="729" on="1"/>
        <pt x="91" y="937" on="0"/>
        <pt x="282" y="1279" on="0"/>
        <pt x="607" y="1476" on="0"/>
        <pt x="801" y="1476" on="1"/>
      </contour>
      <contour>
        <pt x="962" y="98" on="0"/>
        <pt x="1235" y="265" on="0"/>
        <pt x="1394" y="554" on="0"/>
        <pt x="1394" y="729" on="1"/>
        <pt x="1394" y="904" on="0"/>
        <pt x="1235" y="1191" on="0"/>
        <pt x="963" y="1357" on="0"/>
        <pt x="801" y="1357" on="1"/>
        <pt x="639" y="1357" on="0"/>
        <pt x="366" y="1191" on="0"/>
        <pt x="207" y="904" on="0"/>
        <pt x="207" y="729" on="1"/>
        <pt x="207" y="554" on="0"/>
        <pt x="367" y="265" on="0"/>
        <pt x="639" y="98" on="0"/>
        <pt x="801" y="98" on="1"/>
      </contour>
      <contour>
        <pt x="1119" y="443" on="0"/>
        <pt x="944" y="284" on="0"/>
        <pt x="788" y="284" on="1"/>
        <pt x="683" y="284" on="0"/>
        <pt x="526" y="381" on="0"/>
        <pt x="441" y="557" on="0"/>
        <pt x="441" y="671" on="1"/>
        <pt x="441" y="786" on="1"/>
        <pt x="441" y="900" on="0"/>
        <pt x="526" y="1076" on="0"/>
        <pt x="683" y="1173" on="0"/>
        <pt x="788" y="1173" on="1"/>
        <pt x="944" y="1173" on="0"/>
        <pt x="1120" y="1014" on="0"/>
        <pt x="1120" y="860" on="1"/>
        <pt x="974" y="860" on="1"/>
        <pt x="974" y="957" on="0"/>
        <pt x="881" y="1046" on="0"/>
        <pt x="788" y="1046" on="1"/>
        <pt x="692" y="1046" on="0"/>
        <pt x="586" y="904" on="0"/>
        <pt x="586" y="787" on="1"/>
        <pt x="586" y="671" on="1"/>
        <pt x="586" y="553" on="0"/>
        <pt x="691" y="412" on="0"/>
        <pt x="788" y="412" on="1"/>
        <pt x="881" y="412" on="0"/>
        <pt x="973" y="499" on="0"/>
        <pt x="973" y="598" on="1"/>
        <pt x="1119" y="598" on="1"/>
      </contour>
    </TTGlyph>
    <TTGlyph name="crossbar" xMin="143" yMin="652" xMax="781" yMax="802">
      <contour>
        <pt x="143" y="652" on="1"/>
        <pt x="143" y="802" on="1"/>
        <pt x="781" y="802" on="1"/>
        <pt x="781" y="652" on="1"/>
      </contour>
    </TTGlyph>
    <TTGlyph name="currency" xMin="105" yMin="-27" xMax="1371" yMax="1265">
      <contour>
        <pt x="1330" y="510" on="0"/>
        <pt x="1277" y="330" on="0"/>
        <pt x="1228" y="254" on="1"/>
        <pt x="1371" y="109" on="1"/>
        <pt x="1238" y="-27" on="1"/>
        <pt x="1102" y="111" on="1"/>
        <pt x="1025" y="48" on="0"/>
        <pt x="837" y="-20" on="0"/>
        <pt x="735" y="-20" on="1"/>
        <pt x="634" y="-20" on="0"/>
        <pt x="447" y="48" on="0"/>
        <pt x="370" y="110" on="1"/>
        <pt x="237" y="-26" on="1"/>
        <pt x="105" y="109" on="1"/>
        <pt x="244" y="250" on="1"/>
        <pt x="194" y="327" on="0"/>
        <pt x="140" y="509" on="0"/>
        <pt x="140" y="608" on="1"/>
        <pt x="140" y="711" on="0"/>
        <pt x="199" y="900" on="0"/>
        <pt x="253" y="978" on="1"/>
        <pt x="105" y="1129" on="1"/>
        <pt x="237" y="1264" on="1"/>
        <pt x="383" y="1115" on="1"/>
        <pt x="459" y="1172" on="0"/>
        <pt x="638" y="1234" on="0"/>
        <pt x="735" y="1234" on="1"/>
        <pt x="833" y="1234" on="0"/>
        <pt x="1015" y="1172" on="0"/>
        <pt x="1090" y="1114" on="1"/>
        <pt x="1238" y="1265" on="1"/>
        <pt x="1371" y="1129" on="1"/>
        <pt x="1220" y="975" on="1"/>
        <pt x="1273" y="897" on="0"/>
        <pt x="1330" y="710" on="0"/>
        <pt x="1330" y="608" on="1"/>
      </contour>
      <contour>
        <pt x="850" y="150" on="0"/>
        <pt x="1043" y="274" on="0"/>
        <pt x="1156" y="484" on="0"/>
        <pt x="1156" y="608" on="1"/>
        <pt x="1156" y="732" on="0"/>
        <pt x="1043" y="941" on="0"/>
        <pt x="850" y="1064" on="0"/>
        <pt x="735" y="1064" on="1"/>
        <pt x="620" y="1064" on="0"/>
        <pt x="427" y="941" on="0"/>
        <pt x="313" y="732" on="0"/>
        <pt x="313" y="608" on="1"/>
        <pt x="313" y="484" on="0"/>
        <pt x="427" y="274" on="0"/>
        <pt x="620" y="150" on="0"/>
        <pt x="735" y="150" on="1"/>
      </contour>
    </TTGlyph>
    <TTGlyph name="d" xMin="95" yMin="-20" xMax="1009" yMax="1536">
      <contour>
        <pt x="1009" y="1536" on="1"/>
        <pt x="1009" y="0" on="1"/>
        <pt x="838" y="0" on="1"/>
        <pt x="829" y="115" on="1"/>
        <pt x="719" y="-20" on="0"/>
        <pt x="521" y="-20" on="1"/>
        <pt x="396" y="-20" on="0"/>
        <pt x="202" y="122" on="0"/>
        <pt x="95" y="372" on="0"/>
        <pt x="95" y="529" on="1"/>
        <pt x="95" y="550" on="1"/>
        <pt x="95" y="714" on="0"/>
        <pt x="201" y="964" on="0"/>
        <pt x="395" y="1102" on="0"/>
        <pt x="523" y="1102" on="1"/>
        <pt x="712" y="1102" on="0"/>
        <pt x="822" y="975" on="1"/>
        <pt x="822" y="1536" on="1"/>
      </contour>
      <contour>
        <pt x="738" y="136" on="0"/>
        <pt x="822" y="292" on="1"/>
        <pt x="822" y="795" on="1"/>
        <pt x="739" y="947" on="0"/>
        <pt x="569" y="947" on="1"/>
        <pt x="472" y="947" on="0"/>
        <pt x="343" y="842" on="0"/>
        <pt x="282" y="662" on="0"/>
        <pt x="282" y="550" on="1"/>
        <pt x="282" y="529" on="1"/>
        <pt x="282" y="417" on="0"/>
        <pt x="343" y="240" on="0"/>
        <pt x="471" y="136" on="0"/>
        <pt x="567" y="136" on="1"/>
      </contour>
    </TTGlyph>
    <TTGlyph name="d.ss06" xMin="91" yMin="-20" xMax="1025" yMax="1536">
      <contour>
        <pt x="1025" y="1536" on="1"/>
        <pt x="1025" y="0" on="1"/>
        <pt x="863" y="0" on="1"/>
        <pt x="849" y="119" on="1"/>
        <pt x="738" y="-20" on="0"/>
        <pt x="537" y="-20" on="1"/>
        <pt x="412" y="-20" on="0"/>
        <pt x="208" y="123" on="0"/>
        <pt x="91" y="373" on="0"/>
        <pt x="91" y="529" on="1"/>
        <pt x="91" y="550" on="1"/>
        <pt x="91" y="712" on="0"/>
        <pt x="207" y="963" on="0"/>
        <pt x="411" y="1102" on="0"/>
        <pt x="539" y="1102" on="1"/>
        <pt x="728" y="1102" on="0"/>
        <pt x="839" y="974" on="1"/>
        <pt x="839" y="1536" on="1"/>
      </contour>
      <contour>
        <pt x="756" y="136" on="0"/>
        <pt x="839" y="293" on="1"/>
        <pt x="839" y="793" on="1"/>
        <pt x="801" y="865" on="0"/>
        <pt x="675" y="947" on="0"/>
        <pt x="585" y="947" on="1"/>
        <pt x="487" y="947" on="0"/>
        <pt x="349" y="843" on="0"/>
        <pt x="278" y="663" on="0"/>
        <pt x="278" y="550" on="1"/>
        <pt x="278" y="529" on="1"/>
        <pt x="278" y="419" on="0"/>
        <pt x="349" y="240" on="0"/>
        <pt x="487" y="136" on="0"/>
        <pt x="583" y="136" on="1"/>
      </contour>
    </TTGlyph>
    <TTGlyph name="degree" xMin="131" yMin="961" xMax="637" yMax="1477">
      <contour>
        <pt x="454" y="1477" on="0"/>
        <pt x="569" y="1406" on="0"/>
        <pt x="637" y="1287" on="0"/>
        <pt x="637" y="1217" on="1"/>
        <pt x="637" y="1147" on="0"/>
        <pt x="569" y="1029" on="0"/>
        <pt x="454" y="961" on="0"/>
        <pt x="386" y="961" on="1"/>
        <pt x="317" y="961" on="0"/>
        <pt x="200" y="1029" on="0"/>
        <pt x="131" y="1147" on="0"/>
        <pt x="131" y="1217" on="1"/>
        <pt x="131" y="1287" on="0"/>
        <pt x="200" y="1406" on="0"/>
        <pt x="318" y="1477" on="0"/>
        <pt x="386" y="1477" on="1"/>
      </contour>
      <contour>
        <pt x="440" y="1088" on="0"/>
        <pt x="512" y="1162" on="0"/>
        <pt x="512" y="1217" on="1"/>
        <pt x="512" y="1274" on="0"/>
        <pt x="440" y="1350" on="0"/>
        <pt x="386" y="1350" on="1"/>
        <pt x="332" y="1350" on="0"/>
        <pt x="256" y="1274" on="0"/>
        <pt x="256" y="1217" on="1"/>
        <pt x="256" y="1162" on="0"/>
        <pt x="332" y="1088" on="0"/>
        <pt x="386" y="1088" on="1"/>
      </contour>
    </TTGlyph>
    <TTGlyph name="dieresis" xMin="100" yMin="1266" xMax="751" yMax="1478">
      <contour>
        <pt x="262" y="1478" on="0"/>
        <pt x="320" y="1418" on="0"/>
        <pt x="320" y="1372" on="1"/>
        <pt x="320" y="1327" on="0"/>
        <pt x="262" y="1268" on="0"/>
        <pt x="210" y="1268" on="1"/>
        <pt x="158" y="1268" on="0"/>
        <pt x="100" y="1327" on="0"/>
        <pt x="100" y="1372" on="1"/>
        <pt x="100" y="1418" on="0"/>
        <pt x="158" y="1478" on="0"/>
        <pt x="210" y="1478" on="1"/>
      </contour>
      <contour>
        <pt x="692" y="1476" on="0"/>
        <pt x="751" y="1416" on="0"/>
        <pt x="751" y="1370" on="1"/>
        <pt x="751" y="1325" on="0"/>
        <pt x="692" y="1266" on="0"/>
        <pt x="640" y="1266" on="1"/>
        <pt x="588" y="1266" on="0"/>
        <pt x="531" y="1325" on="0"/>
        <pt x="531" y="1370" on="1"/>
        <pt x="531" y="1416" on="0"/>
        <pt x="588" y="1476" on="0"/>
        <pt x="640" y="1476" on="1"/>
      </contour>
    </TTGlyph>
    <TTGlyph name="divide" xMin="71" yMin="173" xMax="1069" yMax="1210">
      <contour>
        <pt x="631" y="1210" on="0"/>
        <pt x="692" y="1147" on="0"/>
        <pt x="692" y="1098" on="1"/>
        <pt x="692" y="1051" on="0"/>
        <pt x="631" y="989" on="0"/>
        <pt x="576" y="989" on="1"/>
        <pt x="521" y="989" on="0"/>
        <pt x="461" y="1050" on="0"/>
        <pt x="461" y="1098" on="1"/>
        <pt x="461" y="1147" on="0"/>
        <pt x="521" y="1210" on="0"/>
        <pt x="576" y="1210" on="1"/>
      </contour>
      <contour>
        <pt x="71" y="601" on="1"/>
        <pt x="71" y="784" on="1"/>
        <pt x="1069" y="784" on="1"/>
        <pt x="1069" y="601" on="1"/>
      </contour>
      <contour>
        <pt x="631" y="393" on="0"/>
        <pt x="692" y="331" on="0"/>
        <pt x="692" y="282" on="1"/>
        <pt x="692" y="235" on="0"/>
        <pt x="631" y="173" on="0"/>
        <pt x="576" y="173" on="1"/>
        <pt x="521" y="173" on="0"/>
        <pt x="461" y="234" on="0"/>
        <pt x="461" y="282" on="1"/>
        <pt x="461" y="331" on="0"/>
        <pt x="521" y="393" on="0"/>
        <pt x="576" y="393" on="1"/>
      </contour>
    </TTGlyph>
    <TTGlyph name="dollar" xMin="110" yMin="-208" xMax="1042" yMax="1692">
      <contour>
        <pt x="1042" y="206" on="0"/>
        <pt x="837" y="2" on="0"/>
        <pt x="656" y="-17" on="1"/>
        <pt x="656" y="-208" on="1"/>
        <pt x="507" y="-208" on="1"/>
        <pt x="507" y="-18" on="1"/>
        <pt x="397" y="-7" on="0"/>
        <pt x="219" y="92" on="0"/>
        <pt x="110" y="284" on="0"/>
        <pt x="110" y="429" on="1"/>
        <pt x="297" y="429" on="1"/>
        <pt x="297" y="274" on="0"/>
        <pt x="459" y="139" on="0"/>
        <pt x="575" y="139" on="1"/>
        <pt x="707" y="139" on="0"/>
        <pt x="855" y="266" on="0"/>
        <pt x="855" y="375" on="1"/>
        <pt x="855" y="467" on="0"/>
        <pt x="726" y="595" on="0"/>
        <pt x="574" y="646" on="1"/>
        <pt x="373" y="707" on="0"/>
        <pt x="166" y="911" on="0"/>
        <pt x="166" y="1080" on="1"/>
        <pt x="166" y="1190" on="0"/>
        <pt x="253" y="1358" on="0"/>
        <pt x="414" y="1460" on="0"/>
        <pt x="524" y="1473" on="1"/>
        <pt x="524" y="1692" on="1"/>
        <pt x="675" y="1692" on="1"/>
        <pt x="675" y="1472" on="1"/>
        <pt x="844" y="1449" on="0"/>
        <pt x="1029" y="1211" on="0"/>
        <pt x="1029" y="1009" on="1"/>
        <pt x="843" y="1009" on="1"/>
        <pt x="843" y="1099" on="0"/>
        <pt x="786" y="1238" on="0"/>
        <pt x="675" y="1317" on="0"/>
        <pt x="597" y="1317" on="1"/>
        <pt x="476" y="1317" on="0"/>
        <pt x="353" y="1191" on="0"/>
        <pt x="353" y="1083" on="1"/>
        <pt x="353" y="1017" on="0"/>
        <pt x="405" y="922" on="0"/>
        <pt x="529" y="846" on="0"/>
        <pt x="639" y="809" on="1"/>
        <pt x="774" y="765" on="0"/>
        <pt x="950" y="654" on="0"/>
        <pt x="1042" y="492" on="0"/>
        <pt x="1042" y="377" on="1"/>
      </contour>
    </TTGlyph>
    <TTGlyph name="dollar.smcp" xMin="67" yMin="-237" xMax="990" yMax="1395">
      <contour>
        <pt x="990" y="214" on="0"/>
        <pt x="901" y="80" on="0"/>
        <pt x="737" y="-2" on="0"/>
        <pt x="626" y="-12" on="1"/>
        <pt x="626" y="-237" on="1"/>
        <pt x="476" y="-237" on="1"/>
        <pt x="476" y="-12" on="1"/>
        <pt x="366" y="-1" on="0"/>
        <pt x="180" y="88" on="0"/>
        <pt x="67" y="243" on="0"/>
        <pt x="67" y="349" on="1"/>
        <pt x="255" y="349" on="1"/>
        <pt x="255" y="239" on="0"/>
        <pt x="418" y="133" on="0"/>
        <pt x="548" y="133" on="1"/>
        <pt x="670" y="133" on="0"/>
        <pt x="802" y="223" on="0"/>
        <pt x="802" y="298" on="1"/>
        <pt x="802" y="350" on="0"/>
        <pt x="755" y="422" on="0"/>
        <pt x="638" y="479" on="0"/>
        <pt x="531" y="505" on="1"/>
        <pt x="324" y="556" on="0"/>
        <pt x="107" y="723" on="0"/>
        <pt x="107" y="861" on="1"/>
        <pt x="107" y="946" on="0"/>
        <pt x="198" y="1082" on="0"/>
        <pt x="365" y="1168" on="0"/>
        <pt x="476" y="1178" on="1"/>
        <pt x="476" y="1395" on="1"/>
        <pt x="626" y="1395" on="1"/>
        <pt x="626" y="1176" on="1"/>
        <pt x="738" y="1162" on="0"/>
        <pt x="901" y="1063" on="0"/>
        <pt x="987" y="914" on="0"/>
        <pt x="987" y="826" on="1"/>
        <pt x="800" y="826" on="1"/>
        <pt x="800" y="919" on="0"/>
        <pt x="668" y="1031" on="0"/>
        <pt x="540" y="1031" on="1"/>
        <pt x="420" y="1031" on="0"/>
        <pt x="294" y="938" on="0"/>
        <pt x="294" y="862" on="1"/>
        <pt x="294" y="816" on="0"/>
        <pt x="352" y="747" on="0"/>
        <pt x="479" y="691" on="0"/>
        <pt x="587" y="664" on="1"/>
        <pt x="788" y="613" on="0"/>
        <pt x="990" y="439" on="0"/>
        <pt x="990" y="300" on="1"/>
      </contour>
    </TTGlyph>
    <TTGlyph name="dotlessi" xMin="156" yMin="0" xMax="342" yMax="1082">
      <contour>
        <pt x="156" y="0" on="1"/>
        <pt x="156" y="1082" on="1"/>
        <pt x="342" y="1082" on="1"/>
        <pt x="342" y="0" on="1"/>
      </contour>
    </TTGlyph>
    <TTGlyph name="e" xMin="93" yMin="-20" xMax="1012" yMax="1102">
      <contour>
        <pt x="1012" y="490" on="1"/>
        <pt x="280" y="490" on="1"/>
        <pt x="283" y="389" on="0"/>
        <pt x="361" y="225" on="0"/>
        <pt x="504" y="130" on="0"/>
        <pt x="600" y="130" on="1"/>
        <pt x="694" y="130" on="0"/>
        <pt x="831" y="206" on="0"/>
        <pt x="885" y="277" on="1"/>
        <pt x="998" y="189" on="1"/>
        <pt x="938" y="97" on="0"/>
        <pt x="738" y="-20" on="0"/>
        <pt x="590" y="-20" on="1"/>
        <pt x="442" y="-20" on="0"/>
        <pt x="216" y="114" on="0"/>
        <pt x="93" y="352" on="0"/>
        <pt x="93" y="503" on="1"/>
        <pt x="93" y="546" on="1"/>
        <pt x="93" y="715" on="0"/>
        <pt x="225" y="968" on="0"/>
        <pt x="442" y="1102" on="0"/>
        <pt x="566" y="1102" on="1"/>
        <pt x="717" y="1102" on="0"/>
        <pt x="916" y="967" on="0"/>
        <pt x="1012" y="729" on="0"/>
        <pt x="1012" y="573" on="1"/>
      </contour>
      <contour>
        <pt x="825" y="654" on="1"/>
        <pt x="817" y="781" on="0"/>
        <pt x="696" y="952" on="0"/>
        <pt x="566" y="952" on="1"/>
        <pt x="455" y="952" on="0"/>
        <pt x="305" y="788" on="0"/>
        <pt x="286" y="640" on="1"/>
        <pt x="825" y="640" on="1"/>
      </contour>
    </TTGlyph>
    <TTGlyph name="e.ss07" xMin="93" yMin="-20" xMax="1012" yMax="1102">
      <contour>
        <pt x="1012" y="490" on="1"/>
        <pt x="281" y="490" on="1"/>
        <pt x="287" y="388" on="0"/>
        <pt x="375" y="225" on="0"/>
        <pt x="531" y="130" on="0"/>
        <pt x="636" y="130" on="1"/>
        <pt x="721" y="130" on="0"/>
        <pt x="862" y="180" on="0"/>
        <pt x="915" y="221" on="1"/>
        <pt x="972" y="95" on="1"/>
        <pt x="918" y="47" on="0"/>
        <pt x="747" y="-20" on="0"/>
        <pt x="627" y="-20" on="1"/>
        <pt x="468" y="-20" on="0"/>
        <pt x="225" y="118" on="0"/>
        <pt x="93" y="363" on="0"/>
        <pt x="93" y="520" on="1"/>
        <pt x="93" y="564" on="1"/>
        <pt x="93" y="728" on="0"/>
        <pt x="225" y="973" on="0"/>
        <pt x="442" y="1102" on="0"/>
        <pt x="566" y="1102" on="1"/>
        <pt x="717" y="1102" on="0"/>
        <pt x="916" y="977" on="0"/>
        <pt x="1012" y="756" on="0"/>
        <pt x="1012" y="611" on="1"/>
      </contour>
      <contour>
        <pt x="825" y="666" on="1"/>
        <pt x="825" y="744" on="0"/>
        <pt x="772" y="873" on="0"/>
        <pt x="656" y="952" on="0"/>
        <pt x="566" y="952" on="1"/>
        <pt x="491" y="952" on="0"/>
        <pt x="371" y="879" on="0"/>
        <pt x="295" y="739" on="0"/>
        <pt x="284" y="640" on="1"/>
        <pt x="825" y="640" on="1"/>
      </contour>
    </TTGlyph>
    <TTGlyph name="eacute" xMin="93" yMin="-20" xMax="1012" yMax="1536">
      <component glyphName=".ttfautohint" x="93" y="0" flags="0x0"/>
      <component glyphName="e" x="0" y="0" flags="0x0"/>
      <component glyphName="acutecomb" x="1131" y="0" flags="0x0"/>
    </TTGlyph>
    <TTGlyph name="ecircumflex" xMin="93" yMin="-20" xMax="1012" yMax="1536">
      <component glyphName=".ttfautohint" x="93" y="0" flags="0x0"/>
      <component glyphName="e" x="0" y="0" flags="0x0"/>
      <component glyphName="circumflex" x="93" y="0" flags="0x0"/>
    </TTGlyph>
    <TTGlyph name="edieresis" xMin="93" yMin="-20" xMax="1012" yMax="1478">
      <component glyphName=".ttfautohint" x="93" y="0" flags="0x0"/>
      <component glyphName="e" x="0" y="0" flags="0x0"/>
      <component glyphName="dieresis" x="142" y="0" flags="0x0"/>
    </TTGlyph>
    <TTGlyph name="egrave" xMin="93" yMin="-20" xMax="1012" yMax="1536">
      <component glyphName=".ttfautohint" x="93" y="0" flags="0x0"/>
      <component glyphName="e" x="0" y="0" flags="0x0"/>
      <component glyphName="gravecomb" x="1094" y="0" flags="0x0"/>
    </TTGlyph>
    <TTGlyph name="eight" xMin="113" yMin="-20" xMax="1039" yMax="1476">
      <contour>
        <pt x="906" y="701" on="0"/>
        <pt x="1039" y="513" on="0"/>
        <pt x="1039" y="394" on="1"/>
        <pt x="1039" y="265" on="0"/>
        <pt x="918" y="77" on="0"/>
        <pt x="708" y="-20" on="0"/>
        <pt x="576" y="-20" on="1"/>
        <pt x="444" y="-20" on="0"/>
        <pt x="233" y="77" on="0"/>
        <pt x="113" y="264" on="0"/>
        <pt x="113" y="394" on="1"/>
        <pt x="113" y="514" on="0"/>
        <pt x="243" y="703" on="0"/>
        <pt x="357" y="751" on="1"/>
        <pt x="259" y="798" on="0"/>
        <pt x="146" y="970" on="0"/>
        <pt x="146" y="1077" on="1"/>
        <pt x="146" y="1201" on="0"/>
        <pt x="256" y="1382" on="0"/>
        <pt x="451" y="1476" on="0"/>
        <pt x="576" y="1476" on="1"/>
        <pt x="701" y="1476" on="0"/>
        <pt x="895" y="1381" on="0"/>
        <pt x="1005" y="1201" on="0"/>
        <pt x="1005" y="1077" on="1"/>
        <pt x="1005" y="971" on="0"/>
        <pt x="890" y="798" on="0"/>
        <pt x="791" y="750" on="1"/>
      </contour>
      <contour>
        <pt x="504" y="1326" on="0"/>
        <pt x="394" y="1264" on="0"/>
        <pt x="333" y="1150" on="0"/>
        <pt x="333" y="1074" on="1"/>
        <pt x="333" y="999" on="0"/>
        <pt x="393" y="887" on="0"/>
        <pt x="504" y="825" on="0"/>
        <pt x="576" y="825" on="1"/>
        <pt x="648" y="825" on="0"/>
        <pt x="758" y="887" on="0"/>
        <pt x="818" y="999" on="0"/>
        <pt x="818" y="1074" on="1"/>
        <pt x="818" y="1146" on="0"/>
        <pt x="757" y="1261" on="0"/>
        <pt x="647" y="1326" on="0"/>
        <pt x="576" y="1326" on="1"/>
      </contour>
      <contour>
        <pt x="705" y="130" on="0"/>
        <pt x="852" y="272" on="0"/>
        <pt x="852" y="398" on="1"/>
        <pt x="852" y="478" on="0"/>
        <pt x="782" y="604" on="0"/>
        <pt x="655" y="674" on="0"/>
        <pt x="574" y="674" on="1"/>
        <pt x="491" y="674" on="0"/>
        <pt x="367" y="604" on="0"/>
        <pt x="300" y="479" on="0"/>
        <pt x="300" y="398" on="1"/>
        <pt x="300" y="272" on="0"/>
        <pt x="447" y="130" on="0"/>
        <pt x="576" y="130" on="1"/>
      </contour>
    </TTGlyph>
    <TTGlyph name="eight.frac" xMin="79" yMin="653" xMax="672" yMax="1464">
      <component glyphName=".ttfautohint" x="79" y="653" flags="0x0"/>
      <component glyphName="eight.sup" x="0" y="664" flags="0x4"/>
    </TTGlyph>
    <TTGlyph name="eight.smcp" xMin="97" yMin="-16" xMax="942" yMax="1181">
      <contour>
        <pt x="828" y="560" on="0"/>
        <pt x="942" y="413" on="0"/>
        <pt x="942" y="317" on="1"/>
        <pt x="942" y="212" on="0"/>
        <pt x="831" y="61" on="0"/>
        <pt x="640" y="-16" on="0"/>
        <pt x="520" y="-16" on="1"/>
        <pt x="399" y="-16" on="0"/>
        <pt x="207" y="61" on="0"/>
        <pt x="97" y="211" on="0"/>
        <pt x="97" y="317" on="1"/>
        <pt x="97" y="413" on="0"/>
        <pt x="210" y="561" on="0"/>
        <pt x="308" y="601" on="1"/>
        <pt x="223" y="640" on="0"/>
        <pt x="127" y="774" on="0"/>
        <pt x="127" y="859" on="1"/>
        <pt x="127" y="960" on="0"/>
        <pt x="227" y="1105" on="0"/>
        <pt x="404" y="1181" on="0"/>
        <pt x="518" y="1181" on="1"/>
        <pt x="632" y="1181" on="0"/>
        <pt x="811" y="1105" on="0"/>
        <pt x="912" y="960" on="0"/>
        <pt x="912" y="859" on="1"/>
        <pt x="912" y="774" on="0"/>
        <pt x="814" y="639" on="0"/>
        <pt x="729" y="600" on="1"/>
      </contour>
      <contour>
        <pt x="425" y="1030" on="0"/>
        <pt x="315" y="934" on="0"/>
        <pt x="315" y="852" on="1"/>
        <pt x="315" y="770" on="0"/>
        <pt x="426" y="673" on="0"/>
        <pt x="520" y="673" on="1"/>
        <pt x="613" y="673" on="0"/>
        <pt x="726" y="771" on="0"/>
        <pt x="726" y="852" on="1"/>
        <pt x="726" y="903" on="0"/>
        <pt x="673" y="985" on="0"/>
        <pt x="579" y="1030" on="0"/>
        <pt x="518" y="1030" on="1"/>
      </contour>
      <contour>
        <pt x="627" y="134" on="0"/>
        <pt x="755" y="237" on="0"/>
        <pt x="755" y="327" on="1"/>
        <pt x="755" y="385" on="0"/>
        <pt x="695" y="474" on="0"/>
        <pt x="588" y="523" on="0"/>
        <pt x="518" y="523" on="1"/>
        <pt x="447" y="523" on="0"/>
        <pt x="341" y="474" on="0"/>
        <pt x="284" y="385" on="0"/>
        <pt x="284" y="327" on="1"/>
        <pt x="284" y="237" on="0"/>
        <pt x="411" y="134" on="0"/>
        <pt x="520" y="134" on="1"/>
      </contour>
    </TTGlyph>
    <TTGlyph name="eight.sup" xMin="79" yMin="-11" xMax="672" yMax="800">
      <contour>
        <pt x="598" y="379" on="0"/>
        <pt x="672" y="281" on="0"/>
        <pt x="672" y="216" on="1"/>
        <pt x="672" y="143" on="0"/>
        <pt x="595" y="41" on="0"/>
        <pt x="461" y="-11" on="0"/>
        <pt x="376" y="-11" on="1"/>
        <pt x="291" y="-11" on="0"/>
        <pt x="156" y="41" on="0"/>
        <pt x="79" y="143" on="0"/>
        <pt x="79" y="216" on="1"/>
        <pt x="79" y="281" on="0"/>
        <pt x="153" y="379" on="0"/>
        <pt x="218" y="406" on="1"/>
        <pt x="162" y="433" on="0"/>
        <pt x="99" y="522" on="0"/>
        <pt x="99" y="580" on="1"/>
        <pt x="99" y="684" on="0"/>
        <pt x="251" y="800" on="0"/>
        <pt x="375" y="800" on="1"/>
        <pt x="456" y="800" on="0"/>
        <pt x="581" y="749" on="0"/>
        <pt x="652" y="649" on="0"/>
        <pt x="652" y="580" on="1"/>
        <pt x="652" y="522" on="0"/>
        <pt x="589" y="433" on="0"/>
        <pt x="533" y="406" on="1"/>
      </contour>
      <contour>
        <pt x="320" y="673" on="0"/>
        <pt x="257" y="618" on="0"/>
        <pt x="257" y="571" on="1"/>
        <pt x="257" y="524" on="0"/>
        <pt x="321" y="468" on="0"/>
        <pt x="376" y="468" on="1"/>
        <pt x="430" y="468" on="0"/>
        <pt x="494" y="524" on="0"/>
        <pt x="494" y="571" on="1"/>
        <pt x="494" y="617" on="0"/>
        <pt x="429" y="673" on="0"/>
        <pt x="375" y="673" on="1"/>
      </contour>
      <contour>
        <pt x="438" y="116" on="0"/>
        <pt x="514" y="176" on="0"/>
        <pt x="514" y="228" on="1"/>
        <pt x="514" y="279" on="0"/>
        <pt x="437" y="339" on="0"/>
        <pt x="375" y="339" on="1"/>
        <pt x="312" y="339" on="0"/>
        <pt x="238" y="279" on="0"/>
        <pt x="238" y="228" on="1"/>
        <pt x="238" y="176" on="0"/>
        <pt x="313" y="116" on="0"/>
        <pt x="376" y="116" on="1"/>
      </contour>
    </TTGlyph>
    <TTGlyph name="eight.tnum" xMin="113" yMin="-20" xMax="1039" yMax="1476">
      <component glyphName=".ttfautohint" x="113" y="0" flags="0x0"/>
      <component glyphName="eight" x="0" y="0" flags="0x0"/>
    </TTGlyph>
    <TTGlyph name="ellipsis" xMin="147" yMin="-11" xMax="1232" yMax="209">
      <component glyphName=".ttfautohint" x="147" y="0" flags="0x0"/>
      <component glyphName="period" x="3" y="0" flags="0x0"/>
      <component glyphName="period" x="441" y="0" flags="0x0"/>
      <component glyphName="period" x="857" y="0" flags="0x0"/>
    </TTGlyph>
    <TTGlyph name="emdash" xMin="144" yMin="652" xMax="1480" yMax="802">
      <component glyphName=".ttfautohint" x="144" y="652" flags="0x0"/>
      <component glyphName="minus" x="-125" y="0" scalex="1.6" scaley="1.0" flags="0x0"/>
    </TTGlyph>
    <TTGlyph name="endash" xMin="162" yMin="652" xMax="1164" yMax="802">
      <component glyphName=".ttfautohint" x="162" y="652" flags="0x0"/>
      <component glyphName="minus" x="-40" y="0" scalex="1.2" scaley="1.0" flags="0x0"/>
    </TTGlyph>
    <TTGlyph name="equal" xMin="152" yMin="400" xMax="986" yMax="974">
      <contour>
        <pt x="152" y="815" on="1"/>
        <pt x="152" y="974" on="1"/>
        <pt x="986" y="974" on="1"/>
        <pt x="986" y="815" on="1"/>
      </contour>
      <contour>
        <pt x="152" y="400" on="1"/>
        <pt x="152" y="559" on="1"/>
        <pt x="986" y="559" on="1"/>
        <pt x="986" y="400" on="1"/>
      </contour>
    </TTGlyph>
    <TTGlyph name="eth" xMin="126" yMin="-20" xMax="1070" yMax="1581">
      <contour>
        <pt x="940" y="1176" on="0"/>
        <pt x="1070" y="836" on="0"/>
        <pt x="1070" y="633" on="1"/>
        <pt x="1070" y="535" on="1"/>
        <pt x="1070" y="373" on="0"/>
        <pt x="950" y="120" on="0"/>
        <pt x="736" y="-20" on="0"/>
        <pt x="602" y="-20" on="1"/>
        <pt x="464" y="-20" on="0"/>
        <pt x="247" y="110" on="0"/>
        <pt x="126" y="333" on="0"/>
        <pt x="126" y="468" on="1"/>
        <pt x="126" y="619" on="0"/>
        <pt x="242" y="851" on="0"/>
        <pt x="446" y="978" on="0"/>
        <pt x="574" y="978" on="1"/>
        <pt x="656" y="978" on="0"/>
        <pt x="801" y="918" on="0"/>
        <pt x="856" y="865" on="1"/>
        <pt x="808" y="1062" on="0"/>
        <pt x="668" y="1200" on="1"/>
        <pt x="451" y="1053" on="1"/>
        <pt x="377" y="1152" on="1"/>
        <pt x="569" y="1282" on="1"/>
        <pt x="438" y="1374" on="0"/>
        <pt x="254" y="1422" on="1"/>
        <pt x="312" y="1581" on="1"/>
        <pt x="551" y="1526" on="0"/>
        <pt x="726" y="1388" on="1"/>
        <pt x="915" y="1516" on="1"/>
        <pt x="988" y="1417" on="1"/>
        <pt x="820" y="1303" on="1"/>
      </contour>
      <contour>
        <pt x="883" y="635" on="1"/>
        <pt x="882" y="692" on="1"/>
        <pt x="851" y="750" on="0"/>
        <pt x="715" y="827" on="0"/>
        <pt x="618" y="827" on="1"/>
        <pt x="522" y="827" on="0"/>
        <pt x="385" y="740" on="0"/>
        <pt x="313" y="578" on="0"/>
        <pt x="313" y="468" on="1"/>
        <pt x="313" y="383" on="0"/>
        <pt x="383" y="228" on="0"/>
        <pt x="516" y="131" on="0"/>
        <pt x="606" y="131" on="1"/>
        <pt x="690" y="131" on="0"/>
        <pt x="815" y="236" on="0"/>
        <pt x="883" y="419" on="0"/>
        <pt x="883" y="535" on="1"/>
      </contour>
    </TTGlyph>
    <TTGlyph name="exclam" xMin="161" yMin="-11" xMax="381" yMax="1456">
      <contour>
        <pt x="181" y="411" on="1"/>
        <pt x="167" y="1456" on="1"/>
        <pt x="363" y="1456" on="1"/>
        <pt x="349" y="411" on="1"/>
      </contour>
      <contour>
        <pt x="322" y="199" on="0"/>
        <pt x="381" y="139" on="0"/>
        <pt x="381" y="93" on="1"/>
        <pt x="381" y="47" on="0"/>
        <pt x="322" y="-11" on="0"/>
        <pt x="270" y="-11" on="1"/>
        <pt x="218" y="-11" on="0"/>
        <pt x="161" y="47" on="0"/>
        <pt x="161" y="93" on="1"/>
        <pt x="161" y="139" on="0"/>
        <pt x="218" y="199" on="0"/>
        <pt x="270" y="199" on="1"/>
      </contour>
    </TTGlyph>
    <TTGlyph name="exclamdown" xMin="139" yMin="-361" xMax="359" yMax="1101">
      <contour>
        <pt x="198" y="891" on="0"/>
        <pt x="139" y="951" on="0"/>
        <pt x="139" y="997" on="1"/>
        <pt x="139" y="1042" on="0"/>
        <pt x="198" y="1101" on="0"/>
        <pt x="250" y="1101" on="1"/>
        <pt x="302" y="1101" on="0"/>
        <pt x="359" y="1042" on="0"/>
        <pt x="359" y="997" on="1"/>
        <pt x="359" y="951" on="0"/>
        <pt x="302" y="891" on="0"/>
        <pt x="250" y="891" on="1"/>
      </contour>
      <contour>
        <pt x="339" y="684" on="1"/>
        <pt x="353" y="-361" on="1"/>
        <pt x="157" y="-361" on="1"/>
        <pt x="171" y="684" on="1"/>
      </contour>
    </TTGlyph>
    <TTGlyph name="f" xMin="61" yMin="0" xMax="715" yMax="1557">
      <contour>
        <pt x="516" y="1400" on="0"/>
        <pt x="418" y="1295" on="0"/>
        <pt x="418" y="1197" on="1"/>
        <pt x="418" y="1082" on="1"/>
        <pt x="648" y="1082" on="1"/>
        <pt x="648" y="941" on="1"/>
        <pt x="418" y="941" on="1"/>
        <pt x="418" y="0" on="1"/>
        <pt x="231" y="0" on="1"/>
        <pt x="231" y="941" on="1"/>
        <pt x="61" y="941" on="1"/>
        <pt x="61" y="1082" on="1"/>
        <pt x="231" y="1082" on="1"/>
        <pt x="231" y="1197" on="1"/>
        <pt x="231" y="1370" on="0"/>
        <pt x="420" y="1557" on="0"/>
        <pt x="588" y="1557" on="1"/>
        <pt x="649" y="1557" on="0"/>
        <pt x="715" y="1541" on="1"/>
        <pt x="705" y="1392" on="1"/>
        <pt x="660" y="1400" on="0"/>
        <pt x="605" y="1400" on="1"/>
      </contour>
    </TTGlyph>
    <TTGlyph name="f_f" xMin="61" yMin="0" xMax="1427" yMax="1557">
      <component glyphName=".ttfautohint" x="61" y="0" flags="0x0"/>
      <component glyphName="f" x="0" y="0" flags="0x0"/>
      <component glyphName="f" x="712" y="0" flags="0x0"/>
    </TTGlyph>
    <TTGlyph name="f_f_i" xMin="61" yMin="0" xMax="1588" yMax="1557">
      <contour>
        <pt x="1109" y="1392" on="0"/>
        <pt x="1003" y="1287" on="0"/>
        <pt x="1003" y="1177" on="1"/>
        <pt x="1003" y="1082" on="1"/>
        <pt x="1224" y="1082" on="1"/>
        <pt x="1224" y="941" on="1"/>
        <pt x="1003" y="941" on="1"/>
        <pt x="1003" y="0" on="1"/>
        <pt x="816" y="0" on="1"/>
        <pt x="816" y="941" on="1"/>
        <pt x="418" y="941" on="1"/>
        <pt x="418" y="0" on="1"/>
        <pt x="231" y="0" on="1"/>
        <pt x="231" y="941" on="1"/>
        <pt x="61" y="941" on="1"/>
        <pt x="61" y="1082" on="1"/>
        <pt x="231" y="1082" on="1"/>
        <pt x="231" y="1197" on="1"/>
        <pt x="231" y="1370" on="0"/>
        <pt x="420" y="1557" on="0"/>
        <pt x="588" y="1557" on="1"/>
        <pt x="649" y="1557" on="0"/>
        <pt x="715" y="1541" on="1"/>
        <pt x="705" y="1392" on="1"/>
        <pt x="660" y="1400" on="0"/>
        <pt x="605" y="1400" on="1"/>
        <pt x="516" y="1400" on="0"/>
        <pt x="418" y="1295" on="0"/>
        <pt x="418" y="1197" on="1"/>
        <pt x="418" y="1082" on="1"/>
        <pt x="816" y="1082" on="1"/>
        <pt x="816" y="1177" on="1"/>
        <pt x="816" y="1298" on="0"/>
        <pt x="912" y="1469" on="0"/>
        <pt x="1090" y="1557" on="0"/>
        <pt x="1213" y="1557" on="1"/>
        <pt x="1280" y="1557" on="0"/>
        <pt x="1413" y="1526" on="0"/>
        <pt x="1497" y="1496" on="1"/>
        <pt x="1465" y="1342" on="1"/>
        <pt x="1340" y="1392" on="0"/>
        <pt x="1227" y="1392" on="1"/>
      </contour>
      <contour>
        <pt x="1588" y="1082" on="1"/>
        <pt x="1588" y="0" on="1"/>
        <pt x="1401" y="0" on="1"/>
        <pt x="1401" y="1082" on="1"/>
      </contour>
    </TTGlyph>
    <TTGlyph name="f_f_l" xMin="61" yMin="0" xMax="1588" yMax="1557">
      <contour>
        <pt x="1247" y="1557" on="0"/>
        <pt x="1451" y="1524" on="0"/>
        <pt x="1588" y="1496" on="1"/>
        <pt x="1588" y="0" on="1"/>
        <pt x="1401" y="0" on="1"/>
        <pt x="1401" y="1381" on="1"/>
        <pt x="1273" y="1400" on="0"/>
        <pt x="1202" y="1400" on="1"/>
        <pt x="1105" y="1400" on="0"/>
        <pt x="1003" y="1296" on="0"/>
        <pt x="1003" y="1197" on="1"/>
        <pt x="1003" y="1082" on="1"/>
        <pt x="1233" y="1082" on="1"/>
        <pt x="1233" y="941" on="1"/>
        <pt x="1003" y="941" on="1"/>
        <pt x="1003" y="0" on="1"/>
        <pt x="816" y="0" on="1"/>
        <pt x="816" y="941" on="1"/>
        <pt x="418" y="941" on="1"/>
        <pt x="418" y="0" on="1"/>
        <pt x="231" y="0" on="1"/>
        <pt x="231" y="941" on="1"/>
        <pt x="61" y="941" on="1"/>
        <pt x="61" y="1082" on="1"/>
        <pt x="231" y="1082" on="1"/>
        <pt x="231" y="1197" on="1"/>
        <pt x="231" y="1370" on="0"/>
        <pt x="420" y="1557" on="0"/>
        <pt x="588" y="1557" on="1"/>
        <pt x="649" y="1557" on="0"/>
        <pt x="715" y="1541" on="1"/>
        <pt x="705" y="1392" on="1"/>
        <pt x="660" y="1400" on="0"/>
        <pt x="605" y="1400" on="1"/>
        <pt x="516" y="1400" on="0"/>
        <pt x="418" y="1295" on="0"/>
        <pt x="418" y="1197" on="1"/>
        <pt x="418" y="1082" on="1"/>
        <pt x="816" y="1082" on="1"/>
        <pt x="816" y="1197" on="1"/>
        <pt x="816" y="1370" on="0"/>
        <pt x="1010" y="1557" on="0"/>
        <pt x="1188" y="1557" on="1"/>
      </contour>
    </TTGlyph>
    <TTGlyph name="f_l" xMin="61" yMin="0" xMax="1003" yMax="1557">
      <contour>
        <pt x="662" y="1557" on="0"/>
        <pt x="866" y="1524" on="0"/>
        <pt x="1003" y="1496" on="1"/>
        <pt x="1003" y="0" on="1"/>
        <pt x="816" y="0" on="1"/>
        <pt x="816" y="1381" on="1"/>
        <pt x="688" y="1400" on="0"/>
        <pt x="617" y="1400" on="1"/>
        <pt x="520" y="1400" on="0"/>
        <pt x="418" y="1296" on="0"/>
        <pt x="418" y="1197" on="1"/>
        <pt x="418" y="1082" on="1"/>
        <pt x="648" y="1082" on="1"/>
        <pt x="648" y="941" on="1"/>
        <pt x="418" y="941" on="1"/>
        <pt x="418" y="0" on="1"/>
        <pt x="231" y="0" on="1"/>
        <pt x="231" y="941" on="1"/>
        <pt x="61" y="941" on="1"/>
        <pt x="61" y="1082" on="1"/>
        <pt x="231" y="1082" on="1"/>
        <pt x="231" y="1197" on="1"/>
        <pt x="231" y="1371" on="0"/>
        <pt x="425" y="1557" on="0"/>
        <pt x="603" y="1557" on="1"/>
      </contour>
    </TTGlyph>
    <TTGlyph name="fi" xMin="31" yMin="0" xMax="974" yMax="1557">
      <contour>
        <pt x="495" y="1392" on="0"/>
        <pt x="389" y="1287" on="0"/>
        <pt x="389" y="1177" on="1"/>
        <pt x="389" y="1082" on="1"/>
        <pt x="609" y="1082" on="1"/>
        <pt x="609" y="941" on="1"/>
        <pt x="389" y="941" on="1"/>
        <pt x="389" y="0" on="1"/>
        <pt x="202" y="0" on="1"/>
        <pt x="202" y="941" on="1"/>
        <pt x="31" y="941" on="1"/>
        <pt x="31" y="1082" on="1"/>
        <pt x="202" y="1082" on="1"/>
        <pt x="202" y="1177" on="1"/>
        <pt x="202" y="1298" on="0"/>
        <pt x="297" y="1469" on="0"/>
        <pt x="476" y="1557" on="0"/>
        <pt x="599" y="1557" on="1"/>
        <pt x="666" y="1557" on="0"/>
        <pt x="799" y="1526" on="0"/>
        <pt x="882" y="1496" on="1"/>
        <pt x="851" y="1342" on="1"/>
        <pt x="726" y="1392" on="0"/>
        <pt x="613" y="1392" on="1"/>
      </contour>
      <contour>
        <pt x="974" y="1082" on="1"/>
        <pt x="974" y="0" on="1"/>
        <pt x="787" y="0" on="1"/>
        <pt x="787" y="1082" on="1"/>
      </contour>
    </TTGlyph>
    <TTGlyph name="five" xMin="154" yMin="-20" xMax="1070" yMax="1456">
      <contour>
        <pt x="280" y="1456" on="1"/>
        <pt x="1027" y="1456" on="1"/>
        <pt x="1027" y="1287" on="1"/>
        <pt x="438" y="1287" on="1"/>
        <pt x="395" y="888" on="1"/>
        <pt x="440" y="915" on="0"/>
        <pt x="563" y="951" on="0"/>
        <pt x="637" y="951" on="1"/>
        <pt x="770" y="951" on="0"/>
        <pt x="965" y="832" on="0"/>
        <pt x="1070" y="612" on="0"/>
        <pt x="1070" y="464" on="1"/>
        <pt x="1070" y="322" on="0"/>
        <pt x="967" y="103" on="0"/>
        <pt x="760" y="-20" on="0"/>
        <pt x="609" y="-20" on="1"/>
        <pt x="488" y="-20" on="0"/>
        <pt x="291" y="70" on="0"/>
        <pt x="166" y="251" on="0"/>
        <pt x="154" y="383" on="1"/>
        <pt x="331" y="383" on="1"/>
        <pt x="348" y="259" on="0"/>
        <pt x="491" y="130" on="0"/>
        <pt x="609" y="130" on="1"/>
        <pt x="695" y="130" on="0"/>
        <pt x="818" y="211" on="0"/>
        <pt x="883" y="360" on="0"/>
        <pt x="883" y="462" on="1"/>
        <pt x="883" y="555" on="0"/>
        <pt x="815" y="702" on="0"/>
        <pt x="684" y="786" on="0"/>
        <pt x="593" y="786" on="1"/>
        <pt x="534" y="786" on="0"/>
        <pt x="453" y="765" on="0"/>
        <pt x="395" y="727" on="0"/>
        <pt x="356" y="693" on="1"/>
        <pt x="206" y="731" on="1"/>
      </contour>
    </TTGlyph>
    <TTGlyph name="five.frac" xMin="91" yMin="653" xMax="680" yMax="1453">
      <component glyphName=".ttfautohint" x="91" y="653" flags="0x0"/>
      <component glyphName="five.sup" x="0" y="664" flags="0x4"/>
    </TTGlyph>
    <TTGlyph name="five.smcp" xMin="128" yMin="-16" xMax="966" yMax="1165">
      <contour>
        <pt x="233" y="1165" on="1"/>
        <pt x="913" y="1165" on="1"/>
        <pt x="913" y="1004" on="1"/>
        <pt x="390" y="1004" on="1"/>
        <pt x="353" y="714" on="1"/>
        <pt x="456" y="762" on="0"/>
        <pt x="567" y="762" on="1"/>
        <pt x="688" y="762" on="0"/>
        <pt x="868" y="668" on="0"/>
        <pt x="966" y="492" on="0"/>
        <pt x="966" y="373" on="1"/>
        <pt x="966" y="262" on="0"/>
        <pt x="874" y="86" on="0"/>
        <pt x="685" y="-16" on="0"/>
        <pt x="547" y="-16" on="1"/>
        <pt x="439" y="-16" on="0"/>
        <pt x="255" y="59" on="0"/>
        <pt x="137" y="208" on="0"/>
        <pt x="128" y="312" on="1"/>
        <pt x="308" y="312" on="1"/>
        <pt x="320" y="224" on="0"/>
        <pt x="447" y="134" on="0"/>
        <pt x="547" y="134" on="1"/>
        <pt x="660" y="134" on="0"/>
        <pt x="779" y="266" on="0"/>
        <pt x="779" y="378" on="1"/>
        <pt x="779" y="446" on="0"/>
        <pt x="718" y="553" on="0"/>
        <pt x="603" y="613" on="0"/>
        <pt x="524" y="613" on="1"/>
        <pt x="471" y="613" on="0"/>
        <pt x="398" y="595" on="0"/>
        <pt x="350" y="568" on="0"/>
        <pt x="314" y="543" on="1"/>
        <pt x="164" y="580" on="1"/>
      </contour>
    </TTGlyph>
    <TTGlyph name="five.sup" xMin="91" yMin="-11" xMax="680" yMax="789">
      <contour>
        <pt x="162" y="789" on="1"/>
        <pt x="641" y="789" on="1"/>
        <pt x="641" y="659" on="1"/>
        <pt x="293" y="659" on="1"/>
        <pt x="270" y="487" on="1"/>
        <pt x="295" y="498" on="0"/>
        <pt x="368" y="516" on="0"/>
        <pt x="409" y="516" on="1"/>
        <pt x="537" y="516" on="0"/>
        <pt x="680" y="379" on="0"/>
        <pt x="680" y="258" on="1"/>
        <pt x="680" y="184" on="0"/>
        <pt x="615" y="62" on="0"/>
        <pt x="483" y="-11" on="0"/>
        <pt x="386" y="-11" on="1"/>
        <pt x="310" y="-11" on="0"/>
        <pt x="178" y="43" on="0"/>
        <pt x="95" y="146" on="0"/>
        <pt x="91" y="216" on="1"/>
        <pt x="247" y="216" on="1"/>
        <pt x="253" y="166" on="0"/>
        <pt x="326" y="116" on="0"/>
        <pt x="386" y="116" on="1"/>
        <pt x="455" y="116" on="0"/>
        <pt x="521" y="195" on="0"/>
        <pt x="521" y="260" on="1"/>
        <pt x="521" y="324" on="0"/>
        <pt x="442" y="400" on="0"/>
        <pt x="371" y="400" on="1"/>
        <pt x="322" y="400" on="0"/>
        <pt x="268" y="378" on="0"/>
        <pt x="239" y="357" on="1"/>
        <pt x="112" y="388" on="1"/>
      </contour>
    </TTGlyph>
    <TTGlyph name="four" xMin="53" yMin="0" xMax="1105" yMax="1456">
      <contour>
        <pt x="1105" y="339" on="1"/>
        <pt x="903" y="339" on="1"/>
        <pt x="903" y="0" on="1"/>
        <pt x="716" y="0" on="1"/>
        <pt x="716" y="339" on="1"/>
        <pt x="53" y="339" on="1"/>
        <pt x="53" y="447" on="1"/>
        <pt x="704" y="1456" on="1"/>
        <pt x="903" y="1456" on="1"/>
        <pt x="903" y="489" on="1"/>
        <pt x="1105" y="489" on="1"/>
      </contour>
      <contour>
        <pt x="716" y="489" on="1"/>
        <pt x="716" y="1205" on="1"/>
        <pt x="694" y="1165" on="1"/>
        <pt x="264" y="489" on="1"/>
      </contour>
    </TTGlyph>
    <TTGlyph name="four.frac" xMin="54" yMin="664" xMax="700" yMax="1453">
      <component glyphName=".ttfautohint" x="54" y="664" flags="0x0"/>
      <component glyphName="four.sup" x="0" y="664" flags="0x4"/>
    </TTGlyph>
    <TTGlyph name="four.smcp" xMin="48" yMin="0" xMax="997" yMax="1165">
      <contour>
        <pt x="997" y="263" on="1"/>
        <pt x="822" y="263" on="1"/>
        <pt x="822" y="0" on="1"/>
        <pt x="635" y="0" on="1"/>
        <pt x="635" y="263" on="1"/>
        <pt x="51" y="263" on="1"/>
        <pt x="48" y="377" on="1"/>
        <pt x="626" y="1165" on="1"/>
        <pt x="822" y="1165" on="1"/>
        <pt x="822" y="413" on="1"/>
        <pt x="997" y="413" on="1"/>
      </contour>
      <contour>
        <pt x="635" y="413" on="1"/>
        <pt x="635" y="922" on="1"/>
        <pt x="609" y="875" on="1"/>
        <pt x="248" y="413" on="1"/>
      </contour>
    </TTGlyph>
    <TTGlyph name="four.sup" xMin="54" yMin="0" xMax="700" yMax="789">
      <contour>
        <pt x="700" y="170" on="1"/>
        <pt x="593" y="170" on="1"/>
        <pt x="593" y="0" on="1"/>
        <pt x="434" y="0" on="1"/>
        <pt x="434" y="170" on="1"/>
        <pt x="61" y="170" on="1"/>
        <pt x="54" y="271" on="1"/>
        <pt x="431" y="789" on="1"/>
        <pt x="593" y="789" on="1"/>
        <pt x="593" y="299" on="1"/>
        <pt x="700" y="299" on="1"/>
      </contour>
      <contour>
        <pt x="434" y="299" on="1"/>
        <pt x="434" y="586" on="1"/>
        <pt x="419" y="561" on="1"/>
        <pt x="213" y="299" on="1"/>
      </contour>
    </TTGlyph>
    <TTGlyph name="fraction" xMin="60" yMin="111" xMax="876" yMax="1315">
      <contour>
        <pt x="60" y="177" on="1"/>
        <pt x="771" y="1315" on="1"/>
        <pt x="876" y="1249" on="1"/>
        <pt x="165" y="111" on="1"/>
      </contour>
    </TTGlyph>
    <TTGlyph name="g" xMin="96" yMin="-427" xMax="1011" yMax="1102">
      <contour>
        <pt x="1011" y="1082" on="1"/>
        <pt x="1011" y="23" on="1"/>
        <pt x="1011" y="-118" on="0"/>
        <pt x="895" y="-321" on="0"/>
        <pt x="688" y="-427" on="0"/>
        <pt x="552" y="-427" on="1"/>
        <pt x="489" y="-427" on="0"/>
        <pt x="339" y="-389" on="0"/>
        <pt x="196" y="-305" on="0"/>
        <pt x="151" y="-239" on="1"/>
        <pt x="248" y="-130" on="1"/>
        <pt x="368" y="-277" on="0"/>
        <pt x="538" y="-277" on="1"/>
        <pt x="671" y="-277" on="0"/>
        <pt x="824" y="-126" on="0"/>
        <pt x="824" y="14" on="1"/>
        <pt x="824" y="107" on="1"/>
        <pt x="714" y="-20" on="0"/>
        <pt x="522" y="-20" on="1"/>
        <pt x="394" y="-20" on="0"/>
        <pt x="201" y="122" on="0"/>
        <pt x="96" y="371" on="0"/>
        <pt x="96" y="529" on="1"/>
        <pt x="96" y="550" on="1"/>
        <pt x="96" y="714" on="0"/>
        <pt x="200" y="964" on="0"/>
        <pt x="394" y="1102" on="0"/>
        <pt x="524" y="1102" on="1"/>
        <pt x="721" y="1102" on="0"/>
        <pt x="833" y="964" on="1"/>
        <pt x="841" y="1082" on="1"/>
      </contour>
      <contour>
        <pt x="741" y="136" on="0"/>
        <pt x="824" y="295" on="1"/>
        <pt x="824" y="792" on="1"/>
        <pt x="786" y="864" on="0"/>
        <pt x="660" y="947" on="0"/>
        <pt x="570" y="947" on="1"/>
        <pt x="473" y="947" on="0"/>
        <pt x="344" y="842" on="0"/>
        <pt x="283" y="662" on="0"/>
        <pt x="283" y="550" on="1"/>
        <pt x="283" y="529" on="1"/>
        <pt x="283" y="417" on="0"/>
        <pt x="344" y="240" on="0"/>
        <pt x="472" y="136" on="0"/>
        <pt x="568" y="136" on="1"/>
      </contour>
    </TTGlyph>
    <TTGlyph name="g.alt" xMin="30" yMin="-438" xMax="1042" yMax="1102">
      <contour>
        <pt x="818" y="196" on="0"/>
        <pt x="1031" y="50" on="0"/>
        <pt x="1031" y="-98" on="1"/>
        <pt x="1031" y="-178" on="0"/>
        <pt x="901" y="-335" on="0"/>
        <pt x="656" y="-438" on="0"/>
        <pt x="494" y="-438" on="1"/>
        <pt x="349" y="-438" on="0"/>
        <pt x="139" y="-363" on="0"/>
        <pt x="30" y="-236" on="0"/>
        <pt x="30" y="-161" on="1"/>
        <pt x="30" y="-71" on="0"/>
        <pt x="130" y="63" on="0"/>
        <pt x="209" y="103" on="1"/>
        <pt x="152" y="150" on="0"/>
        <pt x="152" y="224" on="1"/>
        <pt x="152" y="294" on="0"/>
        <pt x="216" y="393" on="0"/>
        <pt x="267" y="430" on="1"/>
        <pt x="185" y="480" on="0"/>
        <pt x="92" y="633" on="0"/>
        <pt x="92" y="722" on="1"/>
        <pt x="92" y="744" on="1"/>
        <pt x="92" y="847" on="0"/>
        <pt x="201" y="1010" on="0"/>
        <pt x="396" y="1102" on="0"/>
        <pt x="521" y="1102" on="1"/>
        <pt x="603" y="1102" on="0"/>
        <pt x="674" y="1082" on="1"/>
        <pt x="1040" y="1082" on="1"/>
        <pt x="1042" y="937" on="1"/>
        <pt x="890" y="937" on="1"/>
        <pt x="950" y="852" on="0"/>
        <pt x="950" y="744" on="1"/>
        <pt x="950" y="722" on="1"/>
        <pt x="950" y="625" on="0"/>
        <pt x="842" y="461" on="0"/>
        <pt x="647" y="364" on="0"/>
        <pt x="523" y="364" on="1"/>
        <pt x="442" y="364" on="0"/>
        <pt x="371" y="385" on="1"/>
        <pt x="320" y="342" on="0"/>
        <pt x="320" y="279" on="1"/>
        <pt x="320" y="196" on="0"/>
        <pt x="447" y="196" on="1"/>
        <pt x="619" y="196" on="1"/>
      </contour>
      <contour>
        <pt x="279" y="722" on="1"/>
        <pt x="279" y="669" on="0"/>
        <pt x="341" y="574" on="0"/>
        <pt x="452" y="515" on="0"/>
        <pt x="523" y="515" on="1"/>
        <pt x="593" y="515" on="0"/>
        <pt x="703" y="574" on="0"/>
        <pt x="764" y="669" on="0"/>
        <pt x="764" y="722" on="1"/>
        <pt x="764" y="744" on="1"/>
        <pt x="764" y="800" on="0"/>
        <pt x="702" y="895" on="0"/>
        <pt x="592" y="952" on="0"/>
        <pt x="521" y="952" on="1"/>
        <pt x="451" y="952" on="0"/>
        <pt x="340" y="895" on="0"/>
        <pt x="279" y="800" on="0"/>
        <pt x="279" y="744" on="1"/>
      </contour>
      <contour>
        <pt x="600" y="-288" on="0"/>
        <pt x="760" y="-230" on="0"/>
        <pt x="844" y="-142" on="0"/>
        <pt x="844" y="-98" on="1"/>
        <pt x="844" y="-26" on="0"/>
        <pt x="743" y="46" on="0"/>
        <pt x="619" y="46" on="1"/>
        <pt x="411" y="46" on="1"/>
        <pt x="371" y="46" on="0"/>
        <pt x="333" y="52" on="1"/>
        <pt x="282" y="29" on="0"/>
        <pt x="217" y="-66" on="0"/>
        <pt x="217" y="-125" on="1"/>
        <pt x="217" y="-171" on="0"/>
        <pt x="278" y="-245" on="0"/>
        <pt x="402" y="-288" on="0"/>
        <pt x="494" y="-288" on="1"/>
      </contour>
    </TTGlyph>
    <TTGlyph name="g.ss06" xMin="91" yMin="-427" xMax="1025" yMax="1102">
      <contour>
        <pt x="1025" y="1082" on="1"/>
        <pt x="1025" y="78" on="1"/>
        <pt x="1025" y="-83" on="0"/>
        <pt x="916" y="-309" on="0"/>
        <pt x="705" y="-427" on="0"/>
        <pt x="555" y="-427" on="1"/>
        <pt x="469" y="-427" on="0"/>
        <pt x="270" y="-373" on="0"/>
        <pt x="196" y="-322" on="1"/>
        <pt x="252" y="-185" on="1"/>
        <pt x="314" y="-227" on="0"/>
        <pt x="475" y="-277" on="0"/>
        <pt x="553" y="-277" on="1"/>
        <pt x="699" y="-277" on="0"/>
        <pt x="838" y="-103" on="0"/>
        <pt x="838" y="69" on="1"/>
        <pt x="838" y="107" on="1"/>
        <pt x="728" y="-20" on="0"/>
        <pt x="536" y="-20" on="1"/>
        <pt x="408" y="-20" on="0"/>
        <pt x="205" y="122" on="0"/>
        <pt x="91" y="373" on="0"/>
        <pt x="91" y="529" on="1"/>
        <pt x="91" y="550" on="1"/>
        <pt x="91" y="713" on="0"/>
        <pt x="204" y="964" on="0"/>
        <pt x="408" y="1102" on="0"/>
        <pt x="538" y="1102" on="1"/>
        <pt x="741" y="1102" on="0"/>
        <pt x="852" y="957" on="1"/>
        <pt x="868" y="1082" on="1"/>
      </contour>
      <contour>
        <pt x="756" y="136" on="0"/>
        <pt x="838" y="294" on="1"/>
        <pt x="838" y="793" on="1"/>
        <pt x="800" y="864" on="0"/>
        <pt x="674" y="947" on="0"/>
        <pt x="584" y="947" on="1"/>
        <pt x="486" y="947" on="0"/>
        <pt x="348" y="843" on="0"/>
        <pt x="278" y="663" on="0"/>
        <pt x="278" y="550" on="1"/>
        <pt x="278" y="529" on="1"/>
        <pt x="278" y="419" on="0"/>
        <pt x="348" y="240" on="0"/>
        <pt x="486" y="136" on="0"/>
        <pt x="582" y="136" on="1"/>
      </contour>
    </TTGlyph>
    <TTGlyph name="g.ss07" xMin="96" yMin="-427" xMax="1011" yMax="1102">
      <contour>
        <pt x="1011" y="1082" on="1"/>
        <pt x="1011" y="60" on="1"/>
        <pt x="1011" y="-95" on="0"/>
        <pt x="901" y="-313" on="0"/>
        <pt x="690" y="-427" on="0"/>
        <pt x="540" y="-427" on="1"/>
        <pt x="463" y="-427" on="0"/>
        <pt x="284" y="-383" on="0"/>
        <pt x="218" y="-341" on="1"/>
        <pt x="274" y="-204" on="1"/>
        <pt x="330" y="-238" on="0"/>
        <pt x="470" y="-277" on="0"/>
        <pt x="538" y="-277" on="1"/>
        <pt x="685" y="-277" on="0"/>
        <pt x="824" y="-112" on="0"/>
        <pt x="824" y="50" on="1"/>
        <pt x="824" y="107" on="1"/>
        <pt x="714" y="-20" on="0"/>
        <pt x="522" y="-20" on="1"/>
        <pt x="394" y="-20" on="0"/>
        <pt x="201" y="121" on="0"/>
        <pt x="96" y="370" on="0"/>
        <pt x="96" y="528" on="1"/>
        <pt x="96" y="549" on="1"/>
        <pt x="96" y="713" on="0"/>
        <pt x="200" y="964" on="0"/>
        <pt x="394" y="1102" on="0"/>
        <pt x="524" y="1102" on="1"/>
        <pt x="726" y="1102" on="0"/>
        <pt x="838" y="957" on="1"/>
        <pt x="853" y="1082" on="1"/>
      </contour>
      <contour>
        <pt x="741" y="136" on="0"/>
        <pt x="824" y="295" on="1"/>
        <pt x="824" y="792" on="1"/>
        <pt x="786" y="864" on="0"/>
        <pt x="660" y="947" on="0"/>
        <pt x="570" y="947" on="1"/>
        <pt x="426" y="947" on="0"/>
        <pt x="283" y="728" on="0"/>
        <pt x="283" y="549" on="1"/>
        <pt x="283" y="528" on="1"/>
        <pt x="283" y="416" on="0"/>
        <pt x="344" y="239" on="0"/>
        <pt x="472" y="136" on="0"/>
        <pt x="568" y="136" on="1"/>
      </contour>
    </TTGlyph>
    <TTGlyph name="germandbls" xMin="139" yMin="-20" xMax="1131" yMax="1554">
      <contour>
        <pt x="139" y="0" on="1"/>
        <pt x="139" y="1112" on="1"/>
        <pt x="139" y="1255" on="0"/>
        <pt x="237" y="1454" on="0"/>
        <pt x="415" y="1554" on="0"/>
        <pt x="533" y="1554" on="1"/>
        <pt x="645" y="1554" on="0"/>
        <pt x="814" y="1480" on="0"/>
        <pt x="910" y="1329" on="0"/>
        <pt x="910" y="1217" on="1"/>
        <pt x="910" y="1162" on="0"/>
        <pt x="889" y="1075" on="0"/>
        <pt x="860" y="1013" on="0"/>
        <pt x="836" y="972" on="1"/>
        <pt x="808" y="926" on="0"/>
        <pt x="782" y="861" on="0"/>
        <pt x="782" y="820" on="1"/>
        <pt x="782" y="781" on="0"/>
        <pt x="822" y="712" on="0"/>
        <pt x="883" y="655" on="0"/>
        <pt x="934" y="614" on="1"/>
        <pt x="998" y="563" on="0"/>
        <pt x="1076" y="487" on="0"/>
        <pt x="1131" y="382" on="0"/>
        <pt x="1131" y="317" on="1"/>
        <pt x="1131" y="206" on="0"/>
        <pt x="1034" y="55" on="0"/>
        <pt x="860" y="-20" on="0"/>
        <pt x="746" y="-20" on="1"/>
        <pt x="664" y="-20" on="0"/>
        <pt x="486" y="24" on="0"/>
        <pt x="447" y="53" on="1"/>
        <pt x="489" y="206" on="1"/>
        <pt x="534" y="178" on="0"/>
        <pt x="664" y="130" on="0"/>
        <pt x="726" y="130" on="1"/>
        <pt x="837" y="130" on="0"/>
        <pt x="944" y="228" on="0"/>
        <pt x="944" y="308" on="1"/>
        <pt x="944" y="349" on="0"/>
        <pt x="904" y="418" on="0"/>
        <pt x="844" y="475" on="0"/>
        <pt x="793" y="516" on="1"/>
        <pt x="729" y="568" on="0"/>
        <pt x="651" y="645" on="0"/>
        <pt x="596" y="754" on="0"/>
        <pt x="596" y="822" on="1"/>
        <pt x="596" y="876" on="0"/>
        <pt x="631" y="961" on="0"/>
        <pt x="666" y="1016" on="1"/>
        <pt x="700" y="1071" on="0"/>
        <pt x="734" y="1151" on="0"/>
        <pt x="734" y="1202" on="1"/>
        <pt x="734" y="1299" on="0"/>
        <pt x="628" y="1404" on="0"/>
        <pt x="543" y="1404" on="1"/>
        <pt x="438" y="1404" on="0"/>
        <pt x="325" y="1260" on="0"/>
        <pt x="325" y="1112" on="1"/>
        <pt x="325" y="0" on="1"/>
      </contour>
    </TTGlyph>
    <TTGlyph name="grave" xMin="56" yMin="1243" xMax="475" yMax="1536">
      <contour>
        <pt x="315" y="1243" on="1"/>
        <pt x="56" y="1536" on="1"/>
        <pt x="281" y="1536" on="1"/>
        <pt x="475" y="1243" on="1"/>
      </contour>
    </TTGlyph>
    <TTGlyph name="gravecomb" xMin="-859" yMin="1243" xMax="-440" yMax="1536">
      <contour>
        <pt x="-600" y="1243" on="1"/>
        <pt x="-859" y="1536" on="1"/>
        <pt x="-633" y="1536" on="1"/>
        <pt x="-440" y="1243" on="1"/>
      </contour>
    </TTGlyph>
    <TTGlyph name="greater" xMin="135" yMin="198" xMax="989" yMax="1099">
      <contour>
        <pt x="989" y="721" on="1"/>
        <pt x="989" y="577" on="1"/>
        <pt x="135" y="198" on="1"/>
        <pt x="135" y="388" on="1"/>
        <pt x="796" y="652" on="1"/>
        <pt x="135" y="910" on="1"/>
        <pt x="135" y="1099" on="1"/>
      </contour>
    </TTGlyph>
    <TTGlyph name="guillemotleft" xMin="100" yMin="151" xMax="870" yMax="946">
      <component glyphName=".ttfautohint" x="100" y="151" flags="0x0"/>
      <component glyphName="guilsinglleft" x="-8" y="-3" flags="0x4"/>
      <component glyphName="guilsinglleft" x="324" y="-3" flags="0x4"/>
    </TTGlyph>
    <TTGlyph name="guillemotright" xMin="103" yMin="153" xMax="890" yMax="949">
      <component glyphName=".ttfautohint" x="103" y="153" flags="0x0"/>
      <component glyphName="guilsinglright" x="13" y="0" flags="0x0"/>
      <component glyphName="guilsinglright" x="363" y="0" flags="0x0"/>
    </TTGlyph>
    <TTGlyph name="guilsinglleft" xMin="108" yMin="154" xMax="546" yMax="949">
      <contour>
        <pt x="288" y="552" on="1"/>
        <pt x="546" y="154" on="1"/>
        <pt x="403" y="154" on="1"/>
        <pt x="108" y="542" on="1"/>
        <pt x="108" y="561" on="1"/>
        <pt x="403" y="949" on="1"/>
        <pt x="546" y="949" on="1"/>
      </contour>
    </TTGlyph>
    <TTGlyph name="guilsinglright" xMin="90" yMin="153" xMax="527" yMax="949">
      <contour>
        <pt x="527" y="560" on="1"/>
        <pt x="527" y="541" on="1"/>
        <pt x="232" y="153" on="1"/>
        <pt x="90" y="153" on="1"/>
        <pt x="347" y="551" on="1"/>
        <pt x="90" y="949" on="1"/>
        <pt x="232" y="949" on="1"/>
      </contour>
    </TTGlyph>
    <TTGlyph name="h" xMin="140" yMin="0" xMax="992" yMax="1536">
      <contour>
        <pt x="992" y="1102" on="0"/>
        <pt x="992" y="709" on="1"/>
        <pt x="992" y="0" on="1"/>
        <pt x="805" y="0" on="1"/>
        <pt x="805" y="711" on="1"/>
        <pt x="805" y="835" on="0"/>
        <pt x="698" y="947" on="0"/>
        <pt x="590" y="947" on="1"/>
        <pt x="504" y="947" on="0"/>
        <pt x="367" y="853" on="0"/>
        <pt x="327" y="774" on="1"/>
        <pt x="327" y="0" on="1"/>
        <pt x="140" y="0" on="1"/>
        <pt x="140" y="1536" on="1"/>
        <pt x="327" y="1536" on="1"/>
        <pt x="327" y="954" on="1"/>
        <pt x="386" y="1025" on="0"/>
        <pt x="548" y="1102" on="0"/>
        <pt x="645" y="1102" on="1"/>
      </contour>
    </TTGlyph>
    <TTGlyph name="hyphen" xMin="37" yMin="544" xMax="526" yMax="695">
      <contour>
        <pt x="37" y="544" on="1"/>
        <pt x="37" y="695" on="1"/>
        <pt x="526" y="695" on="1"/>
        <pt x="526" y="544" on="1"/>
      </contour>
    </TTGlyph>
    <TTGlyph name="i" xMin="142" yMin="0" xMax="362" yMax="1476">
      <contour>
        <pt x="303" y="1476" on="0"/>
        <pt x="362" y="1416" on="0"/>
        <pt x="362" y="1370" on="1"/>
        <pt x="362" y="1325" on="0"/>
        <pt x="303" y="1266" on="0"/>
        <pt x="251" y="1266" on="1"/>
        <pt x="199" y="1266" on="0"/>
        <pt x="142" y="1325" on="0"/>
        <pt x="142" y="1370" on="1"/>
        <pt x="142" y="1416" on="0"/>
        <pt x="199" y="1476" on="0"/>
        <pt x="251" y="1476" on="1"/>
      </contour>
      <contour>
        <pt x="156" y="0" on="1"/>
        <pt x="156" y="1082" on="1"/>
        <pt x="343" y="1082" on="1"/>
        <pt x="343" y="0" on="1"/>
      </contour>
    </TTGlyph>
    <TTGlyph name="iacute" xMin="156" yMin="0" xMax="579" yMax="1534">
      <component glyphName=".ttfautohint" x="156" y="0" flags="0x0"/>
      <component glyphName="dotlessi" x="0" y="0" flags="0x0"/>
      <component glyphName="acutecomb" x="819" y="-2" flags="0x4"/>
    </TTGlyph>
    <TTGlyph name="icircumflex" xMin="-49" yMin="0" xMax="557" yMax="1534">
      <component glyphName=".ttfautohint" x="0" y="0" flags="0x0"/>
      <component glyphName="dotlessi" x="0" y="0" flags="0x0"/>
      <component glyphName="circumflex" x="-219" y="-2" flags="0x4"/>
    </TTGlyph>
    <TTGlyph name="idieresis" xMin="-70" yMin="0" xMax="581" yMax="1476">
      <component glyphName=".ttfautohint" x="0" y="0" flags="0x0"/>
      <component glyphName="dotlessi" x="0" y="0" flags="0x0"/>
      <component glyphName="dieresis" x="-170" y="-2" flags="0x4"/>
    </TTGlyph>
    <TTGlyph name="igrave" xMin="-77" yMin="0" xMax="342" yMax="1534">
      <component glyphName=".ttfautohint" x="0" y="0" flags="0x0"/>
      <component glyphName="dotlessi" x="0" y="0" flags="0x0"/>
      <component glyphName="gravecomb" x="782" y="-2" flags="0x4"/>
    </TTGlyph>
    <TTGlyph name="j" xMin="-65" yMin="-437" xMax="347" yMax="1476">
      <contour>
        <pt x="288" y="1476" on="0"/>
        <pt x="347" y="1416" on="0"/>
        <pt x="347" y="1370" on="1"/>
        <pt x="347" y="1325" on="0"/>
        <pt x="288" y="1266" on="0"/>
        <pt x="236" y="1266" on="1"/>
        <pt x="184" y="1266" on="0"/>
        <pt x="127" y="1325" on="0"/>
        <pt x="127" y="1370" on="1"/>
        <pt x="127" y="1416" on="0"/>
        <pt x="184" y="1476" on="0"/>
        <pt x="236" y="1476" on="1"/>
      </contour>
      <contour>
        <pt x="333" y="-129" on="1"/>
        <pt x="333" y="-280" on="0"/>
        <pt x="191" y="-437" on="0"/>
        <pt x="50" y="-437" on="1"/>
        <pt x="24" y="-437" on="0"/>
        <pt x="-42" y="-427" on="0"/>
        <pt x="-65" y="-420" on="1"/>
        <pt x="-64" y="-272" on="1"/>
        <pt x="-27" y="-281" on="0"/>
        <pt x="21" y="-281" on="1"/>
        <pt x="83" y="-281" on="0"/>
        <pt x="146" y="-210" on="0"/>
        <pt x="146" y="-129" on="1"/>
        <pt x="146" y="1082" on="1"/>
        <pt x="333" y="1082" on="1"/>
      </contour>
    </TTGlyph>
    <TTGlyph name="k" xMin="141" yMin="0" xMax="1038" yMax="1536">
      <contour>
        <pt x="444" y="502" on="1"/>
        <pt x="328" y="382" on="1"/>
        <pt x="328" y="0" on="1"/>
        <pt x="141" y="0" on="1"/>
        <pt x="141" y="1536" on="1"/>
        <pt x="328" y="1536" on="1"/>
        <pt x="328" y="608" on="1"/>
        <pt x="427" y="725" on="1"/>
        <pt x="761" y="1082" on="1"/>
        <pt x="988" y="1082" on="1"/>
        <pt x="567" y="631" on="1"/>
        <pt x="1038" y="0" on="1"/>
        <pt x="818" y="0" on="1"/>
      </contour>
    </TTGlyph>
    <TTGlyph name="k.alt" xMin="147" yMin="0" xMax="1046" yMax="1536">
      <contour>
        <pt x="463" y="502" on="1"/>
        <pt x="333" y="502" on="1"/>
        <pt x="333" y="0" on="1"/>
        <pt x="147" y="0" on="1"/>
        <pt x="147" y="1536" on="1"/>
        <pt x="333" y="1536" on="1"/>
        <pt x="333" y="654" on="1"/>
        <pt x="459" y="654" on="1"/>
        <pt x="772" y="1082" on="1"/>
        <pt x="993" y="1082" on="1"/>
        <pt x="617" y="590" on="1"/>
        <pt x="1046" y="0" on="1"/>
        <pt x="825" y="0" on="1"/>
      </contour>
    </TTGlyph>
    <TTGlyph name="k.alt2" xMin="147" yMin="0" xMax="1011" yMax="1560">
      <contour>
        <pt x="339" y="500" on="1"/>
        <pt x="333" y="500" on="1"/>
        <pt x="333" y="0" on="1"/>
        <pt x="147" y="0" on="1"/>
        <pt x="147" y="1560" on="1"/>
        <pt x="333" y="1560" on="1"/>
        <pt x="333" y="653" on="1"/>
        <pt x="334" y="653" on="1"/>
        <pt x="727" y="1082" on="1"/>
        <pt x="969" y="1082" on="1"/>
        <pt x="500" y="583" on="1"/>
        <pt x="1011" y="0" on="1"/>
        <pt x="781" y="0" on="1"/>
      </contour>
    </TTGlyph>
    <TTGlyph name="l" xMin="156" yMin="0" xMax="343" yMax="1536">
      <contour>
        <pt x="156" y="0" on="1"/>
        <pt x="156" y="1536" on="1"/>
        <pt x="343" y="1536" on="1"/>
        <pt x="343" y="0" on="1"/>
      </contour>
    </TTGlyph>
    <TTGlyph name="less" xMin="72" yMin="196" xMax="890" yMax="1098">
      <contour>
        <pt x="890" y="904" on="1"/>
        <pt x="266" y="645" on="1"/>
        <pt x="890" y="391" on="1"/>
        <pt x="890" y="196" on="1"/>
        <pt x="72" y="575" on="1"/>
        <pt x="72" y="720" on="1"/>
        <pt x="890" y="1098" on="1"/>
      </contour>
    </TTGlyph>
    <TTGlyph name="logicalnot" xMin="127" yMin="376" xMax="959" yMax="800">
      <contour>
        <pt x="959" y="800" on="1"/>
        <pt x="959" y="376" on="1"/>
        <pt x="772" y="376" on="1"/>
        <pt x="772" y="640" on="1"/>
        <pt x="127" y="640" on="1"/>
        <pt x="127" y="800" on="1"/>
      </contour>
    </TTGlyph>
    <TTGlyph name="longs" xMin="160" yMin="0" xMax="643" yMax="1557">
      <contour>
        <pt x="160" y="1197" on="1"/>
        <pt x="160" y="1369" on="0"/>
        <pt x="340" y="1557" on="0"/>
        <pt x="500" y="1557" on="1"/>
        <pt x="559" y="1557" on="0"/>
        <pt x="643" y="1536" on="1"/>
        <pt x="620" y="1395" on="1"/>
        <pt x="579" y="1407" on="0"/>
        <pt x="529" y="1407" on="1"/>
        <pt x="441" y="1407" on="0"/>
        <pt x="347" y="1296" on="0"/>
        <pt x="347" y="1197" on="1"/>
        <pt x="347" y="0" on="1"/>
        <pt x="160" y="0" on="1"/>
      </contour>
    </TTGlyph>
    <TTGlyph name="longst" xMin="61" yMin="-20" xMax="1180" yMax="1557">
      <contour>
        <pt x="1180" y="0" on="1"/>
        <pt x="1116" y="-20" on="0"/>
        <pt x="1037" y="-20" on="1"/>
        <pt x="924" y="-20" on="0"/>
        <pt x="787" y="116" on="0"/>
        <pt x="787" y="269" on="1"/>
        <pt x="787" y="941" on="1"/>
        <pt x="590" y="941" on="1"/>
        <pt x="590" y="1082" on="1"/>
        <pt x="787" y="1082" on="1"/>
        <pt x="787" y="1370" on="1"/>
        <pt x="758" y="1385" on="0"/>
        <pt x="646" y="1407" on="0"/>
        <pt x="600" y="1407" on="1"/>
        <pt x="512" y="1407" on="0"/>
        <pt x="418" y="1296" on="0"/>
        <pt x="418" y="1197" on="1"/>
        <pt x="418" y="0" on="1"/>
        <pt x="231" y="0" on="1"/>
        <pt x="231" y="941" on="1"/>
        <pt x="61" y="941" on="1"/>
        <pt x="61" y="1082" on="1"/>
        <pt x="231" y="1082" on="1"/>
        <pt x="231" y="1197" on="1"/>
        <pt x="231" y="1369" on="0"/>
        <pt x="411" y="1557" on="0"/>
        <pt x="571" y="1557" on="1"/>
        <pt x="660" y="1557" on="0"/>
        <pt x="882" y="1502" on="0"/>
        <pt x="974" y="1457" on="1"/>
        <pt x="974" y="1082" on="1"/>
        <pt x="1176" y="1082" on="1"/>
        <pt x="1176" y="941" on="1"/>
        <pt x="974" y="941" on="1"/>
        <pt x="974" y="268" on="1"/>
        <pt x="974" y="191" on="0"/>
        <pt x="1038" y="138" on="0"/>
        <pt x="1093" y="138" on="1"/>
        <pt x="1114" y="138" on="0"/>
        <pt x="1164" y="145" on="0"/>
        <pt x="1179" y="149" on="1"/>
      </contour>
    </TTGlyph>
    <TTGlyph name="m" xMin="139" yMin="0" xMax="1656" yMax="1102">
      <contour>
        <pt x="1472" y="1102" on="0"/>
        <pt x="1656" y="912" on="0"/>
        <pt x="1656" y="711" on="1"/>
        <pt x="1656" y="0" on="1"/>
        <pt x="1469" y="0" on="1"/>
        <pt x="1469" y="713" on="1"/>
        <pt x="1469" y="842" on="0"/>
        <pt x="1352" y="947" on="0"/>
        <pt x="1239" y="947" on="1"/>
        <pt x="1167" y="947" on="0"/>
        <pt x="1060" y="886" on="0"/>
        <pt x="998" y="783" on="0"/>
        <pt x="991" y="719" on="1"/>
        <pt x="991" y="0" on="1"/>
        <pt x="804" y="0" on="1"/>
        <pt x="804" y="712" on="1"/>
        <pt x="804" y="947" on="0"/>
        <pt x="573" y="947" on="1"/>
        <pt x="480" y="947" on="0"/>
        <pt x="358" y="866" on="0"/>
        <pt x="326" y="794" on="1"/>
        <pt x="326" y="0" on="1"/>
        <pt x="139" y="0" on="1"/>
        <pt x="139" y="1082" on="1"/>
        <pt x="316" y="1082" on="1"/>
        <pt x="321" y="965" on="1"/>
        <pt x="439" y="1102" on="0"/>
        <pt x="641" y="1102" on="1"/>
        <pt x="749" y="1102" on="0"/>
        <pt x="909" y="1017" on="0"/>
        <pt x="950" y="930" on="1"/>
        <pt x="1006" y="1010" on="0"/>
        <pt x="1181" y="1102" on="0"/>
        <pt x="1294" y="1102" on="1"/>
      </contour>
    </TTGlyph>
    <TTGlyph name="macron" xMin="143" yMin="1304" xMax="815" yMax="1445">
      <contour>
        <pt x="143" y="1304" on="1"/>
        <pt x="143" y="1445" on="1"/>
        <pt x="815" y="1445" on="1"/>
        <pt x="815" y="1304" on="1"/>
      </contour>
    </TTGlyph>
    <TTGlyph name="minus" xMin="168" yMin="652" xMax="1003" yMax="802">
      <contour>
        <pt x="168" y="652" on="1"/>
        <pt x="168" y="802" on="1"/>
        <pt x="1003" y="802" on="1"/>
        <pt x="1003" y="652" on="1"/>
      </contour>
    </TTGlyph>
    <TTGlyph name="multiply" xMin="89" yMin="204" xMax="990" yMax="1120">
      <contour>
        <pt x="870" y="204" on="1"/>
        <pt x="540" y="541" on="1"/>
        <pt x="209" y="204" on="1"/>
        <pt x="89" y="326" on="1"/>
        <pt x="420" y="663" on="1"/>
        <pt x="91" y="998" on="1"/>
        <pt x="211" y="1120" on="1"/>
        <pt x="540" y="785" on="1"/>
        <pt x="868" y="1120" on="1"/>
        <pt x="988" y="998" on="1"/>
        <pt x="659" y="663" on="1"/>
        <pt x="990" y="326" on="1"/>
      </contour>
    </TTGlyph>
    <TTGlyph name="n" xMin="140" yMin="0" xMax="992" yMax="1102">
      <contour>
        <pt x="992" y="1102" on="0"/>
        <pt x="992" y="709" on="1"/>
        <pt x="992" y="0" on="1"/>
        <pt x="805" y="0" on="1"/>
        <pt x="805" y="711" on="1"/>
        <pt x="805" y="835" on="0"/>
        <pt x="698" y="947" on="0"/>
        <pt x="590" y="947" on="1"/>
        <pt x="504" y="947" on="0"/>
        <pt x="367" y="853" on="0"/>
        <pt x="327" y="774" on="1"/>
        <pt x="327" y="0" on="1"/>
        <pt x="140" y="0" on="1"/>
        <pt x="140" y="1082" on="1"/>
        <pt x="317" y="1082" on="1"/>
        <pt x="323" y="949" on="1"/>
        <pt x="382" y="1022" on="0"/>
        <pt x="546" y="1102" on="0"/>
        <pt x="645" y="1102" on="1"/>
      </contour>
    </TTGlyph>
    <TTGlyph name="nine" xMin="100" yMin="-2" xMax="1017" yMax="1476">
      <contour>
        <pt x="711" y="1476" on="0"/>
        <pt x="920" y="1311" on="0"/>
        <pt x="1017" y="1045" on="0"/>
        <pt x="1017" y="888" on="1"/>
        <pt x="1017" y="819" on="1"/>
        <pt x="1017" y="593" on="0"/>
        <pt x="913" y="235" on="0"/>
        <pt x="607" y="-2" on="0"/>
        <pt x="324" y="-2" on="1"/>
        <pt x="305" y="-2" on="1"/>
        <pt x="305" y="154" on="1"/>
        <pt x="324" y="154" on="1"/>
        <pt x="600" y="154" on="0"/>
        <pt x="821" y="419" on="0"/>
        <pt x="830" y="640" on="1"/>
        <pt x="770" y="569" on="0"/>
        <pt x="608" y="487" on="0"/>
        <pt x="516" y="487" on="1"/>
        <pt x="379" y="487" on="0"/>
        <pt x="191" y="626" on="0"/>
        <pt x="100" y="848" on="0"/>
        <pt x="100" y="973" on="1"/>
        <pt x="100" y="1114" on="0"/>
        <pt x="204" y="1343" on="0"/>
        <pt x="408" y="1476" on="0"/>
        <pt x="552" y="1476" on="1"/>
      </contour>
      <contour>
        <pt x="639" y="639" on="0"/>
        <pt x="794" y="753" on="0"/>
        <pt x="831" y="840" on="1"/>
        <pt x="831" y="912" on="1"/>
        <pt x="831" y="1040" on="0"/>
        <pt x="755" y="1227" on="0"/>
        <pt x="627" y="1324" on="0"/>
        <pt x="552" y="1324" on="1"/>
        <pt x="469" y="1324" on="0"/>
        <pt x="347" y="1236" on="0"/>
        <pt x="283" y="1081" on="0"/>
        <pt x="283" y="983" on="1"/>
        <pt x="283" y="893" on="0"/>
        <pt x="342" y="736" on="0"/>
        <pt x="461" y="639" on="0"/>
        <pt x="546" y="639" on="1"/>
      </contour>
    </TTGlyph>
    <TTGlyph name="nine.frac" xMin="73" yMin="657" xMax="662" yMax="1464">
      <component glyphName=".ttfautohint" x="73" y="657" flags="0x0"/>
      <component glyphName="nine.sup" x="0" y="664" flags="0x4"/>
    </TTGlyph>
    <TTGlyph name="nine.smcp" xMin="86" yMin="-7" xMax="923" yMax="1181">
      <contour>
        <pt x="642" y="1181" on="0"/>
        <pt x="831" y="1057" on="0"/>
        <pt x="923" y="844" on="0"/>
        <pt x="923" y="707" on="1"/>
        <pt x="923" y="638" on="1"/>
        <pt x="923" y="345" on="0"/>
        <pt x="638" y="-7" on="0"/>
        <pt x="292" y="-7" on="1"/>
        <pt x="273" y="-7" on="1"/>
        <pt x="274" y="146" on="1"/>
        <pt x="292" y="146" on="1"/>
        <pt x="711" y="146" on="0"/>
        <pt x="735" y="493" on="1"/>
        <pt x="689" y="442" on="0"/>
        <pt x="552" y="382" on="0"/>
        <pt x="464" y="382" on="1"/>
        <pt x="340" y="382" on="0"/>
        <pt x="170" y="488" on="0"/>
        <pt x="86" y="665" on="0"/>
        <pt x="86" y="773" on="1"/>
        <pt x="86" y="887" on="0"/>
        <pt x="184" y="1072" on="0"/>
        <pt x="372" y="1181" on="0"/>
        <pt x="501" y="1181" on="1"/>
      </contour>
      <contour>
        <pt x="578" y="528" on="0"/>
        <pt x="708" y="610" on="0"/>
        <pt x="737" y="673" on="1"/>
        <pt x="737" y="738" on="1"/>
        <pt x="737" y="830" on="0"/>
        <pt x="673" y="962" on="0"/>
        <pt x="566" y="1030" on="0"/>
        <pt x="501" y="1030" on="1"/>
        <pt x="430" y="1030" on="0"/>
        <pt x="326" y="962" on="0"/>
        <pt x="271" y="846" on="0"/>
        <pt x="271" y="777" on="1"/>
        <pt x="271" y="710" on="0"/>
        <pt x="322" y="597" on="0"/>
        <pt x="424" y="528" on="0"/>
        <pt x="497" y="528" on="1"/>
      </contour>
    </TTGlyph>
    <TTGlyph name="nine.sup" xMin="73" yMin="-7" xMax="662" yMax="800">
      <contour>
        <pt x="505" y="800" on="0"/>
        <pt x="662" y="630" on="0"/>
        <pt x="662" y="478" on="1"/>
        <pt x="662" y="426" on="1"/>
        <pt x="662" y="214" on="0"/>
        <pt x="446" y="-7" on="0"/>
        <pt x="224" y="-7" on="1"/>
        <pt x="209" y="-7" on="1"/>
        <pt x="209" y="119" on="1"/>
        <pt x="223" y="119" on="1"/>
        <pt x="357" y="119" on="0"/>
        <pt x="491" y="217" on="0"/>
        <pt x="502" y="320" on="1"/>
        <pt x="470" y="290" on="0"/>
        <pt x="383" y="255" on="0"/>
        <pt x="332" y="255" on="1"/>
        <pt x="249" y="255" on="0"/>
        <pt x="133" y="322" on="0"/>
        <pt x="73" y="441" on="0"/>
        <pt x="73" y="519" on="1"/>
        <pt x="73" y="596" on="0"/>
        <pt x="145" y="724" on="0"/>
        <pt x="279" y="800" on="0"/>
        <pt x="366" y="800" on="1"/>
      </contour>
      <contour>
        <pt x="415" y="376" on="0"/>
        <pt x="486" y="416" on="0"/>
        <pt x="504" y="447" on="1"/>
        <pt x="504" y="507" on="1"/>
        <pt x="504" y="587" on="0"/>
        <pt x="428" y="672" on="0"/>
        <pt x="366" y="672" on="1"/>
        <pt x="305" y="672" on="0"/>
        <pt x="231" y="583" on="0"/>
        <pt x="231" y="519" on="1"/>
        <pt x="231" y="456" on="0"/>
        <pt x="302" y="376" on="0"/>
        <pt x="368" y="376" on="1"/>
      </contour>
    </TTGlyph>
    <TTGlyph name="ntilde" xMin="140" yMin="0" xMax="992" yMax="1516">
      <component glyphName=".ttfautohint" x="140" y="0" flags="0x0"/>
      <component glyphName="n" x="0" y="0" flags="0x0"/>
      <component glyphName="tilde" x="97" y="4" flags="0x4"/>
    </TTGlyph>
    <TTGlyph name="numbersign" xMin="120" yMin="0" xMax="1236" yMax="1456">
      <contour>
        <pt x="1007" y="902" on="1"/>
        <pt x="937" y="547" on="1"/>
        <pt x="1161" y="547" on="1"/>
        <pt x="1161" y="410" on="1"/>
        <pt x="910" y="410" on="1"/>
        <pt x="830" y="0" on="1"/>
        <pt x="686" y="0" on="1"/>
        <pt x="766" y="410" on="1"/>
        <pt x="503" y="410" on="1"/>
        <pt x="423" y="0" on="1"/>
        <pt x="279" y="0" on="1"/>
        <pt x="359" y="410" on="1"/>
        <pt x="120" y="410" on="1"/>
        <pt x="120" y="547" on="1"/>
        <pt x="386" y="547" on="1"/>
        <pt x="455" y="902" on="1"/>
        <pt x="196" y="902" on="1"/>
        <pt x="196" y="1040" on="1"/>
        <pt x="482" y="1040" on="1"/>
        <pt x="563" y="1456" on="1"/>
        <pt x="707" y="1456" on="1"/>
        <pt x="626" y="1040" on="1"/>
        <pt x="889" y="1040" on="1"/>
        <pt x="970" y="1456" on="1"/>
        <pt x="1115" y="1456" on="1"/>
        <pt x="1034" y="1040" on="1"/>
        <pt x="1236" y="1040" on="1"/>
        <pt x="1236" y="902" on="1"/>
      </contour>
      <contour>
        <pt x="862" y="902" on="1"/>
        <pt x="599" y="902" on="1"/>
        <pt x="530" y="547" on="1"/>
        <pt x="793" y="547" on="1"/>
      </contour>
    </TTGlyph>
    <TTGlyph name="o" xMin="92" yMin="-20" xMax="1077" yMax="1102">
      <contour>
        <pt x="92" y="709" on="0"/>
        <pt x="212" y="959" on="0"/>
        <pt x="435" y="1102" on="0"/>
        <pt x="583" y="1102" on="1"/>
        <pt x="733" y="1102" on="0"/>
        <pt x="957" y="959" on="0"/>
        <pt x="1077" y="709" on="0"/>
        <pt x="1077" y="552" on="1"/>
        <pt x="1077" y="529" on="1"/>
        <pt x="1077" y="372" on="0"/>
        <pt x="957" y="123" on="0"/>
        <pt x="734" y="-20" on="0"/>
        <pt x="585" y="-20" on="1"/>
        <pt x="436" y="-20" on="0"/>
        <pt x="213" y="123" on="0"/>
        <pt x="92" y="372" on="0"/>
        <pt x="92" y="529" on="1"/>
        <pt x="92" y="552" on="1"/>
      </contour>
      <contour>
        <pt x="279" y="419" on="0"/>
        <pt x="348" y="237" on="0"/>
        <pt x="486" y="130" on="0"/>
        <pt x="585" y="130" on="1"/>
        <pt x="683" y="130" on="0"/>
        <pt x="821" y="237" on="0"/>
        <pt x="890" y="419" on="0"/>
        <pt x="890" y="529" on="1"/>
        <pt x="890" y="552" on="1"/>
        <pt x="890" y="662" on="0"/>
        <pt x="820" y="844" on="0"/>
        <pt x="682" y="952" on="0"/>
        <pt x="583" y="952" on="1"/>
        <pt x="485" y="952" on="0"/>
        <pt x="348" y="844" on="0"/>
        <pt x="279" y="662" on="0"/>
        <pt x="279" y="552" on="1"/>
        <pt x="279" y="529" on="1"/>
      </contour>
    </TTGlyph>
</ttFont>
